SplineFontDB: 1.0
FontName: FreeSansOblique
FullName: Free Sans Oblique
FamilyName: FreeSans
Weight: Medium
Copyright: Copyleft 2002, 2003, 2005 Free Software Foundation.
Version: $Revision: 1.32 $
ItalicAngle: -12
UnderlinePosition: -151
UnderlineWidth: 50
Ascent: 800
Descent: 200
HheadAscent: -341
HheadDescent: 231
NeedsXUIDChange: 1
FSType: 0
PfmFamily: 33
TTFWeight: 400
TTFWidth: 5
LineGap: 90
VLineGap: 0
Panose: 2 11 5 4 2 2 2 9 2 4
OS2TypoAscent: 0
OS2TypoAOffset: 1
OS2TypoDescent: 0
OS2TypoDOffset: 1
OS2TypoLinegap: 0
OS2WinAscent: -341
OS2WinAOffset: 1
OS2WinDescent: -231
OS2WinDOffset: 1
HheadAOffset: 1
HheadDOffset: 1
OS2Vendor: 'PfEd'
ScriptLang: 6
 1 latn 1 dflt 
 1 armn 1 dflt 
 1 hebr 1 dflt 
 1 DFLT 1 dflt 
 1 grek 1 dflt 
 1 beng 1 dflt 
ChainSub: class 0 0 'ccmp' 3 0 3 1
  Class: 3 i j
  Class: 101 gravecomb acutecomb uni0302 tildecomb uni0304 uni0306 uni0307 uni0308 uni030A uni030B uni030F uni0311
  FClass: 3 i j
  FClass: 101 gravecomb acutecomb uni0302 tildecomb uni0304 uni0306 uni0307 uni0308 uni030A uni030B uni030F uni0311
 1 0 1
  ClsList: 1
  BClsList:
  FClsList: 2
 1
  SeqLookup: 0 's001'
EndFPST
GenTags: 1 sb's001'
LangName: 1033 "" "" "" "" "" "" "" "" "" "" "" "" "" "The use of this font is granted subject to GNU General Public License." "http://www.gnu.org/copyleft/gpl.html" "" "" "" "" "The quick brown fox jumps over the lazy dog." 
LangName: 1060 "" "" "le+AX4A-e+AQ0A-e" "" "" "" "" "" "" "" "" "" "" "Dovoljena je uporaba v skladu z licenco GNU General Public License." "http://www.gnu.org/copyleft/gpl.html" "" "" "" "" "+AWAA-erif bo za vajo spet kuhal doma+AQ0A-e +AX4A-gance." 
Encoding: UnicodeBmp
UnicodeInterp: none
DisplaySize: -36
AntiAlias: 1
FitToEm: 1
WinInfo: 4208 16 10
BeginPrivate: 8
UniqueID 7 5020908
BlueValues 31 [-23 0 524 544 729 749 686 709]
BlueScale 8 0.039625
StdHW 4 [78]
StdVW 4 [88]
StemSnapH 194 [68 73 78 83] 
systemdict /internaldict known
{1183615869 systemdict /internaldict get exec

StartChar: exclam
Encoding: 33 33 1
Width: 278
Flags: W
HStem: 0 21G<124 208> 709 20G<279 363>
Fore
363 729 m 1
 289 379 l 1
 222 168 l 1
 182 168 l 1
 205 379 l 1
 279 729 l 1
 363 729 l 1
230 103 m 1
 208 0 l 1
 124 0 l 1
 146 103 l 1
 230 103 l 1
EndSplineSet
EndChar
StartChar: quotedbl
Encoding: 34 34 2
Width: 355
Flags: W
HStem: 689 20G<202 296 361 455>
Fore
202 709 m 1
 296 709 l 1
 272 598 l 1
 217 464 l 1
 177 464 l 1
 178 598 l 1
 202 709 l 1
361 709 m 1
 455 709 l 1
 431 598 l 1
 376 464 l 1
 336 464 l 1
 337 598 l 1
 361 709 l 1
EndSplineSet
EndChar
StartChar: numbersign
Encoding: 35 35 3
Width: 556
Flags: W
HStem: -20 21G<72 148 273 349> 191 64<68 180 231 381 432 550> 439 64<157 278 330 479 530 635> 677 20G<355 431 556 632>
Fore
632 697 m 1
 555 503 l 1
 649 503 l 1
 635 439 l 1
 530 439 l 1
 457 255 l 1
 564 255 l 1
 550 191 l 1
 432 191 l 1
 349 -20 l 1
 273 -20 l 1
 356 191 l 1
 231 191 l 1
 148 -20 l 1
 72 -20 l 1
 155 191 l 1
 54 191 l 1
 68 255 l 1
 180 255 l 1
 253 439 l 1
 144 439 l 1
 157 503 l 1
 278 503 l 1
 355 697 l 1
 431 697 l 1
 355 503 l 1
 479 503 l 1
 556 697 l 1
 632 697 l 1
454 439 m 1
 330 439 l 1
 256 255 l 1
 381 255 l 1
 454 439 l 1
EndSplineSet
EndChar
StartChar: dollar
Encoding: 36 36 4
Width: 556
Flags: W
VStem: 69 83<88.5 154.5> 152 83<424.5 516.5> 477 88<162.5 289> 530 83<553 610>
Fore
311 318 m 1xe0
 210 353 152 380 152 469 c 0
 152 518 174 700 396 716 c 1
 407 770 l 1
 466 770 l 1
 455 716 l 1
 555 711 613 655 613 565 c 0
 613 549 612 539 607 519 c 1
 528 519 l 1
 529 534 l 1
 530 543 530 551 530 555 c 0xd0
 530 607 495 643 440 646 c 1
 387 397 l 1
 501 362 565 335 565 243 c 0
 565 96 464 -18 298 -23 c 1
 276 -126 l 1
 217 -126 l 1
 239 -23 l 1
 122 -5 69 43 69 134 c 0
 69 157 71 174 77 208 c 1
 156 208 l 1
 155 197 l 1
 153 178 152 159 152 150 c 0
 152 95 180 67 253 46 c 1
 311 318 l 1xe0
381 645 m 1
 258 636 235 532 235 501 c 0
 235 452 261 426 330 405 c 1
 381 645 l 1
368 309 m 1
 312 46 l 1
 417 54 477 114 477 211 c 0xe0
 477 259 449 285 368 309 c 1
EndSplineSet
EndChar
StartChar: percent
Encoding: 37 37 5
Width: 889
Flags: W
HStem: -16 66<643 738> 254 66<703 796> 346 66<231 326> 616 66<291 384> 689 20G<759 825>
VStem: 134 70<440 530.5> 413 70<498 588.5> 546 70<78 168.5> 825 70<136 226.5>
Fore
759 709 m 1
 825 709 l 1
 275 -20 l 1
 209 -20 l 1
 759 709 l 1
345 682 m 0
 423 682 483 625 483 552 c 0
 483 444 382 346 270 346 c 0
 192 346 134 402 134 478 c 0
 134 583 237 682 345 682 c 0
329 616 m 0
 265 616 204 557 204 494 c 0
 204 447 239 412 286 412 c 0
 351 412 413 472 413 534 c 0
 413 583 379 616 329 616 c 0
757 320 m 0
 835 320 895 263 895 190 c 0
 895 82 794 -16 682 -16 c 0
 604 -16 546 40 546 116 c 0
 546 221 649 320 757 320 c 0
741 254 m 0
 677 254 616 195 616 132 c 0
 616 85 651 50 698 50 c 0
 763 50 825 110 825 172 c 0
 825 221 791 254 741 254 c 0
EndSplineSet
EndChar
StartChar: ampersand
Encoding: 38 38 6
Width: 667
Flags: W
HStem: -23 77<200.5 304.5> 639 70<400.5 495.5>
VStem: 83 88<81.5 206.5> 247 83<511.5 571.5> 505 83<543.5 624.5>
Fore
83 128 m 0
 83 285 225 354 288 390 c 1
 284 401 281 409 279 413 c 2
 261 455 l 2
 252 477 247 500 247 523 c 0
 247 620 346 709 455 709 c 0
 536 709 588 662 588 587 c 0
 588 500 531 434 407 378 c 1
 505 215 l 1
 537 252 553 285 565 334 c 1
 644 334 l 1
 632 273 593 202 544 151 c 1
 634 0 l 1
 528 0 l 1
 482 78 l 1
 391 3 333 -23 253 -23 c 0
 148 -23 83 35 83 128 c 0
377 434 m 1
 469 480 505 519 505 574 c 0
 505 614 479 639 436 639 c 0
 377 639 330 592 330 533 c 0
 330 505 336 492 377 434 c 1
448 137 m 1
 329 336 l 1
 217 276 171 224 171 159 c 0
 171 94 213 54 280 54 c 0
 329 54 375 76 448 137 c 1
EndSplineSet
EndChar
StartChar: quotesingle
Encoding: 39 39 7
Width: 191
Flags: W
HStem: 689 20G<198 292>
Fore
198 709 m 1
 292 709 l 1
 268 598 l 1
 213 464 l 1
 173 464 l 1
 174 598 l 1
 198 709 l 1
EndSplineSet
EndChar
StartChar: parenleft
Encoding: 40 40 8
Width: 333
Flags: W
HStem: 709 20G<391 446>
VStem: 113 78<28 217.5>
Fore
391 729 m 1
 446 729 l 1
 278 523 191 301 191 79 c 0
 191 -23 209 -117 246 -213 c 1
 191 -213 l 1
 142 -127 113 -3 113 116 c 0
 113 319 217 547 391 729 c 1
EndSplineSet
EndChar
StartChar: parenright
Encoding: 41 41 9
Width: 333
Flags: W
HStem: 709 20G<193 248>
VStem: 248 77<323 484.5>
Fore
325 407 m 0
 325 271 280 30 48 -213 c 1
 -7 -213 l 1
 159 -10 248 215 248 431 c 0
 248 538 231 632 193 729 c 1
 248 729 l 1
 295 646 325 520 325 407 c 0
EndSplineSet
EndChar
StartChar: asterisk
Encoding: 42 42 10
Width: 389
Flags: W
HStem: 709 20G<319 381>
Fore
319 729 m 1
 381 729 l 1
 352 617 l 1
 462 655 l 1
 471 593 l 1
 358 566 l 1
 411 475 l 1
 353 438 l 1
 309 534 l 1
 228 439 l 1
 181 479 l 1
 273 567 l 1
 169 598 l 1
 199 657 l 1
 299 617 l 1
 319 729 l 1
EndSplineSet
EndChar
StartChar: plus
Encoding: 43 43 11
Width: 584
Flags: W
HStem: -11 21G<255 325> 197 72<107 314 384 576>
Fore
591 269 m 1
 576 197 l 1
 369 197 l 1
 325 -11 l 1
 255 -11 l 1
 299 197 l 1
 92 197 l 1
 107 269 l 1
 314 269 l 1
 358 473 l 1
 428 473 l 1
 384 269 l 1
 591 269 l 1
EndSplineSet
EndChar
StartChar: comma
Encoding: 44 44 12
Width: 278
Flags: W
HStem: -147 38<60 92.5> -20 20G<87 146>
Fore
109 103 m 1
 214 103 l 1
 188 -16 l 1
 171 -99 124 -147 61 -147 c 0
 55 -147 l 1
 63 -109 l 1
 111 -109 132 -82 146 0 c 1
 87 0 l 1
 109 103 l 1
EndSplineSet
KernsSLIFO: 1051 -55 3 0 1054 -47 3 0 1087 -105 3 0
EndChar
StartChar: hyphen
Encoding: 45 45 13
Width: 333
Flags: W
HStem: 240 72<112 336>
Fore
351 312 m 1
 336 240 l 1
 97 240 l 1
 112 312 l 1
 351 312 l 1
EndSplineSet
KernsSLIFO: 33 -12 3 0 52 -86 3 0 54 -51 3 0 55 -24 3 0 57 -97 3 0 126 -12 3 0 129 -12 3 0 130 -12 3 0 131 -17 3 0
EndChar
StartChar: period
Encoding: 46 46 14
Width: 278
Flags: W
HStem: 0 21G<87 191>
Fore
213 103 m 1
 191 0 l 1
 87 0 l 1
 109 103 l 1
 213 103 l 1
EndSplineSet
KernsSLIFO: 1051 -56 3 0 1054 -48 3 0 1087 -106 3 0
EndChar
StartChar: slash
Encoding: 47 47 15
Width: 278
Flags: W
HStem: -20 21G<-12 43> 709 20G<379 434>
Fore
379 729 m 1
 434 729 l 1
 43 -20 l 1
 -12 -20 l 1
 379 729 l 1
EndSplineSet
EndChar
StartChar: zero
Encoding: 48 48 16
Width: 556
Flags: W
HStem: -23 77<239.5 413> 632 77<282 474.5>
VStem: 98 88<93 229.5> 510 88<455.5 575>
Fore
98 170 m 0
 98 281 146 709 418 709 c 0
 531 709 598 636 598 514 c 0
 598 400 550 -23 276 -23 c 0
 203 -23 98 16 98 170 c 0
287 54 m 0
 465 54 510 407 510 504 c 0
 510 585 471 632 406 632 c 0
 230 632 186 278 186 181 c 0
 186 102 224 54 287 54 c 0
EndSplineSet
EndChar
StartChar: one
Encoding: 49 49 17
Width: 556
Flags: W
HStem: 0 21G<259 347> 689 20G<440 498>
Fore
367 505 m 1
 208 505 l 1
 221 568 l 1
 365 588 386 601 440 709 c 1
 498 709 l 1
 347 0 l 1
 259 0 l 1
 367 505 l 1
EndSplineSet
EndChar
StartChar: two
Encoding: 50 50 18
Width: 556
Flags: W
HStem: 0 87<34 505> 632 77<343.5 505>
VStem: 532 88<487 571.5>
Fore
428 709 m 0
 582 709 620 606 620 537 c 0
 620 437 555 354 422 287 c 2
 310 230 l 2
 219 185 164 136 147 87 c 1
 524 87 l 1
 505 0 l 1
 34 0 l 1
 78 161 124 215 297 307 c 1
 401 359 l 2
 484 401 532 461 532 525 c 0
 532 589 486 632 416 632 c 0
 271 632 244 498 235 463 c 1
 147 463 l 1
 186 632 274 709 428 709 c 0
EndSplineSet
EndChar
StartChar: three
Encoding: 51 51 19
Width: 556
Flags: W
HStem: -23 77<201.5 352.5> 327 73<306 377.5> 632 77<310 472>
VStem: 71 88<90 158> 467 88<175 277.5> 511 88<489.5 607>
Fore
555 249 m 0xf8
 555 101 441 -23 264 -23 c 0
 139 -23 71 36 71 144 c 0
 71 162 72 176 76 206 c 1
 164 206 l 1
 162 193 l 1
 160 177 159 162 159 154 c 0
 159 93 206 54 277 54 c 0
 389 54 467 128 467 236 c 0xf8
 467 293 418 327 335 327 c 0
 321 327 311 327 290 325 c 1
 306 400 l 1
 324 400 l 2
 431 400 511 434 511 545 c 0
 511 599 470 632 405 632 c 0
 270 632 246 520 237 480 c 1
 149 480 l 1
 162 529 203 709 417 709 c 0
 527 709 599 651 599 563 c 0xf4
 599 474 562 415 477 367 c 1
 533 339 555 306 555 249 c 0xf8
EndSplineSet
EndChar
StartChar: four
Encoding: 52 52 20
Width: 556
Flags: W
HStem: 0 21G<326 414> 170 78<63 379 450 556> 689 20G<499 565>
Fore
362 170 m 1
 63 170 l 1
 83 262 l 1
 499 709 l 1
 565 709 l 1
 467 248 l 1
 573 248 l 1
 556 170 l 1
 450 170 l 1
 414 0 l 1
 326 0 l 1
 362 170 l 1
379 248 m 1
 444 556 l 1
 158 248 l 1
 379 248 l 1
EndSplineSet
EndChar
StartChar: five
Encoding: 53 53 21
Width: 556
Flags: W
HStem: -23 77<233.5 339.5> 390 77<324 437.5> 622 87<259 611>
VStem: 70 88<77 174> 479 88<207 347>
Fore
271 -23 m 0
 196 -23 70 2 70 152 c 2
 70 174 l 1
 158 174 l 1
 161 94 204 54 283 54 c 0
 396 54 479 145 479 269 c 0
 479 346 433 390 353 390 c 0
 295 390 265 377 204 323 c 1
 124 323 l 1
 259 709 l 1
 629 709 l 1
 611 622 l 1
 311 622 l 1
 241 424 l 1
 290 454 333 467 381 467 c 0
 494 467 567 399 567 295 c 0
 567 224 542 149 498 93 c 0
 439 15 364 -23 271 -23 c 0
EndSplineSet
EndChar
StartChar: six
Encoding: 54 54 22
Width: 556
Flags: W
HStem: -23 77<227 397> 365 77<313 441.5> 524 21G<522 610> 632 77<370.5 488.5>
VStem: 93 88<109 229.5> 478 88<200 322.5> 523 88<528.5 599>
Fore
566 271 m 0xfc
 566 207 508 -23 286 -23 c 0
 168 -23 93 51 93 167 c 0
 93 292 140 469 198 560 c 0
 261 659 341 709 435 709 c 0
 542 709 611 647 611 551 c 0
 611 545 611 535 610 524 c 1
 522 524 l 1
 523 526 523 528 523 529 c 0xfa
 523 566 504 632 421 632 c 0
 320 632 238 527 209 358 c 1
 266 415 322 442 388 442 c 0
 495 442 566 374 566 271 c 0xfc
364 365 m 0
 262 365 181 280 181 174 c 0
 181 103 230 54 299 54 c 0
 398 54 478 144 478 256 c 0xfc
 478 321 432 365 364 365 c 0
EndSplineSet
EndChar
StartChar: seven
Encoding: 55 55 23
Width: 556
Flags: W
HStem: 0 21G<137 235> 622 87<196 671>
Fore
671 709 m 1
 654 628 l 1
 483 460 302 189 235 0 c 1
 137 0 l 1
 227 211 335 369 560 622 c 1
 177 622 l 1
 196 709 l 1
 671 709 l 1
EndSplineSet
EndChar
StartChar: eight
Encoding: 56 56 24
Width: 556
Flags: W
HStem: -23 77<218 392.5> 334 74<293.5 410.5> 632 77<363.5 494>
VStem: 74 88<94 208.5> 169 88<458 532> 472 88<177.5 268> 516 88<500.5 589>
Fore
560 239 m 0xfc
 560 180 504 -23 281 -23 c 0
 155 -23 74 43 74 145 c 0
 74 247 128 325 233 373 c 1
 221 383 l 2
 179 417 169 436 169 480 c 0
 169 535 192 590 234 632 c 0
 285 685 344 709 421 709 c 0
 567 709 604 617 604 561 c 0xfa
 604 440 509 393 477 373 c 1
 533 341 560 297 560 239 c 0xfc
364 408 m 0
 457 408 516 471 516 545 c 0
 516 599 475 632 407 632 c 0
 320 632 257 573 257 491 c 0
 257 439 297 408 364 408 c 0
344 334 m 0
 243 334 162 257 162 160 c 0
 162 97 213 54 287 54 c 0
 392 54 472 129 472 226 c 0xfc
 472 292 422 334 344 334 c 0
EndSplineSet
EndChar
StartChar: nine
Encoding: 57 57 25
Width: 556
Flags: W
HStem: -23 77<205 403> 244 77<249 377.5> 632 77<293 482>
VStem: 83 88<87 162> 126 88<364 489.5> 511 88<461 559>
Fore
404 709 m 0xec
 560 709 599 593 599 525 c 0
 599 405 548 -23 258 -23 c 0
 152 -23 83 39 83 135 c 0
 83 141 83 151 84 162 c 1
 171 162 l 1xf4
 171 93 206 54 270 54 c 0
 371 54 441 144 481 324 c 1
 452 300 396 244 303 244 c 0
 195 244 126 311 126 417 c 0
 126 488 182 709 404 709 c 0xec
392 632 m 0
 295 632 214 543 214 436 c 0xec
 214 364 256 321 327 321 c 0
 428 321 511 408 511 514 c 0
 511 581 460 632 392 632 c 0
EndSplineSet
EndChar
StartChar: colon
Encoding: 58 58 26
Width: 278
Flags: W
HStem: 0 21G<110 214> 504 20G<222 326>
Fore
236 103 m 1
 214 0 l 1
 110 0 l 1
 132 103 l 1
 236 103 l 1
326 524 m 1
 304 421 l 1
 200 421 l 1
 222 524 l 1
 326 524 l 1
EndSplineSet
EndChar
StartChar: semicolon
Encoding: 59 59 27
Width: 278
Flags: W
HStem: -147 38<83 115.5> -20 20G<110 169> 504 20G<221 325>
Fore
325 524 m 1
 303 421 l 1
 199 421 l 1
 221 524 l 1
 325 524 l 1
132 103 m 1
 237 103 l 1
 211 -16 l 1
 194 -99 147 -147 84 -147 c 0
 78 -147 l 1
 86 -109 l 1
 134 -109 155 -82 169 0 c 1
 110 0 l 1
 132 103 l 1
EndSplineSet
EndChar
StartChar: less
Encoding: 60 60 28
Width: 584
Flags: W
Fore
87 198 m 1
 102 267 l 1
 635 474 l 1
 618 395 l 1
 196 231 l 1
 549 68 l 1
 532 -9 l 1
 87 198 l 1
EndSplineSet
EndChar
StartChar: equal
Encoding: 61 61 29
Width: 584
Flags: W
HStem: 111 72<89 558> 283 72<125 594>
Fore
609 355 m 1
 594 283 l 1
 111 283 l 1
 125 355 l 1
 609 355 l 1
572 183 m 1
 558 111 l 1
 74 111 l 1
 89 183 l 1
 572 183 l 1
EndSplineSet
EndChar
StartChar: greater
Encoding: 62 62 30
Width: 584
Flags: W
Fore
596 267 m 1
 581 198 l 1
 48 -9 l 1
 65 70 l 1
 487 234 l 1
 134 397 l 1
 151 474 l 1
 596 267 l 1
EndSplineSet
EndChar
StartChar: question
Encoding: 63 63 31
Width: 556
Flags: W
HStem: 0 21G<239 329> 664 77<377 521.5>
VStem: 534 96<496.5 618.5>
Fore
449 741 m 0
 594 741 630 647 630 590 c 0
 630 403 420 385 381 246 c 2
 371 199 l 1
 281 199 l 1
 293 254 l 2
 327 403 534 431 534 578 c 0
 534 629 490 664 427 664 c 0
 339 664 291 616 269 507 c 1
 184 507 l 1
 215 661 305 741 449 741 c 0
351 103 m 1
 329 0 l 1
 239 0 l 1
 261 103 l 1
 351 103 l 1
EndSplineSet
EndChar
StartChar: at
Encoding: 64 64 32
Width: 1015
Flags: W
HStem: -142 77<345.5 505.5> 57 70<656 775.5> 455 69<551.5 655.5> 664 77<491 783.5>
VStem: 80 88<88 313.5> 310 92<159 277> 680 2<153.5 411> 953 83<283 522.5>
Fore
597 134 m 1
 536 91 513 62 445 62 c 0
 364 62 310 117 310 201 c 0
 310 353 477 524 626 524 c 0
 685 524 723 494 735 435 c 1
 771 501 l 1
 853 501 l 1
 704 221 l 2
 687 189 680 172 680 163 c 0
 680 144 699 127 721 127 c 0
 830 127 953 280 953 414 c 0
 953 558 829 664 660 664 c 0
 413 664 168 431 168 196 c 0
 168 40 292 -65 475 -65 c 0
 536 -65 591 -56 679 -33 c 1
 692 -100 l 1
 618 -127 528 -142 447 -142 c 0
 244 -142 80 -6 80 182 c 0
 80 409 301 741 681 741 c 0
 886 741 1036 611 1036 434 c 0
 1036 132 776 57 696 57 c 0
 616 57 597 93 597 120 c 2
 597 134 l 1
478 124 m 0
 597 124 682 331 682 390 c 0
 682 432 658 455 614 455 c 0
 503 455 402 305 402 210 c 0
 402 160 434 124 478 124 c 0
EndSplineSet
EndChar
StartChar: A
Encoding: 65 65 33
Width: 667
Flags: W
HStem: 0 21G<17 116 551 653> 219 78<239 524> 709 20G<432 552>
Fore
524 219 m 1
 239 219 l 1
 116 0 l 1
 17 0 l 1
 432 729 l 1
 552 729 l 1
 653 0 l 1
 551 0 l 1
 524 219 l 1
514 297 m 1
 474 630 l 1
 283 297 l 1
 514 297 l 1
EndSplineSet
KernsSLIFO: 12 -4 0 0 13 -8 0 0 14 -2 0 0 35 -41 0 0 39 -41 0 0 47 -37 0 0 49 -38 0 0 52 -103 0 0 53 -42 0 0 54 -81 0 0 55 -57 0 0 57 -104 0 0 65 -16 0 0 66 -5 0 0 67 -16 0 0 68 -14 0 0 69 -22 0 0 71 -17 0 0 79 -19 0 0 81 -15 0 0 84 -22 0 0 85 -18 0 0 86 -40 0 0 87 -29 0 0 89 -44 0 0 105 -51 0 0 132 -41 0 0 147 -37 0 0 150 -42 0 0 151 -42 0 0 152 -42 0 0 153 -42 0 0 164 -16 0 0 1051 -68 0 0 1054 -60 0 0 1061 -47 0 0
EndChar
StartChar: B
Encoding: 66 66 34
Width: 667
Flags: W
HStem: 0 82<79 489> 333 82<244 511> 647 82<234 602.5>
VStem: 576 96<190.5 288.5> 615 96<529 615>
Fore
672 258 m 0xf0
 672 123 569 0 409 0 c 2
 79 0 l 1
 234 729 l 1
 530 729 l 2
 675 729 711 646 711 584 c 0xe8
 711 495 662 423 575 384 c 1
 645 354 672 319 672 258 c 0xf0
441 415 m 2
 581 415 615 497 615 561 c 0
 615 620 576 647 491 647 c 2
 311 647 l 1
 261 415 l 1
 441 415 l 2
417 82 m 2
 515 82 576 152 576 242 c 0xf0
 576 301 539 333 470 333 c 2
 244 333 l 1
 190 82 l 1
 417 82 l 2
EndSplineSet
KernsSLIFO: 33 -28 0 0 47 -14 0 0 54 -49 0 0 55 -27 0 0 57 -56 0 0 126 -28 0 0 127 -28 0 0 128 -28 0 0 129 -28 0 0 130 -28 0 0 131 -29 0 0 143 -14 0 0 144 -14 0 0 145 -14 0 0 147 -14 0 0 149 -2 0 0 271 -11 0 0
EndChar
StartChar: C
Encoding: 67 67 35
Width: 722
Flags: W
HStem: -23 81<264 458> 660 81<392 579.5>
VStem: 112 96<189 307>
Fore
367 -23 m 0
 161 -23 112 136 112 242 c 0
 112 367 161 505 240 600 c 0
 318 694 415 741 532 741 c 0
 627 741 760 703 770 503 c 1
 674 503 l 1
 666 611 616 660 515 660 c 0
 269 660 208 354 208 260 c 0
 208 139 277 58 381 58 c 0
 535 58 593 165 637 266 c 1
 735 266 l 1
 640 40 516 -23 367 -23 c 0
EndSplineSet
KernsSLIFO: 33 -43 0 0 40 -22 0 0 43 -20 0 0 47 -18 0 0 126 -43 0 0 129 -43 0 0 130 -43 0 0 131 -44 0 0 144 -18 0 0 147 -18 0 0
EndChar
StartChar: D
Encoding: 68 68 36
Width: 722
Flags: W
HStem: 0 82<89 425> 647 82<244 620.5>
VStem: 663 96<425.5 532>
Fore
526 729 m 2
 715 729 759 574 759 488 c 0
 759 363 711 217 643 134 c 0
 570 45 479 0 371 0 c 2
 89 0 l 1
 244 729 l 1
 526 729 l 2
200 82 m 1
 372 82 l 2
 463 82 539 125 591 205 c 0
 631 268 663 388 663 480 c 0
 663 584 599 647 492 647 c 2
 321 647 l 1
 200 82 l 1
EndSplineSet
KernsSLIFO: 33 -50 0 0 42 -13 0 0 52 -56 0 0 54 -54 0 0 55 -31 0 0 56 -58 0 0 57 -74 0 0 125 -50 0 0 126 -50 0 0 127 -50 0 0 128 -50 0 0 129 -50 0 0 130 -50 0 0
EndChar
StartChar: E
Encoding: 69 69 37
Width: 667
Flags: W
HStem: 0 82<90 613> 332 82<255 650> 647 82<245 734>
Fore
255 332 m 1
 201 82 l 1
 630 82 l 1
 613 0 l 1
 90 0 l 1
 245 729 l 1
 751 729 l 1
 734 647 l 1
 322 647 l 1
 272 414 l 1
 668 414 l 1
 650 332 l 1
 255 332 l 1
EndSplineSet
EndChar
StartChar: F
Encoding: 70 70 38
Width: 611
Flags: W
HStem: 0 21G<90 184> 332 82<255 602> 647 82<245 717>
Fore
255 332 m 1
 184 0 l 1
 90 0 l 1
 245 729 l 1
 734 729 l 1
 717 647 l 1
 322 647 l 1
 272 414 l 1
 619 414 l 1
 602 332 l 1
 255 332 l 1
EndSplineSet
KernsSLIFO: 12 -113 0 0 13 -20 0 0 14 -113 0 0 33 -78 0 0 42 -59 0 0 47 -30 0 0 65 -45 0 0 69 -33 0 0 73 -19 0 0 74 -19 0 0 79 -30 0 0 82 -44 0 0 85 -42 0 0 125 -78 0 0 126 -78 0 0 127 -78 0 0 128 -78 0 0 129 -78 0 0 130 -78 0 0 147 -30 0 0 158 -45 0 0 161 -45 0 0 162 -45 0 0 163 -41 0 0 166 -33 0 0 176 -30 0 0 179 -30 0 0 181 -30 0 0 272 -33 0 0
EndChar
StartChar: G
Encoding: 71 71 39
Width: 778
Flags: W
HStem: -23 81<324 469> 303 82<489 793> 660 81<398 633.5>
VStem: 109 96<147.5 326> 718 91<508 591.5>
Fore
205 277 m 0
 205 91 327 58 411 58 c 0
 527 58 654 130 687 277 c 2
 693 303 l 1
 471 303 l 1
 489 385 l 1
 793 385 l 1
 710 -4 l 1
 651 -4 l 1
 647 86 l 1
 570 22 497 -23 378 -23 c 0
 270 -23 109 34 109 261 c 0
 109 391 167 527 263 623 c 0
 341 701 439 741 555 741 c 0
 712 741 809 658 809 525 c 2
 809 508 l 1
 718 508 l 1
 715 633 608 660 537 660 c 0
 259 660 205 357 205 277 c 0
EndSplineSet
KernsSLIFO: 33 -14 0 0 52 -53 0 0 54 -53 0 0 55 -31 0 0 57 -72 0 0 125 -14 0 0 126 -14 0 0 127 -14 0 0 128 -14 0 0 129 -14 0 0 130 -14 0 0 131 -11 0 0
EndChar
StartChar: H
Encoding: 72 72 40
Width: 722
Flags: W
HStem: 0 21G<83 177 550 644> 332 82<248 638> 709 20G<238 332 705 799>
Fore
621 332 m 1
 248 332 l 1
 177 0 l 1
 83 0 l 1
 238 729 l 1
 332 729 l 1
 265 414 l 1
 638 414 l 1
 705 729 l 1
 799 729 l 1
 644 0 l 1
 550 0 l 1
 621 332 l 1
EndSplineSet
EndChar
StartChar: I
Encoding: 73 73 41
Width: 278
Flags: W
HStem: 0 21G<100 194> 709 20G<255 349>
Fore
349 729 m 1
 194 0 l 1
 100 0 l 1
 255 729 l 1
 349 729 l 1
EndSplineSet
EndChar
StartChar: J
Encoding: 74 74 42
Width: 500
Flags: W
HStem: -23 81<146 291> 709 20G<487 581>
VStem: 47 96<97 139.5>
Fore
213 -23 m 0
 79 -23 47 72 47 122 c 0
 47 136 49 153 53 170 c 0
 67 234 l 1
 161 234 l 1
 147 168 l 1
 144 156 143 145 143 134 c 0
 143 89 179 58 233 58 c 0
 349 58 371 183 378 216 c 2
 487 729 l 1
 581 729 l 1
 465 182 l 2
 437 51 345 -23 213 -23 c 0
EndSplineSet
KernsSLIFO: 33 -39 0 0 129 -39 0 0 130 -39 0 0 131 -39 0 0
EndChar
StartChar: K
Encoding: 75 75 43
Width: 667
Flags: W
HStem: 0 21G<79 173 548 658> 709 20G<234 328 693 813>
Fore
226 249 m 1
 173 0 l 1
 79 0 l 1
 234 729 l 1
 328 729 l 1
 249 356 l 1
 693 729 l 1
 813 729 l 1
 452 431 l 1
 658 0 l 1
 548 0 l 1
 380 376 l 1
 226 249 l 1
EndSplineSet
KernsSLIFO: 13 -53 0 0 35 -56 0 0 39 -57 0 0 47 -53 0 0 51 -48 0 0 52 14 0 0 65 -23 0 0 69 -46 0 0 79 -42 0 0 85 -32 0 0 89 -76 0 0 144 -53 0 0 147 -53 0 0 161 -23 0 0 162 -23 0 0 163 -20 0 0 176 -42 0 0 179 -42 0 0 185 -32 0 0 271 -49 0 0
EndChar
StartChar: L
Encoding: 76 76 44
Width: 556
Flags: W
HStem: 0 82<80 534> 709 20G<235 329>
Fore
329 729 m 1
 191 82 l 1
 551 82 l 1
 534 0 l 1
 80 0 l 1
 235 729 l 1
 329 729 l 1
EndSplineSet
KernsSLIFO: 13 -140 0 0 33 8 0 0 35 -52 0 0 39 -53 0 0 47 -51 0 0 51 -28 0 0 52 -112 0 0 53 -46 0 0 54 -115 0 0 55 -77 0 0 57 -128 0 0 85 -17 0 0 89 -68 0 0 126 8 0 0 129 8 0 0 130 8 0 0 131 11 0 0 132 -51 0 0 143 -51 0 0 144 -51 0 0 145 -51 0 0 146 -51 0 0 147 -51 0 0 153 -46 0 0 185 -17 0 0 1051 -153 0 0 1054 -145 0 0
EndChar
StartChar: M
Encoding: 77 77 45
Width: 833
Flags: W
HStem: 0 21G<75 164 370 467 672 761> 709 20G<230 359 785 916>
Fore
467 0 m 1
 370 0 l 1
 293 605 l 1
 164 0 l 1
 75 0 l 1
 230 729 l 1
 359 729 l 1
 439 102 l 1
 785 729 l 1
 916 729 l 1
 761 0 l 1
 672 0 l 1
 801 605 l 1
 467 0 l 1
EndSplineSet
EndChar
StartChar: N
Encoding: 78 78 46
Width: 722
Flags: W
HStem: 0 21G<76 165 540 646> 709 20G<231 335 712 801>
Fore
801 729 m 1
 646 0 l 1
 540 0 l 1
 291 591 l 1
 165 0 l 1
 76 0 l 1
 231 729 l 1
 335 729 l 1
 585 131 l 1
 712 729 l 1
 801 729 l 1
EndSplineSet
KernsSLIFO: 12 -15 0 0 14 -15 0 0 33 -19 0 0 35 -15 0 0 39 -14 0 0 47 -11 0 0 65 -17 0 0 69 -11 0 0 79 -8 0 0 85 -8 0 0 126 -19 0 0 129 -19 0 0 130 -19 0 0 131 -16 0 0 132 -14 0 0 144 -11 0 0 147 -11 0 0 158 -17 0 0 161 -17 0 0 162 -17 0 0 163 -13 0 0 166 -11 0 0 176 -8 0 0 179 -8 0 0 181 -4 0 0 185 -9 0 0
EndChar
StartChar: O
Encoding: 79 79 47
Width: 778
Flags: W
HStem: -23 81<329 575.5> 660 81<478 653.5>
VStem: 104 96<148.5 326.5> 732 96<407 531.5>
Fore
391 -23 m 0
 267 -23 104 34 104 263 c 0
 104 390 157 522 246 614 c 0
 327 699 424 741 537 741 c 0
 770 741 828 582 828 464 c 0
 828 357 760 -23 391 -23 c 0
732 446 m 0
 732 617 612 660 525 660 c 0
 431 660 342 613 284 533 c 0
 231 460 200 363 200 271 c 0
 200 101 322 58 404 58 c 0
 681 58 732 368 732 446 c 0
EndSplineSet
KernsSLIFO: 33 -43 0 0 52 -54 0 0 54 -48 0 0 55 -25 0 0 56 -52 0 0 57 -71 0 0 126 -43 0 0 129 -43 0 0 130 -43 0 0 131 -47 0 0
EndChar
StartChar: P
Encoding: 80 80 48
Width: 667
Flags: W
HStem: 0 21G<91 185> 309 82<251 556> 647 82<246 609>
VStem: 637 96<500 621>
Fore
733 568 m 0
 733 432 633 309 479 309 c 2
 251 309 l 1
 185 0 l 1
 91 0 l 1
 246 729 l 1
 548 729 l 2
 670 729 733 674 733 568 c 0
462 391 m 2
 572 391 637 464 637 550 c 0
 637 613 595 647 517 647 c 2
 323 647 l 1
 268 391 l 1
 462 391 l 2
EndSplineSet
KernsSLIFO: 12 -138 0 0 13 -45 0 0 14 -138 0 0 33 -86 0 0 42 -85 0 0 65 -39 0 0 69 -38 0 0 79 -34 0 0 126 -86 0 0 129 -86 0 0 130 -86 0 0 131 -93 0 0 158 -39 0 0 161 -39 0 0 162 -39 0 0 163 -35 0 0 166 -38 0 0 176 -34 0 0 179 -34 0 0 181 -35 0 0 272 -38 0 0
EndChar
StartChar: Q
Encoding: 81 81 49
Width: 778
Flags: W
HStem: -23 81<300 429.5> 660 81<478 600.5>
VStem: 104 96<174 340.5> 732 96<384 570>
Fore
537 741 m 0
 664 741 828 684 828 456 c 0
 828 312 765 175 655 76 c 1
 733 -1 l 1
 673 -59 l 1
 586 28 l 1
 513 -11 467 -23 390 -23 c 0
 210 -23 104 84 104 264 c 0
 104 417 182 575 301 664 c 0
 370 715 448 741 537 741 c 0
732 446 m 0
 732 617 612 660 525 660 c 0
 431 660 342 613 285 533 c 0
 232 461 200 363 200 272 c 0
 200 138 278 58 409 58 c 0
 450 58 479 65 528 87 c 1
 466 149 l 1
 524 205 l 1
 598 132 l 1
 685 216 732 327 732 446 c 0
EndSplineSet
EndChar
StartChar: R
Encoding: 82 82 50
Width: 722
Flags: W
HStem: 0 21G<93 187 566 679> 314 82<254 571.5> 647 82<248 648>
VStem: 594 96<207 286> 674 96<505 628>
Fore
562 47 m 0xf0
 562 119 594 175 594 239 c 0xf0
 594 288 558 314 493 314 c 2
 254 314 l 1
 187 0 l 1
 93 0 l 1
 248 729 l 1
 584 729 l 2
 712 729 770 681 770 575 c 0xe8
 770 435 670 382 630 360 c 1
 677 329 690 308 690 264 c 0
 690 222 663 112 663 76 c 0
 663 54 671 35 684 23 c 1
 679 0 l 1
 566 0 l 1
 563 21 562 32 562 47 c 0xf0
674 558 m 0xe8
 674 633 623 647 555 647 c 2
 325 647 l 1
 271 396 l 1
 502 396 l 2
 641 396 674 494 674 558 c 0xe8
EndSplineSet
KernsSLIFO: 13 -4 0 0 35 -21 0 0 39 -21 0 0 47 -17 0 0 52 -33 0 0 53 -21 0 0 54 -49 0 0 55 -27 0 0 57 -54 0 0 65 -21 0 0 69 -16 0 0 79 -13 0 0 85 -13 0 0 89 -16 0 0 132 -21 0 0 144 -17 0 0 147 -17 0 0 153 -21 0 0 158 -21 0 0 161 -21 0 0 162 -21 0 0 163 -17 0 0 166 -16 0 0 176 -13 0 0 179 -13 0 0 183 -14 0 0 185 -14 0 0 271 -14 0 0 272 -16 0 0
EndChar
StartChar: S
Encoding: 83 83 51
Width: 667
Flags: W
HStem: -23 81<254.5 474> 660 81<415 578.5>
VStem: 89 92<109 197.5> 178 96<460.5 561.5> 573 96<168.5 262> 622 92<546.5 604.5>
Fore
488 741 m 0xd8
 669 741 714 638 714 571 c 0
 714 556 712 543 706 515 c 1
 618 515 l 1
 621 535 622 542 622 551 c 0
 622 633 558 660 470 660 c 0
 360 660 274 605 274 518 c 0xd4
 274 474 298 454 375 432 c 2
 547 383 l 2
 638 358 669 287 669 237 c 0
 669 185 618 -23 330 -23 c 0
 179 -23 89 49 89 169 c 0
 89 190 91 206 98 232 c 1
 185 232 l 1
 182 213 181 204 181 191 c 0xe8
 181 100 233 58 346 58 c 0
 489 58 573 128 573 209 c 0
 573 257 540 286 460 309 c 2
 289 357 l 2
 222 376 178 429 178 492 c 0
 178 543 209 614 250 656 c 0
 304 712 385 741 488 741 c 0xd8
EndSplineSet
KernsSLIFO: 33 -31 0 0 52 -38 0 0 54 -52 0 0 55 -31 0 0 57 -58 0 0 84 -11 0 0 126 -31 0 0 129 -31 0 0 130 -31 0 0 131 -31 0 0
EndChar
StartChar: T
Encoding: 84 84 52
Width: 611
Flags: W
HStem: 0 21G<261 355> 647 82<175 748>
Fore
493 647 m 1
 355 0 l 1
 261 0 l 1
 399 647 l 1
 158 647 l 1
 175 729 l 1
 748 729 l 1
 731 647 l 1
 493 647 l 1
EndSplineSet
KernsSLIFO: 12 -105 0 0 13 -82 0 0 14 -105 0 0 26 -152 0 0 27 -140 0 0 33 -104 0 0 35 -53 0 0 39 -55 0 0 42 -108 0 0 47 -50 0 0 51 -32 0 0 54 2 0 0 55 7 0 0 57 10 0 0 65 -107 0 0 67 -96 0 0 69 -102 0 0 71 -94 0 0 73 -12 0 0 74 -12 0 0 79 -99 0 0 82 -98 0 0 83 -98 0 0 85 -98 0 0 86 -106 0 0 87 -103 0 0 89 -110 0 0 105 -126 0 0 125 -104 0 0 126 -104 0 0 127 -104 0 0 128 -104 0 0 129 -104 0 0 130 -104 0 0 131 -106 0 0 143 -50 0 0 144 -50 0 0 145 -50 0 0 146 -50 0 0 147 -50 0 0 149 -42 0 0 163 -104 0 0 181 -94 0 0 271 -44 0 0 1061 -123 0 0
EndChar
StartChar: U
Encoding: 85 85 53
Width: 722
Flags: W
HStem: -23 81<289.5 447> 709 20G<240 334 706 800>
VStem: 124 96<104 180>
Fore
363 -23 m 0
 216 -23 124 53 124 155 c 0
 124 170 131 218 138 251 c 2
 240 729 l 1
 334 729 l 1
 225 217 l 1
 222 201 220 187 220 173 c 0
 220 104 285 58 381 58 c 0
 494 58 576 118 597 217 c 2
 706 729 l 1
 800 729 l 1
 691 217 l 2
 660 71 531 -23 363 -23 c 0
EndSplineSet
KernsSLIFO: 12 -35 0 0 14 -32 0 0 33 -45 0 0 77 -17 0 0 78 -16 0 0 80 -8 0 0 82 -16 0 0 126 -45 0 0 127 -45 0 0 128 -45 0 0 129 -45 0 0 130 -45 0 0 131 -48 0 0
EndChar
StartChar: V
Encoding: 86 86 54
Width: 667
Flags: W
HStem: 0 21G<292 392> 709 20G<185 282 701 800>
Fore
392 0 m 1
 292 0 l 1
 185 729 l 1
 282 729 l 1
 365 112 l 1
 701 729 l 1
 800 729 l 1
 392 0 l 1
EndSplineSet
KernsSLIFO: 12 -94 0 0 13 -44 0 0 14 -94 0 0 26 -76 0 0 27 -75 0 0 33 -77 0 0 35 -50 0 0 39 -50 0 0 47 -46 0 0 51 -44 0 0 52 7 0 0 65 -71 0 0 69 -64 0 0 71 -57 0 0 73 -14 0 0 79 -61 0 0 82 -51 0 0 85 -52 0 0 89 -28 0 0 105 -88 0 0 125 -77 0 0 126 -77 0 0 127 -77 0 0 128 -77 0 0 129 -77 0 0 130 -77 0 0 131 -84 0 0 143 -46 0 0 144 -46 0 0 145 -46 0 0 146 -46 0 0 147 -46 0 0 149 -34 0 0 163 -66 0 0 181 -57 0 0 1061 -84 0 0
EndChar
StartChar: W
Encoding: 87 87 55
Width: 944
Flags: W
HStem: 0 21G<209 311 642 744> 709 20G<177 277 580 676 980 1084>
Fore
744 0 m 1
 642 0 l 1
 601 592 l 1
 311 0 l 1
 209 0 l 1
 177 729 l 1
 277 729 l 1
 292 137 l 1
 580 729 l 1
 676 729 l 1
 717 137 l 1
 980 729 l 1
 1084 729 l 1
 744 0 l 1
EndSplineSet
KernsSLIFO: 12 -62 0 0 13 -19 0 0 14 -62 0 0 26 -62 0 0 27 -62 0 0 33 -56 0 0 35 -30 0 0 39 -30 0 0 47 -26 0 0 51 -31 0 0 52 11 0 0 65 -46 0 0 69 -39 0 0 71 -32 0 0 73 -10 0 0 79 -36 0 0 82 -36 0 0 85 -36 0 0 89 -15 0 0 105 -63 0 0 125 -56 0 0 126 -56 0 0 127 -56 0 0 128 -56 0 0 129 -56 0 0 130 -56 0 0 131 -62 0 0 143 -26 0 0 144 -26 0 0 145 -26 0 0 146 -26 0 0 147 -26 0 0 149 -14 0 0 163 -42 0 0 181 -32 0 0 1061 -60 0 0
EndChar
StartChar: X
Encoding: 88 88 56
Width: 667
Flags: W
HStem: 0 21G<22 137 535 650> 709 20G<194 307 680 794>
Fore
471 374 m 1
 650 0 l 1
 535 0 l 1
 401 304 l 1
 137 0 l 1
 22 0 l 1
 361 374 l 1
 194 729 l 1
 307 729 l 1
 432 444 l 1
 680 729 l 1
 794 729 l 1
 471 374 l 1
EndSplineSet
KernsSLIFO: 13 -57 0 0 35 -53 0 0 47 -50 0 0 49 -51 0 0 65 -27 0 0 69 -51 0 0 79 -46 0 0 85 -36 0 0 89 -67 0 0 147 -50 0 0
EndChar
StartChar: Y
Encoding: 89 89 57
Width: 667
Flags: W
HStem: 0 21G<293 387> 709 20G<168 280 705 816>
Fore
448 286 m 1
 387 0 l 1
 293 0 l 1
 354 286 l 1
 168 729 l 1
 280 729 l 1
 416 372 l 1
 705 729 l 1
 816 729 l 1
 448 286 l 1
EndSplineSet
KernsSLIFO: 12 -117 0 0 13 -89 0 0 14 -117 0 0 26 -97 0 0 27 -97 0 0 33 -102 0 0 35 -68 0 0 39 -69 0 0 47 -64 0 0 51 -49 0 0 52 15 0 0 65 -100 0 0 69 -97 0 0 71 -89 0 0 73 -6 0 0 79 -93 0 0 80 -63 0 0 85 -73 0 0 86 -48 0 0 105 -128 0 0 125 -102 0 0 126 -102 0 0 127 -102 0 0 128 -102 0 0 129 -102 0 0 130 -102 0 0 131 -108 0 0 143 -64 0 0 144 -64 0 0 145 -64 0 0 146 -64 0 0 147 -64 0 0 149 -55 0 0 163 -95 0 0 181 -89 0 0 1061 -124 0 0
EndChar
StartChar: Z
Encoding: 90 90 58
Width: 611
Flags: W
HStem: 0 82<28 584> 647 82<212 737>
Fore
737 729 m 1
 719 645 l 1
 163 82 l 1
 601 82 l 1
 584 0 l 1
 28 0 l 1
 46 84 l 1
 601 647 l 1
 195 647 l 1
 212 729 l 1
 737 729 l 1
EndSplineSet
KernsSLIFO: 86 -44 0 0 89 -44 0 0
EndChar
StartChar: bracketleft
Encoding: 91 91 59
Width: 278
Flags: W
HStem: -213 72<118 205> 657 72<219 390>
Fore
405 729 m 1
 390 657 l 1
 288 657 l 1
 118 -141 l 1
 220 -141 l 1
 205 -213 l 1
 19 -213 l 1
 219 729 l 1
 405 729 l 1
EndSplineSet
EndChar
StartChar: backslash
Encoding: 92 92 60
Width: 278
Flags: W
HStem: -20 21G<225 280> 709 20G<147 202>
Fore
147 729 m 1
 202 729 l 1
 280 -20 l 1
 225 -20 l 1
 147 729 l 1
EndSplineSet
EndChar
StartChar: bracketright
Encoding: 93 93 61
Width: 278
Flags: W
HStem: -213 72<-8 164> 657 72<177 265>
Fore
-23 -213 m 1
 -8 -141 l 1
 95 -141 l 1
 265 657 l 1
 162 657 l 1
 177 729 l 1
 364 729 l 1
 164 -213 l 1
 -23 -213 l 1
EndSplineSet
EndChar
StartChar: asciicircum
Encoding: 94 94 62
Width: 469
Flags: W
HStem: 689 20G<349 422>
Fore
349 709 m 1
 422 709 l 1
 496 329 l 1
 427 329 l 1
 369 628 l 1
 187 329 l 1
 115 329 l 1
 349 709 l 1
EndSplineSet
EndChar
StartChar: underscore
Encoding: 95 95 63
Width: 556
Flags: W
HStem: -176 50<-48 540>
Fore
551 -126 m 1
 540 -176 l 1
 -59 -176 l 1
 -48 -126 l 1
 551 -126 l 1
EndSplineSet
EndChar
StartChar: grave
Encoding: 96 96 64
Width: 333
Flags: W
HStem: 720 20G<179 285>
Fore
285 740 m 1
 357 592 l 1
 304 592 l 1
 179 740 l 1
 285 740 l 1
EndSplineSet
EndChar
StartChar: a
Encoding: 97 97 65
Width: 556
Flags: W
HStem: -23 72<164 286 462 537> 462 77<316.5 446.5>
VStem: 65 88<65 179.5> 410 87<54 80> 478 90<396 460>
Fore
372 462 m 0xe8
 261 462 241 388 235 369 c 1
 151 369 l 1
 170 480 255 539 394 539 c 0
 499 539 568 494 568 426 c 0xe8
 568 416 568 416 562 389 c 0
 498 88 l 1
 497 85 497 82 497 78 c 0
 497 58 509 49 535 49 c 0
 539 49 543 49 552 51 c 1
 539 -14 l 1
 516 -18 509 -23 486 -23 c 0
 438 -23 410 2 410 43 c 2
 410 54 l 1xf0
 384 32 330 -23 209 -23 c 0
 119 -23 65 25 65 105 c 0
 65 163 95 216 147 249 c 0
 283 335 451 259 473 361 c 2
 476 379 l 1
 477 387 478 394 478 398 c 0
 478 435 432 462 372 462 c 0xe8
451 258 m 1
 346 222 153 244 153 115 c 0
 153 73 185 49 242 49 c 0
 330 49 418 102 431 164 c 2
 451 258 l 1
EndSplineSet
KernsSLIFO: 74 -10 0 0 86 -26 0 0 87 -16 0 0 89 -33 0 0 1051 -23 0 0
EndChar
StartChar: b
Encoding: 98 98 66
Width: 556
Flags: W
HStem: -23 77<249.5 381> 462 77<353 461.5> 709 20G<209 293>
VStem: 500 88<291.5 399>
Fore
294 -23 m 0
 205 -23 167 27 146 78 c 1
 129 0 l 1
 54 0 l 1
 209 729 l 1
 293 729 l 1
 235 454 l 1
 259 480 305 539 411 539 c 0
 512 539 588 455 588 343 c 0
 588 240 544 126 477 55 c 0
 432 8 361 -23 294 -23 c 0
296 54 m 0
 466 54 500 268 500 324 c 0
 500 410 456 462 383 462 c 0
 323 462 270 427 231 361 c 0
 203 313 185 245 185 183 c 0
 185 104 228 54 296 54 c 0
EndSplineSet
KernsSLIFO: 86 -21 0 0 87 -10 0 0 89 -28 0 0
EndChar
StartChar: c
Encoding: 99 99 67
Width: 500
Flags: W
HStem: -23 77<188 362> 462 77<281 434>
VStem: 76 88<134.5 274> 468 86<367 431>
Fore
381 539 m 0
 487 539 554 470 554 392 c 0
 554 389 553 378 552 363 c 2
 551 348 l 1
 467 348 l 1
 468 357 468 364 468 370 c 0
 468 427 429 462 366 462 c 0
 196 462 164 238 164 181 c 0
 164 103 208 54 277 54 c 0
 349 54 404 98 434 180 c 1
 518 180 l 1
 503 129 461 -23 263 -23 c 0
 113 -23 76 99 76 170 c 0
 76 378 197 539 381 539 c 0
EndSplineSet
KernsSLIFO: 72 -7 0 0 75 -1 0 0
EndChar
StartChar: d
Encoding: 100 100 68
Width: 556
Flags: W
HStem: -23 77<192 356> 462 77<274 398.5> 709 20G<566 650>
VStem: 73 88<111.5 275.5>
Fore
430 76 m 1
 398 12 311 -23 244 -23 c 0
 140 -23 73 53 73 170 c 0
 73 381 197 539 363 539 c 0
 434 539 474 513 506 448 c 1
 566 729 l 1
 650 729 l 1
 495 0 l 1
 414 0 l 1
 430 76 l 1
278 54 m 0
 434 54 473 263 473 327 c 0
 473 412 429 462 355 462 c 0
 193 462 161 245 161 190 c 0
 161 104 204 54 278 54 c 0
EndSplineSet
EndChar
StartChar: e
Encoding: 101 101 69
Width: 556
Flags: W
HStem: -23 77<221 342> 234 72<177 563> 462 77<259.5 443>
VStem: 84 88<119.5 209.5> 492 88<334 416>
Fore
84 173 m 0
 84 246 130 539 389 539 c 0
 497 539 580 464 580 368 c 0
 580 341 575 299 566 251 c 2
 563 234 l 1
 177 234 l 1
 173 219 172 209 172 188 c 0
 172 103 217 54 296 54 c 0
 363 54 416 90 452 159 c 1
 536 159 l 1
 505 51 402 -23 282 -23 c 0
 160 -23 84 66 84 173 c 0
195 306 m 1
 489 306 l 1
 491 322 492 329 492 339 c 0
 492 414 447 462 376 462 c 0
 295 462 221 398 195 306 c 1
EndSplineSet
KernsSLIFO: 84 -16 0 0 86 -26 0 0 87 -16 0 0 88 -35 0 0 89 -33 0 0 1051 -20 0 0
EndChar
StartChar: f
Encoding: 102 102 70
Width: 278
Flags: W
HStem: 0 21G<89 173> 457 67<130 200 284 356> 660 72<329.5 376>
Fore
370 524 m 1
 356 457 l 1
 270 457 l 1
 173 0 l 1
 89 0 l 1
 186 457 l 1
 116 457 l 1
 130 524 l 1
 200 524 l 1
 219 613 l 2
 235 687 291 732 368 732 c 0
 384 732 395 731 413 727 c 1
 398 658 l 1
 384 660 378 660 371 660 c 0
 328 660 310 643 299 593 c 2
 284 524 l 1
 370 524 l 1
EndSplineSet
KernsSLIFO: 65 -20 0 0 69 -21 0 0 70 12 0 0 73 -10 0 0 74 -11 0 0 76 -12 0 0 79 -18 0 0 83 -8 0 0 84 16 0 0 158 -20 0 0 161 -20 0 0 162 -20 0 0 163 -15 0 0 166 -21 0 0 176 -18 0 0 179 -18 0 0 181 -16 0 0 272 -20 0 0 1051 -8 0 0
EndChar
StartChar: g
Encoding: 103 103 71
Width: 556
Flags: W
HStem: -218 72<155.5 298.5> -17 72<196 301> 462 77<247.5 417>
VStem: 32 86<-129.5 -74> 74 88<113.5 212>
Fore
369 539 m 0xe8
 465 539 499 466 508 446 c 1
 525 524 l 1
 601 524 l 1
 508 85 l 2
 463 -125 388 -218 209 -218 c 0
 102 -218 32 -168 32 -91 c 0
 32 -87 32 -81 33 -73 c 0
 34 -60 l 1
 118 -60 l 1
 118 -74 l 2xf0
 118 -119 158 -146 226 -146 c 0
 332 -146 386 -92 415 44 c 2
 419 63 l 1
 369 10 310 -17 247 -17 c 0
 145 -17 74 59 74 168 c 0
 74 242 126 539 369 539 c 0xe8
363 462 m 0
 193 462 162 240 162 184 c 0xe8
 162 105 204 55 271 55 c 0
 331 55 390 93 423 154 c 0
 451 203 469 277 469 339 c 0
 469 414 427 462 363 462 c 0
EndSplineSet
KernsSLIFO: 65 -17 0 0 69 -11 0 0 76 -8 0 0 82 -9 0 0 161 -17 0 0 162 -17 0 0 163 -13 0 0 166 -11 0 0 176 -8 0 0 179 -8 0 0
EndChar
StartChar: h
Encoding: 104 104 72
Width: 556
Flags: W
HStem: 0 21G<70 154 406 490> 467 72<354.5 481> 709 20G<225 309>
VStem: 485 89<376 452.5>
Fore
225 729 m 1
 309 729 l 1
 252 459 l 1
 315 518 364 539 439 539 c 0
 523 539 574 492 574 413 c 0
 574 401 573 389 570 376 c 0
 490 0 l 1
 406 0 l 1
 479 343 l 1
 485 370 485 370 485 382 c 0
 485 433 451 467 400 467 c 0
 309 467 238 399 215 289 c 0
 154 0 l 1
 70 0 l 1
 225 729 l 1
EndSplineSet
KernsSLIFO: 89 -31 0 0 1051 -19 0 0
EndChar
StartChar: i
Encoding: 105 105 73
Width: 222
Flags: W
HStem: 0 21<66 150> 504 20<177 261> 709 20G<221 305>
Fore
305 729 m 1
 283 626 l 1
 199 626 l 1
 221 729 l 1
 305 729 l 1
EndSplineSet
Refer: 238 305 N 1 0 0 1 -28 0 0
KernsSLIFO: 52 -16 0 0 74 -10 0 0
Substitution: 0 65534 's001' dotlessi
EndChar
StartChar: j
Encoding: 106 106 74
Width: 222
Flags: W
HStem: -218 72<-50.5 11.5> 504 20<180 264> 709 20G<224 308>
Fore
308 729 m 1
 286 626 l 1
 202 626 l 1
 224 729 l 1
 308 729 l 1
EndSplineSet
Refer: 1085 63166 S 1 0 0 1 0 0 0
Substitution: 0 65534 's001' dotlessj
EndChar
StartChar: k
Encoding: 107 107 75
Width: 500
Flags: W
HStem: 0 21G<58 142 406 502> 504 20G<476 584> 709 20G<213 297>
Fore
297 729 m 1
 207 306 l 1
 476 524 l 1
 584 524 l 1
 362 343 l 1
 502 0 l 1
 406 0 l 1
 292 291 l 1
 185 203 l 1
 142 0 l 1
 58 0 l 1
 213 729 l 1
 297 729 l 1
EndSplineSet
KernsSLIFO: 12 -13 0 0 13 -49 0 0 14 -13 0 0 65 -14 0 0 69 -33 0 0 71 -26 0 0 79 -30 0 0 83 -14 0 0 85 -22 0 0 158 -14 0 0 161 -14 0 0 162 -14 0 0 163 -12 0 0 166 -33 0 0 176 -30 0 0 179 -30 0 0 185 -16 0 0
EndChar
StartChar: l
Encoding: 108 108 76
Width: 222
Flags: W
HStem: 0 21G<68 152> 709 20G<223 307>
Fore
307 729 m 1
 152 0 l 1
 68 0 l 1
 223 729 l 1
 307 729 l 1
EndSplineSet
KernsSLIFO: 86 -11 0 0 89 -15 0 0
EndChar
StartChar: m
Encoding: 109 109 77
Width: 833
Flags: W
HStem: 0 21G<71 155 377 461 683 767> 467 72<342.5 456 652 776.5>
VStem: 764 88<382.5 447>
Fore
725 539 m 0
 828 539 852 466 852 428 c 0
 852 417 848 384 846 373 c 0
 767 0 l 1
 683 0 l 1
 755 341 l 1
 764 375 764 375 764 390 c 0
 764 438 735 467 688 467 c 0
 616 467 548 407 531 329 c 0
 461 0 l 1
 377 0 l 1
 454 361 l 1
 457 374 458 387 458 398 c 0
 458 439 425 467 376 467 c 0
 309 467 241 405 225 329 c 2
 155 0 l 1
 71 0 l 1
 182 524 l 1
 258 524 l 1
 245 459 l 1
 309 519 355 539 423 539 c 0
 489 539 528 512 544 456 c 1
 603 513 660 539 725 539 c 0
EndSplineSet
KernsSLIFO: 80 -3 0 0 86 -24 0 0 87 -14 0 0 89 -30 0 0
EndChar
StartChar: n
Encoding: 110 110 78
Width: 556
Flags: W
HStem: 0 21G<70 154 406 490> 467 72<354 479.5>
VStem: 486 88<383 452>
Fore
181 524 m 1
 257 524 l 1
 244 459 l 1
 296 512 362 539 438 539 c 0
 521 539 574 490 574 414 c 0
 574 401 573 389 570 376 c 0
 490 0 l 1
 406 0 l 1
 480 349 l 1
 484 365 486 380 486 386 c 0
 486 432 449 467 399 467 c 0
 309 467 238 399 215 289 c 0
 154 0 l 1
 70 0 l 1
 181 524 l 1
EndSplineSet
KernsSLIFO: 52 -103 0 0 80 -3 0 0 86 -24 0 0 87 -14 0 0 89 -31 0 0 1051 -19 0 0
EndChar
StartChar: o
Encoding: 111 111 79
Width: 556
Flags: W
HStem: -23 77<213 370> 462 77<285.5 442.5>
VStem: 80 88<108.5 212> 488 88<303.5 407>
Fore
384 539 m 0
 501 539 576 462 576 352 c 0
 576 265 543 156 497 93 c 0
 441 16 365 -23 269 -23 c 0
 157 -23 80 53 80 164 c 0
 80 249 113 359 158 423 c 0
 209 497 291 539 384 539 c 0
283 54 m 0
 457 54 488 274 488 333 c 0
 488 414 445 462 371 462 c 0
 200 462 168 240 168 184 c 0
 168 104 212 54 283 54 c 0
EndSplineSet
KernsSLIFO: 52 -106 0 0 84 -17 0 0 86 -27 0 0 87 -16 0 0 88 -35 0 0 89 -34 0 0 1051 -23 0 0
EndChar
StartChar: p
Encoding: 112 112 80
Width: 556
Flags: W
HStem: -23 77<258.5 384> 462 77<300.5 465.5>
VStem: 498 88<241.5 404>
Fore
586 344 m 0
 586 139 461 -23 294 -23 c 0
 223 -23 182 3 151 68 c 1
 91 -213 l 1
 7 -213 l 1
 164 524 l 1
 245 524 l 1
 227 440 l 1
 256 501 341 539 412 539 c 0
 519 539 586 464 586 344 c 0
302 54 m 0
 466 54 498 270 498 324 c 0
 498 410 454 462 379 462 c 0
 222 462 183 250 183 184 c 0
 183 104 229 54 302 54 c 0
EndSplineSet
KernsSLIFO: 84 -10 0 0 89 -28 0 0
EndChar
StartChar: q
Encoding: 113 113 81
Width: 556
Flags: W
HStem: -23 77<197.5 306> 462 77<277.5 402.5>
VStem: 71 88<117 224.5>
Fore
425 62 m 1
 399 36 351 -23 248 -23 c 0
 147 -23 71 61 71 173 c 0
 71 276 115 390 182 461 c 0
 227 509 298 539 366 539 c 0
 439 539 490 503 513 438 c 1
 532 524 l 1
 607 524 l 1
 450 -213 l 1
 366 -213 l 1
 425 62 l 1
364 462 m 0
 191 462 159 241 159 186 c 0
 159 106 205 54 276 54 c 0
 336 54 388 89 428 155 c 0
 456 203 474 271 474 333 c 0
 474 412 431 462 364 462 c 0
EndSplineSet
KernsSLIFO: 67 -2 0 0 85 -5 0 0
EndChar
StartChar: r
Encoding: 114 114 82
Width: 333
Flags: W
HStem: 0 21G<69 153> 451 88<356 418>
Fore
180 524 m 1
 256 524 l 1
 239 442 l 1
 301 513 346 539 404 539 c 0
 415 539 423 538 436 536 c 1
 418 451 l 1
 415 451 411 451 408 451 c 0
 304 451 236 390 211 272 c 2
 153 0 l 1
 69 0 l 1
 180 524 l 1
EndSplineSet
KernsSLIFO: 12 -77 0 0 13 -54 0 0 14 -77 0 0 26 -31 0 0 27 -30 0 0 65 -16 0 0 67 -11 0 0 68 -8 0 0 69 -17 0 0 70 17 0 0 71 -8 0 0 72 -8 0 0 73 -6 0 0 74 -6 0 0 75 -2 0 0 76 -7 0 0 77 -9 0 0 78 -8 0 0 79 -14 0 0 81 -10 0 0 82 -8 0 0 83 -4 0 0 84 21 0 0 85 -7 0 0 86 18 0 0 87 21 0 0 88 9 0 0 89 15 0 0 157 -16 0 0 158 -16 0 0 159 -16 0 0 161 -16 0 0 162 -16 0 0 163 -11 0 0 164 -11 0 0 165 -17 0 0 166 -17 0 0 167 -17 0 0 175 -14 0 0 176 -14 0 0 177 -14 0 0 179 -14 0 0 181 -14 0 0 272 -16 0 0 1051 -6 0 0
EndChar
StartChar: s
Encoding: 115 115 83
Width: 500
Flags: W
HStem: -23 77<189 322> 462 77<285 404.5>
VStem: 61 93<65 134> 123 88<314.5 397.5> 405 88<113.5 203.5> 431 89<396.5 456>
Fore
123 345 m 0xd8
 123 450 214 539 356 539 c 0
 453 539 520 491 520 421 c 0
 520 408 519 399 514 378 c 1
 430 378 l 1
 431 386 431 393 431 400 c 0
 431 439 398 462 339 462 c 0
 262 462 211 419 211 367 c 0xd4
 211 341 240 321 296 307 c 2
 372 288 l 2
 460 266 493 234 493 173 c 0
 493 54 396 -23 247 -23 c 0
 131 -23 61 25 61 105 c 0
 61 121 62 133 67 156 c 1
 156 156 l 1
 155 146 154 137 154 131 c 0xe8
 154 81 193 54 262 54 c 0
 382 54 405 130 405 150 c 0
 405 194 353 204 335 209 c 2
 261 228 l 2
 158 255 123 284 123 345 c 0xd8
EndSplineSet
KernsSLIFO: 84 -15 0 0 1051 -24 0 0
EndChar
StartChar: t
Encoding: 116 116 84
Width: 278
Flags: W
HStem: -23 72<158.5 225> 457 67<122 193 277 352>
VStem: 97 86<31.5 77.5>
Fore
366 524 m 1
 352 457 l 1
 263 457 l 1
 185 90 l 1
 184 84 183 79 183 76 c 0
 183 60 197 49 219 49 c 0
 231 49 236 50 267 57 c 1
 251 -16 l 1
 237 -20 206 -23 186 -23 c 0
 131 -23 97 7 97 56 c 0
 97 66 98 77 100 87 c 2
 179 457 l 1
 108 457 l 1
 122 524 l 1
 193 524 l 1
 224 668 l 1
 308 668 l 1
 277 524 l 1
 366 524 l 1
EndSplineSet
KernsSLIFO: 26 -37 0 0 27 -36 0 0 51 -17 0 0 65 -10 0 0 69 -22 0 0 72 -14 0 0 79 -19 0 0 158 -10 0 0 161 -10 0 0 162 -10 0 0 163 -7 0 0 166 -22 0 0 176 -19 0 0 179 -19 0 0 1051 -7 0 0
EndChar
StartChar: u
Encoding: 117 117 85
Width: 556
Flags: W
HStem: -23 72<183 310.5> 504 20G<177 261 510 594>
VStem: 88 91<52 130>
Fore
483 0 m 1
 407 0 l 1
 419 57 l 1
 361 1 304 -23 226 -23 c 0
 140 -23 88 18 88 86 c 0
 88 99 89 110 91 120 c 2
 177 524 l 1
 261 524 l 1
 182 153 l 2
 180 143 179 134 179 126 c 0
 179 79 214 49 268 49 c 0
 353 49 424 119 447 227 c 2
 510 524 l 1
 594 524 l 1
 483 0 l 1
EndSplineSet
KernsSLIFO: 1051 -14 0 0
EndChar
StartChar: v
Encoding: 118 118 86
Width: 500
Flags: W
HStem: 0 21G<196 287> 504 20G<122 214 507 598>
Fore
287 0 m 1
 196 0 l 1
 122 524 l 1
 214 524 l 1
 263 102 l 1
 507 524 l 1
 598 524 l 1
 287 0 l 1
EndSplineSet
KernsSLIFO: 12 -76 0 0 13 -19 0 0 14 -76 0 0 26 -32 0 0 27 -31 0 0 65 -30 0 0 67 -22 0 0 69 -29 0 0 71 -20 0 0 76 -8 0 0 79 -25 0 0 83 -17 0 0 157 -30 0 0 158 -30 0 0 159 -30 0 0 160 -30 0 0 161 -30 0 0 162 -30 0 0 163 -25 0 0 165 -29 0 0 166 -29 0 0 167 -29 0 0 175 -25 0 0 176 -25 0 0 179 -25 0 0 181 -25 0 0
EndChar
StartChar: w
Encoding: 119 119 87
Width: 722
Flags: W
HStem: 0 21G<158 254 461 556> 504 20G<118 209 417 522 729 820>
Fore
556 0 m 1
 461 0 l 1
 449 418 l 1
 254 0 l 1
 158 0 l 1
 118 524 l 1
 209 524 l 1
 228 116 l 1
 417 524 l 1
 522 524 l 1
 533 116 l 1
 729 524 l 1
 820 524 l 1
 556 0 l 1
EndSplineSet
KernsSLIFO: 12 -57 0 0 13 -8 0 0 14 -57 0 0 26 -32 0 0 27 -31 0 0 65 -26 0 0 67 -14 0 0 69 -20 0 0 71 -13 0 0 76 -8 0 0 79 -17 0 0 83 -14 0 0 157 -26 0 0 158 -26 0 0 159 -26 0 0 160 -26 0 0 161 -26 0 0 162 -26 0 0 163 -22 0 0 165 -20 0 0 166 -20 0 0 167 -20 0 0 175 -17 0 0 176 -17 0 0 179 -17 0 0 181 -14 0 0
EndChar
StartChar: x
Encoding: 120 120 88
Width: 500
Flags: W
HStem: 0 21G<17 115 379 473> 504 20G<138 231 486 583>
Fore
350 267 m 1
 473 0 l 1
 379 0 l 1
 289 200 l 1
 115 0 l 1
 17 0 l 1
 256 267 l 1
 138 524 l 1
 231 524 l 1
 319 332 l 1
 486 524 l 1
 583 524 l 1
 350 267 l 1
EndSplineSet
KernsSLIFO: 65 -30 0 0 67 -30 0 0 69 -36 0 0 79 -33 0 0 81 -28 0 0 166 -36 0 0
EndChar
StartChar: y
Encoding: 121 121 89
Width: 500
Flags: W
HStem: -218 81<47.5 92.5> 504 20G<132 222 501 590>
Fore
501 524 m 1
 590 524 l 1
 222 -110 l 2
 179 -184 128 -218 57 -218 c 0
 38 -218 26 -216 8 -208 c 1
 24 -133 l 1
 51 -136 58 -137 68 -137 c 0
 105 -137 121 -127 148 -85 c 2
 200 -4 l 1
 132 524 l 1
 222 524 l 1
 268 117 l 1
 501 524 l 1
EndSplineSet
KernsSLIFO: 12 -80 0 0 13 -24 0 0 14 -80 0 0 26 -40 0 0 27 -40 0 0 65 -36 0 0 67 -28 0 0 69 -35 0 0 71 -26 0 0 76 -14 0 0 79 -31 0 0 83 -23 0 0 157 -36 0 0 158 -36 0 0 159 -36 0 0 160 -36 0 0 161 -36 0 0 162 -36 0 0 163 -31 0 0 165 -35 0 0 166 -35 0 0 167 -35 0 0 175 -31 0 0 176 -31 0 0 179 -31 0 0 181 -30 0 0
EndChar
StartChar: z
Encoding: 122 122 90
Width: 500
Flags: W
HStem: 0 72<31 458> 452 72<165 557>
Fore
557 524 m 1
 539 449 l 1
 147 72 l 1
 473 72 l 1
 458 0 l 1
 31 0 l 1
 49 74 l 1
 444 452 l 1
 150 452 l 1
 165 524 l 1
 557 524 l 1
EndSplineSet
EndChar
StartChar: braceleft
Encoding: 123 123 91
Width: 334
Flags: W
HStem: -213 66<184 231> 664 65<369.5 417>
VStem: 98 77<-159 -108> 148 76<145 187.5>
Fore
431 729 m 1xd0
 417 664 l 1
 401 664 l 2
 351 664 334 649 323 597 c 2
 284 416 l 1
 270 345 232 290 176 259 c 1
 213 235 224 213 224 162 c 0xd0
 224 140 222 120 218 101 c 2
 179 -80 l 1
 176 -92 175 -103 175 -113 c 0
 175 -137 191 -147 229 -147 c 2
 245 -147 l 1
 231 -213 l 1
 184 -213 l 2
 130 -213 98 -184 98 -134 c 0xe0
 98 -118 100 -98 104 -80 c 2
 139 86 l 1
 145 113 148 137 148 153 c 0
 148 193 128 218 91 224 c 1
 106 293 l 1
 164 303 193 342 212 431 c 0
 248 597 l 2
 276 721 355 729 384 729 c 2
 431 729 l 1xd0
EndSplineSet
EndChar
StartChar: bar
Encoding: 124 124 92
Width: 260
Flags: W
HStem: 709 20G<255 315>
Fore
255 729 m 1
 315 729 l 1
 114 -212 l 1
 54 -212 l 1
 255 729 l 1
EndSplineSet
EndChar
StartChar: braceright
Encoding: 125 125 93
Width: 334
Flags: W
HStem: -213 65<-2 85.5> 664 65<184 231>
VStem: 191 76<340.5 370.5> 240 77<625 671.5>
Fore
-16 -213 m 1xe0
 -2 -148 l 1
 14 -148 l 2
 64 -148 81 -133 92 -81 c 2
 131 100 l 1
 148 190 173 226 239 257 c 1
 206 286 191 319 191 362 c 0xe0
 191 379 193 397 197 416 c 2
 236 597 l 1
 239 609 240 620 240 630 c 0
 240 654 224 664 186 664 c 2
 170 664 l 1
 184 729 l 1
 231 729 l 2
 282 729 317 696 317 647 c 0xd0
 317 633 315 616 311 597 c 2
 276 431 l 1
 270 401 267 379 267 359 c 0
 267 322 287 299 324 293 c 1
 309 223 l 1
 251 214 221 168 203 85 c 0
 167 -81 l 2
 160 -114 140 -213 31 -213 c 2
 -16 -213 l 1xe0
EndSplineSet
EndChar
StartChar: asciitilde
Encoding: 126 126 94
Width: 584
Flags: W
HStem: 268 68<446 492.5> 372 66<243 284>
Fore
594 411 m 1
 572 282 486 268 458 268 c 0
 434 268 406 278 384 294 c 2
 299 357 l 2
 288 365 270 372 260 372 c 0
 229 372 205 345 189 293 c 1
 137 293 l 1
 162 387 211 438 275 438 c 0
 293 438 311 432 326 422 c 2
 428 353 l 2
 446 341 460 336 475 336 c 0
 510 336 531 360 542 411 c 1
 594 411 l 1
EndSplineSet
EndChar
StartChar: exclamdown
Encoding: 161 161 95
Width: 333
Flags: W
HStem: 504 20G<233 317>
Fore
76 -205 m 1
 150 145 l 1
 217 356 l 1
 257 356 l 1
 234 145 l 1
 160 -205 l 1
 76 -205 l 1
211 421 m 1
 233 524 l 1
 317 524 l 1
 295 421 l 1
 211 421 l 1
EndSplineSet
EndChar
StartChar: cent
Encoding: 162 162 96
Width: 556
Flags: W
VStem: 96 88<117.5 226> 499 86<368 408>
Fore
423 538 m 1
 557 538 585 424 585 392 c 0
 585 389 584 378 583 363 c 2
 582 348 l 1
 498 348 l 1
 499 357 499 365 499 371 c 0
 499 422 472 452 419 461 c 2
 407 463 l 1
 320 53 l 1
 391 61 434 98 465 180 c 1
 549 180 l 1
 514 49 438 -15 304 -23 c 1
 283 -120 l 1
 243 -120 l 1
 264 -22 l 1
 161 -11 96 64 96 171 c 0
 96 247 127 513 383 538 c 1
 402 628 l 1
 442 628 l 1
 423 538 l 1
281 56 m 1
 366 460 l 1
 328 453 302 440 276 415 c 0
 221 362 184 269 184 183 c 0
 184 113 221 64 281 56 c 1
EndSplineSet
EndChar
StartChar: sterling
Encoding: 163 163 97
Width: 556
Flags: W
HStem: -23 93<359.5 439.5> 23 77<180.5 298> 321 55<107 208 287 435> 652 77<368.5 497.5>
VStem: 160 96<457 545> 218 83<231.5 285> 540 88<545 624>
Fore
256 492 m 0x7a
 256 451 262 456 287 376 c 1
 447 376 l 1
 435 321 l 1
 298 321 l 1
 299 310 l 1
 300 297 301 287 301 283 c 0
 301 180 210 118 136 61 c 1
 192 89 230 100 269 100 c 0x76
 327 100 354 70 424 70 c 0
 455 70 476 77 518 101 c 1
 543 31 l 1
 500 -4 449 -23 401 -23 c 0xb6
 318 -23 270 23 199 23 c 0
 162 23 127 12 81 -14 c 1
 44 52 l 1
 161 129 218 200 218 271 c 0x76
 218 286 217 292 208 321 c 1
 95 321 l 1
 107 376 l 1
 190 376 l 1
 181 404 160 434 160 480 c 0
 160 610 295 729 442 729 c 0
 553 729 628 669 628 579 c 0
 628 557 626 539 619 497 c 1
 531 497 l 1
 538 523 540 536 540 554 c 0
 540 614 495 652 424 652 c 0
 329 652 256 582 256 492 c 0x7a
EndSplineSet
EndChar
StartChar: currency
Encoding: 164 164 98
Width: 556
Flags: W
HStem: 160 77<289.5 359.5> 448 77<334.5 403.5>
VStem: 156 79<293 355.5> 458 79<331.5 393.5>
Fore
156 305 m 0
 156 389 205 424 214 445 c 1
 172 500 l 1
 238 556 l 1
 283 498 l 1
 310 514 351 525 385 525 c 0
 422 525 458 514 478 496 c 1
 546 552 l 1
 593 494 l 1
 524 438 l 1
 533 422 537 406 537 381 c 0
 537 334 513 274 483 245 c 1
 526 191 l 1
 456 137 l 1
 414 190 l 1
 386 171 348 160 309 160 c 0
 270 160 238 169 219 185 c 1
 154 133 l 1
 110 191 l 1
 170 240 l 1
 161 257 156 281 156 305 c 0
369 448 m 0
 300 448 235 388 235 323 c 0
 235 274 274 237 325 237 c 0
 394 237 458 299 458 364 c 0
 458 411 419 448 369 448 c 0
EndSplineSet
EndChar
StartChar: yen
Encoding: 165 165 99
Width: 556
Flags: W
HStem: 0 21G<237 325> 175 51<111 285 362 535> 303 51<138 302 419 562> 689 20G<162 247 611 696>
Fore
573 354 m 1
 562 303 l 1
 390 303 l 1
 373 226 l 1
 545 226 l 1
 535 175 l 1
 362 175 l 1
 325 0 l 1
 237 0 l 1
 274 175 l 1
 100 175 l 1
 111 226 l 1
 285 226 l 1
 302 303 l 1
 127 303 l 1
 138 354 l 1
 292 354 l 1
 162 709 l 1
 247 709 l 1
 363 387 l 1
 611 709 l 1
 696 709 l 1
 419 354 l 1
 573 354 l 1
EndSplineSet
EndChar
StartChar: brokenbar
Encoding: 166 166 100
Width: 260
Flags: W
HStem: 709 20G<255 315>
Fore
255 729 m 1
 315 729 l 1
 229 328 l 1
 169 328 l 1
 255 729 l 1
140 189 m 1
 200 189 l 1
 114 -212 l 1
 54 -212 l 1
 140 189 l 1
EndSplineSet
EndChar
StartChar: section
Encoding: 167 167 101
Width: 556
Flags: W
HStem: -213 77<176 268.5> -34 20G<74 159> 524 21G<491 575> 652 77<380 481>
VStem: 63 88<-116.5 -52.5> 104 88<253 334> 221 92<525 589> 350 92<-61.5 1> 471 88<207 302.5> 501 76<532.5 598.5>
Fore
104 274 m 0xf7
 104 394 211 444 247 463 c 1
 229 486 221 510 221 540 c 0
 221 638 324 729 436 729 c 0
 526 729 589 673 589 594 c 0
 589 573 588 569 577 533 c 0
 577 532 576 529 575 524 c 1
 491 524 l 1
 498 544 501 559 501 575 c 0xf740
 501 622 468 652 418 652 c 0
 362 652 313 605 313 553 c 0
 313 530 321 518 355 491 c 2
 482 390 l 2
 503 373 559 338 559 267 c 0
 559 231 541 113 412 71 c 1
 434 41 442 18 442 -16 c 0
 442 -57 421 -103 387 -142 c 0
 347 -186 289 -213 225 -213 c 0
 127 -213 63 -158 63 -75 c 0
 63 -54 66 -41 74 -14 c 1
 159 -14 l 1
 153 -35 151 -46 151 -59 c 0xfb80
 151 -104 188 -136 238 -136 c 0
 299 -136 350 -89 350 -34 c 0
 350 -5 340 14 312 38 c 2
 167 162 l 2
 121 201 104 232 104 274 c 0xf7
236 229 m 2
 374 108 l 1
 438 141 471 183 471 231 c 0xf780
 471 261 450 296 418 322 c 2
 287 428 l 1
 217 388 192 357 192 309 c 0
 192 277 202 258 236 229 c 2
EndSplineSet
EndChar
StartChar: dieresis
Encoding: 168 168 102
Width: 333
Flags: W
HStem: 612 103<181 263 342 424>
Fore
285 715 m 1
 263 612 l 1
 159 612 l 1
 181 715 l 1
 285 715 l 1
446 715 m 1
 424 612 l 1
 320 612 l 1
 342 715 l 1
 446 715 l 1
EndSplineSet
EndChar
StartChar: copyright
Encoding: 169 169 103
Width: 737
Flags: W
HStem: -22 62<272.5 484> 126 62<353 444.5> 530 62<421 548> 680 62<407 618.5>
VStem: 55 70<193.5 400.5> 249 72<240.5 329.5> 766 70<320 527>
Fore
618 312 m 1
 564 175 489 126 400 126 c 0
 306 126 249 189 249 292 c 0
 249 367 278 448 326 506 c 0
 374 562 435 592 503 592 c 0
 593 592 635 543 637 437 c 1
 566 437 l 1
 563 503 540 530 488 530 c 0
 354 530 321 355 321 301 c 0
 321 234 359 188 416 188 c 0
 471 188 517 231 547 312 c 1
 618 312 l 1
530 742 m 0
 707 742 836 614 836 440 c 0
 836 200 607 -22 361 -22 c 0
 184 -22 55 106 55 281 c 0
 55 520 284 742 530 742 c 0
516 680 m 0
 314 680 125 493 125 293 c 0
 125 147 231 40 375 40 c 0
 577 40 766 227 766 428 c 0
 766 573 660 680 516 680 c 0
EndSplineSet
EndChar
StartChar: ordfeminine
Encoding: 170 170 104
Width: 370
Flags: W
HStem: 303 51<118 395> 399 50<200.5 271.5> 691 51<274.5 369>
VStem: 136 60<453.5 531> 382 59<632.5 696.5>
Fore
406 354 m 1
 395 303 l 1
 107 303 l 1
 118 354 l 1
 406 354 l 1
184 634 m 1
 196 678 212 742 337 742 c 0
 401 742 441 717 441 676 c 0
 441 669 441 661 440 658 c 0
 399 468 l 1
 398 465 398 463 398 461 c 0
 398 454 406 447 415 447 c 0
 419 447 432 449 432 449 c 1
 423 405 l 1
 418 404 414 403 413 403 c 0
 396 399 394 399 387 399 c 0
 359 399 343 414 340 442 c 1
 310 414 272 399 231 399 c 0
 170 399 136 428 136 479 c 0
 136 583 244 592 320 600 c 0
 359 604 382 609 382 656 c 0
 382 684 347 691 320 691 c 0
 286 691 254 679 240 634 c 1
 184 634 l 1
363 566 m 1
 307 546 196 558 196 486 c 0
 196 461 214 449 249 449 c 0
 294 449 347 483 353 515 c 2
 363 566 l 1
EndSplineSet
EndChar
StartChar: guillemotleft
Encoding: 171 171 105
Width: 556
Flags: W
Fore
147 227 m 1
 166 316 l 1
 343 438 l 1
 325 355 l 1
 204 271 l 1
 290 188 l 1
 272 106 l 1
 147 227 l 1
352 227 m 1
 371 316 l 1
 548 438 l 1
 530 355 l 1
 409 271 l 1
 495 188 l 1
 477 106 l 1
 352 227 l 1
EndSplineSet
EndChar
StartChar: logicalnot
Encoding: 172 172 106
Width: 584
Flags: W
HStem: 305 72<114 534>
Fore
114 377 m 1
 619 377 l 1
 558 86 l 1
 488 86 l 1
 534 305 l 1
 99 305 l 1
 114 377 l 1
EndSplineSet
EndChar
StartChar: macron
Encoding: 175 175 108
Width: 333
Flags: W
HStem: 627 69<175 435>
Fore
450 696 m 1
 435 627 l 1
 160 627 l 1
 175 696 l 1
 450 696 l 1
EndSplineSet
EndChar
StartChar: degree
Encoding: 176 176 109
Width: 606
Flags: W
HStem: 383 43<400 483.5> 643 43<400.5 484>
VStem: 291 45<493.5 576.5> 549 45<492.5 576.5>
Fore
442 686 m 0
 526 686 594 618 594 535 c 0
 594 450 526 383 441 383 c 0
 359 383 291 452 291 535 c 0
 291 618 359 686 442 686 c 0
443 643 m 0
 384 643 336 594 336 535 c 0
 336 476 384 426 441 426 c 0
 501 426 549 474 549 535 c 0
 549 594 501 643 443 643 c 0
EndSplineSet
EndChar
StartChar: plusminus
Encoding: 177 177 110
Width: 584
Flags: W
HStem: 0 72<65 534> 357 72<141 348 418 610>
Fore
625 429 m 1
 610 357 l 1
 403 357 l 1
 359 149 l 1
 288 149 l 1
 333 357 l 1
 126 357 l 1
 141 429 l 1
 348 429 l 1
 391 633 l 1
 462 633 l 1
 418 429 l 1
 625 429 l 1
549 72 m 1
 534 0 l 1
 50 0 l 1
 65 72 l 1
 549 72 l 1
EndSplineSet
EndChar
StartChar: twosuperior
Encoding: 178 178 111
Width: 390
Flags: W
HStem: 284 60<181 400> 654 55<295.5 382.5>
VStem: 403 65<573 635.5>
Fore
412 344 m 1
 400 284 l 1
 100 284 l 1
 128 385 155 416 265 472 c 2
 328 503 l 2
 375 525 403 559 403 594 c 0
 403 630 376 654 335 654 c 0
 279 654 247 624 230 555 c 1
 167 555 l 1
 191 662 246 709 345 709 c 0
 420 709 468 668 468 603 c 0
 468 543 427 493 344 452 c 2
 276 419 l 2
 222 392 200 375 181 344 c 1
 412 344 l 1
EndSplineSet
EndChar
StartChar: threesuperior
Encoding: 179 179 112
Width: 390
Flags: W
HStem: 270 55<207 299> 475 52<267 319.5> 654 55<270 373.5>
VStem: 123 65<340 384> 365 65<387 450.5> 390 65<579 645.5>
Fore
168 565 m 1xf4
 177 599 202 709 338 709 c 0
 409 709 455 673 455 618 c 0xf4
 455 567 436 535 386 504 c 1
 417 489 430 467 430 434 c 0
 430 340 351 270 247 270 c 0
 167 270 123 307 123 373 c 0
 123 383 124 392 126 414 c 1
 190 414 l 1
 189 402 l 1
 188 393 188 387 188 381 c 0
 188 347 215 325 256 325 c 0
 321 325 365 365 365 425 c 0xf8
 365 457 336 475 287 475 c 0
 280 475 272 475 256 474 c 1
 267 527 l 1
 283 527 l 2
 356 527 390 552 390 606 c 0
 390 636 366 654 328 654 c 0
 246 654 235 583 231 565 c 1
 168 565 l 1xf4
EndSplineSet
EndChar
StartChar: acute
Encoding: 180 180 113
Width: 333
Flags: W
HStem: 720 20G<346 458>
Fore
346 740 m 1
 458 740 l 1
 278 592 l 1
 218 592 l 1
 346 740 l 1
EndSplineSet
EndChar
StartChar: mu
Encoding: 181 181 114
Width: 556
Flags: W
HStem: -23 69<459 540> 504 20G<176 260 509 593>
Fore
554 49 m 1
 540 -14 l 1
 525 -16 509 -23 486 -23 c 0
 432 -23 411 -5 411 41 c 0
 411 45 412 52 414 60 c 1
 360 4 300 -23 231 -23 c 0
 194 -23 171 -15 150 6 c 1
 102 -220 l 1
 18 -220 l 1
 176 524 l 1
 260 524 l 1
 183 160 l 2
 181 150 180 141 180 130 c 0
 180 80 213 50 266 50 c 0
 352 50 423 120 446 227 c 0
 509 524 l 1
 593 524 l 1
 500 88 l 1
 499 85 499 81 499 77 c 0
 499 57 512 46 537 46 c 0
 543 46 546 47 554 49 c 1
EndSplineSet
EndChar
StartChar: paragraph
Encoding: 182 182 115
Width: 537
Flags: W
HStem: 665 64<354 677>
Fore
677 729 m 1
 663 665 l 1
 607 665 l 1
 428 -178 l 1
 364 -178 l 1
 543 665 l 1
 460 665 l 1
 281 -178 l 1
 217 -178 l 1
 310 259 l 1
 207 262 145 329 145 436 c 0
 145 588 281 729 427 729 c 2
 677 729 l 1
EndSplineSet
EndChar
StartChar: periodcentered
Encoding: 183 183 116
Width: 278
Flags: W
Fore
293 295 m 1
 271 192 l 1
 166 192 l 1
 188 295 l 1
 293 295 l 1
EndSplineSet
EndChar
StartChar: cedilla
Encoding: 184 184 117
Width: 333
Flags: W
HStem: -214 43<100 161> -94 94<153 165>
VStem: 186 78<-136.5 -91>
Fore
155 -94 m 0
 151 -94 135 -97 128 -98 c 1
 115 -92 l 1
 165 0 l 1
 206 0 l 1
 176 -56 l 1
 189 -54 193 -54 197 -54 c 0
 234 -54 264 -77 264 -105 c 0
 264 -168 203 -214 119 -214 c 0
 81 -214 52 -206 1 -180 c 1
 29 -142 l 1
 70 -163 95 -171 123 -171 c 0
 160 -171 186 -148 186 -116 c 0
 186 -104 172 -94 155 -94 c 0
EndSplineSet
EndChar
StartChar: onesuperior
Encoding: 185 185 118
Width: 390
Flags: W
HStem: 689 20G<349 393>
Fore
302 580 m 1
 205 580 l 1
 215 626 l 1
 306 638 316 644 349 709 c 1
 393 709 l 1
 303 284 l 1
 239 284 l 1
 302 580 l 1
EndSplineSet
EndChar
StartChar: ordmasculine
Encoding: 186 186 119
Width: 365
Flags: W
HStem: 303 51<125 377> 399 52<228.5 321> 690 52<280 383>
VStem: 149 60<476.5 574> 392 60<568 649>
Fore
388 354 m 1
 377 303 l 1
 114 303 l 1
 125 354 l 1
 388 354 l 1
149 509 m 0
 149 639 224 742 336 742 c 0
 430 742 452 671 452 627 c 0
 452 509 380 399 262 399 c 0
 195 399 149 444 149 509 c 0
327 690 m 0
 261 690 209 618 209 525 c 0
 209 478 234 451 276 451 c 0
 341 451 392 524 392 617 c 0
 392 662 367 690 327 690 c 0
EndSplineSet
EndChar
StartChar: guillemotright
Encoding: 187 187 120
Width: 556
Flags: W
Fore
319 317 m 1
 300 228 l 1
 121 106 l 1
 139 189 l 1
 262 273 l 1
 174 356 l 1
 192 438 l 1
 319 317 l 1
518 317 m 1
 499 228 l 1
 320 106 l 1
 338 189 l 1
 461 273 l 1
 373 356 l 1
 391 438 l 1
 518 317 l 1
EndSplineSet
KernsSLIFO: 33 -58 3 0 52 -132 3 0 54 -96 3 0 55 -68 3 0 57 -137 3 0 126 -58 3 0 129 -58 3 0 130 -58 3 0 131 -62 3 0
EndChar
StartChar: onequarter
Encoding: 188 188 121
Width: 947
Flags: W
HStem: -20 21G<212 270> 100 55<614 810 861 926> 689 20G<349 393 818 876>
Fore
302 580 m 1
 205 580 l 1
 215 626 l 1
 306 638 316 644 349 709 c 1
 393 709 l 1
 303 284 l 1
 239 284 l 1
 302 580 l 1
818 709 m 1
 876 709 l 1
 270 -20 l 1
 212 -20 l 1
 818 709 l 1
798 100 m 1
 614 100 l 1
 627 160 l 1
 883 425 l 1
 930 425 l 1
 873 155 l 1
 938 155 l 1
 926 100 l 1
 861 100 l 1
 840 0 l 1
 777 0 l 1
 798 100 l 1
810 155 m 1
 844 316 l 1
 688 155 l 1
 810 155 l 1
EndSplineSet
EndChar
StartChar: onehalf
Encoding: 189 189 122
Width: 947
Flags: W
HStem: 0 60<678 897> 370 55<792.5 879.5> 689 20G<349 393 808 866>
VStem: 900 65<289 351.5>
Fore
302 580 m 1
 205 580 l 1
 215 626 l 1
 306 638 316 644 349 709 c 1
 393 709 l 1
 303 284 l 1
 239 284 l 1
 302 580 l 1
808 709 m 1
 866 709 l 1
 260 -20 l 1
 202 -20 l 1
 808 709 l 1
909 60 m 1
 897 0 l 1
 597 0 l 1
 625 101 652 132 762 188 c 2
 825 219 l 2
 872 241 900 275 900 310 c 0
 900 346 873 370 832 370 c 0
 776 370 744 340 727 271 c 1
 664 271 l 1
 688 378 743 425 842 425 c 0
 917 425 965 384 965 319 c 0
 965 259 924 209 841 168 c 2
 773 135 l 2
 719 108 697 91 678 60 c 1
 909 60 l 1
EndSplineSet
EndChar
StartChar: threequarters
Encoding: 190 190 123
Width: 947
Flags: W
HStem: -20 21G<232 290> 100 55<614 810 861 926> 270 55<207 299> 475 52<267 319.5> 654 55<270 373.5>
VStem: 123 65<340 384> 365 65<387 450.5> 390 65<579 645.5>
Fore
168 565 m 1xfd
 177 599 202 709 338 709 c 0
 409 709 455 673 455 618 c 0xfd
 455 567 436 535 386 504 c 1
 417 489 430 467 430 434 c 0
 430 340 351 270 247 270 c 0
 167 270 123 307 123 373 c 0
 123 383 124 392 126 414 c 1
 190 414 l 1
 189 402 l 1
 188 393 188 387 188 381 c 0
 188 347 215 325 256 325 c 0
 321 325 365 365 365 425 c 0xfe
 365 457 336 475 287 475 c 0
 280 475 272 475 256 474 c 1
 267 527 l 1
 283 527 l 2
 356 527 390 552 390 606 c 0
 390 636 366 654 328 654 c 0
 246 654 235 583 231 565 c 1
 168 565 l 1xfd
838 709 m 1
 896 709 l 1
 290 -20 l 1
 232 -20 l 1
 838 709 l 1
798 100 m 1
 614 100 l 1
 627 160 l 1
 883 425 l 1
 930 425 l 1
 873 155 l 1
 938 155 l 1
 926 100 l 1
 861 100 l 1
 840 0 l 1
 777 0 l 1
 798 100 l 1
810 155 m 1
 844 316 l 1
 688 155 l 1
 810 155 l 1
EndSplineSet
EndChar
StartChar: questiondown
Encoding: 191 191 124
Width: 611
Flags: W
HStem: -217 77<194 338> 504 20G<386 476>
VStem: 86 95<-98.5 20.5>
Fore
266 -217 m 0
 122 -217 86 -125 86 -72 c 0
 86 25 151 93 230 154 c 0
 304 209 320 228 334 278 c 1
 344 325 l 1
 434 325 l 1
 422 270 l 2
 388 122 181 94 181 -53 c 0
 181 -106 223 -140 288 -140 c 0
 376 -140 424 -92 446 17 c 1
 531 17 l 1
 500 -138 410 -217 266 -217 c 0
364 421 m 1
 386 524 l 1
 476 524 l 1
 454 421 l 1
 364 421 l 1
EndSplineSet
EndChar
StartChar: AE
Encoding: 198 198 131
Width: 1000
Flags: W
HStem: 0 82<468 950> 214 81<244 531> 332 82<632 983> 647 82<465 1070>
Fore
513 214 m 1
 244 214 l 1
 114 0 l 1
 11 0 l 1
 465 729 l 1
 1087 729 l 1
 1070 647 l 1
 699 647 l 1
 650 414 l 1
 1001 414 l 1
 983 332 l 1
 632 332 l 1
 579 82 l 1
 967 82 l 1
 950 0 l 1
 468 0 l 1
 513 214 l 1
531 295 m 1
 605 647 l 1
 505 647 l 1
 293 295 l 1
 531 295 l 1
EndSplineSet
EndChar
StartChar: Ccedilla
Encoding: 199 199 132
Width: 722
Flags: W
HStem: -214 43<275 336> -23 81<329 458> 660 81<392 579.5>
VStem: 112 96<199 307> 361 78<-136.5 -91>
Fore
381 58 m 0
 535 58 593 165 637 266 c 1
 735 266 l 1
 656 68 542 -21 368 -23 c 1
 351 -56 l 1
 364 -54 367 -54 372 -54 c 0
 409 -54 439 -77 439 -105 c 0
 439 -168 378 -214 294 -214 c 0
 256 -214 227 -206 176 -180 c 1
 204 -142 l 1
 244 -163 270 -171 298 -171 c 0
 335 -171 361 -148 361 -116 c 0
 361 -104 347 -94 330 -94 c 0
 325 -94 309 -97 303 -98 c 1
 290 -92 l 1
 328 -21 l 1
 261 -11 232 1 197 32 c 0
 142 81 112 156 112 242 c 0
 112 367 161 505 240 600 c 0
 318 694 415 741 532 741 c 0
 627 741 760 703 770 503 c 1
 674 503 l 1
 666 611 616 660 515 660 c 0
 269 660 208 354 208 260 c 0
 208 139 277 58 381 58 c 0
EndSplineSet
KernsSLIFO: 33 -44 0 0
EndChar
StartChar: Eth
Encoding: 208 208 141
Width: 722
Flags: W
HStem: 0 82<89 425> 341 67<106 176 255 422> 647 82<244 620.5>
VStem: 663 96<425.5 532.5>
Fore
526 729 m 2
 715 729 759 574 759 488 c 0
 759 363 711 217 643 134 c 0
 570 45 479 0 371 0 c 2
 89 0 l 1
 161 341 l 1
 93 341 l 1
 106 408 l 1
 176 408 l 1
 244 729 l 1
 526 729 l 2
255 341 m 1
 200 82 l 1
 372 82 l 2
 463 82 539 125 591 205 c 0
 631 268 663 389 663 480 c 0
 663 585 599 647 492 647 c 2
 321 647 l 1
 270 408 l 1
 436 408 l 1
 422 341 l 1
 255 341 l 1
EndSplineSet
EndChar
StartChar: multiply
Encoding: 215 215 148
Width: 584
Flags: W
Fore
529 427 m 1
 568 377 l 1
 390 231 l 1
 507 84 l 1
 446 34 l 1
 330 181 l 1
 152 35 l 1
 113 84 l 1
 291 231 l 1
 176 377 l 1
 236 426 l 1
 351 281 l 1
 529 427 l 1
EndSplineSet
EndChar
StartChar: Oslash
Encoding: 216 216 149
Width: 778
Flags: W
HStem: -23 81<331.5 559.5> 660 81<417.5 567.5>
VStem: 88 96<236.5 375.5> 716 96<399 491>
Fore
812 463 m 0
 812 363 741 -23 378 -23 c 0
 285 -23 209 5 158 57 c 1
 67 -24 l 1
 32 15 l 1
 126 100 l 1
 102 141 88 205 88 268 c 0
 88 390 142 522 229 614 c 0
 309 698 407 741 519 741 c 0
 616 741 701 709 745 657 c 1
 832 735 l 1
 867 696 l 1
 775 613 l 1
 800 570 812 519 812 463 c 0
202 168 m 1
 672 592 l 1
 636 635 575 660 508 660 c 0
 327 660 184 486 184 265 c 0
 184 225 189 198 202 168 c 1
700 546 m 1
 230 123 l 1
 264 83 325 58 391 58 c 0
 484 58 574 106 632 185 c 0
 684 256 716 355 716 443 c 0
 716 485 710 521 700 546 c 1
EndSplineSet
KernsSLIFO: 33 -47 0 0
EndChar
StartChar: Thorn
Encoding: 222 222 155
Width: 667
Flags: W
HStem: 0 21G<91 185> 191 82<226 531> 529 82<297 523> 709 20G<246 340>
VStem: 612 96<382 503>
Fore
708 450 m 0
 708 314 608 191 454 191 c 2
 226 191 l 1
 185 0 l 1
 91 0 l 1
 246 729 l 1
 340 729 l 1
 315 611 l 1
 523 611 l 2
 645 611 708 556 708 450 c 0
437 273 m 2
 547 273 612 346 612 432 c 0
 612 495 570 529 492 529 c 2
 297 529 l 1
 243 273 l 1
 437 273 l 2
EndSplineSet
EndChar
StartChar: germandbls
Encoding: 223 223 156
Width: 611
Flags: W
HStem: -15 79<289.5 394.5> 354 73<373 446> 652 77<366 506>
VStem: 518 94<217 294> 555 91<529 629>
Fore
312 64 m 0xf0
 477 64 518 180 518 254 c 0xf0
 518 328 461 354 373 354 c 2
 357 354 l 1
 373 427 l 1
 519 427 555 510 555 564 c 0
 555 616 512 652 424 652 c 0
 311 652 270 595 252 510 c 2
 143 0 l 1
 55 0 l 1
 168 532 l 2
 193 647 291 729 441 729 c 0
 571 729 646 673 646 585 c 0xe8
 646 473 557 417 528 400 c 1
 586 383 612 321 612 267 c 0
 612 255 611 244 609 234 c 0
 571 57 447 -15 304 -15 c 0
 275 -15 266 -11 253 -8 c 1
 268 67 l 1
 283 65 298 64 312 64 c 0xf0
EndSplineSet
EndChar
StartChar: ae
Encoding: 230 230 163
Width: 889
Flags: W
HStem: -23 72<157.5 279> 234 72<512 898> 462 77<282.5 435 670.5 779>
VStem: 59 88<66 179> 827 88<333.5 416>
Fore
507 163 m 2
 507 140 526 54 632 54 c 0
 698 54 751 90 787 159 c 1
 871 159 l 1
 839 50 737 -23 616 -23 c 0
 536 -23 481 9 442 79 c 1
 375 14 288 -23 201 -23 c 0
 114 -23 59 27 59 105 c 0
 59 163 90 217 141 249 c 0
 285 335 438 255 463 361 c 2
 468 386 l 1
 469 393 470 399 470 405 c 0
 470 440 430 462 366 462 c 0
 287 462 246 435 225 369 c 1
 141 369 l 1
 155 419 178 539 387 539 c 0
 483 539 536 498 546 474 c 1
 591 514 660 539 728 539 c 0
 830 539 915 462 915 370 c 0
 915 342 910 299 901 251 c 2
 898 234 l 1
 512 234 l 1
 508 216 507 204 507 181 c 2
 507 163 l 2
441 257 m 1
 342 222 147 243 147 115 c 0
 147 72 179 49 237 49 c 0
 321 49 408 104 421 164 c 2
 441 257 l 1
530 306 m 1
 824 306 l 1
 826 321 827 328 827 339 c 0
 827 414 783 462 712 462 c 0
 629 462 561 404 530 306 c 1
EndSplineSet
KernsSLIFO: 86 -26 0 0 87 -15 0 0 89 -32 0 0
EndChar
StartChar: ccedilla
Encoding: 231 231 164
Width: 500
Flags: W
HStem: -214 43<177 238> -23 77<242.5 313> 462 77<281 454.5>
VStem: 76 88<133.5 274> 263 78<-136.5 -91> 468 86<367 409>
Fore
366 462 m 0
 196 462 164 238 164 181 c 0
 164 103 208 54 277 54 c 0
 349 54 404 98 434 180 c 1
 518 180 l 1
 486 51 400 -19 271 -23 c 1
 253 -56 l 1
 266 -54 270 -54 274 -54 c 0
 311 -54 341 -77 341 -105 c 0
 341 -168 280 -214 196 -214 c 0
 158 -214 129 -206 78 -180 c 1
 106 -142 l 1
 147 -163 172 -171 200 -171 c 0
 237 -171 263 -148 263 -116 c 0
 263 -104 248 -94 232 -94 c 0
 227 -94 211 -97 205 -98 c 1
 192 -92 l 1
 230 -22 l 1
 111 1 76 97 76 170 c 0
 76 378 197 539 381 539 c 0
 528 539 554 425 554 393 c 0
 554 390 553 379 552 363 c 2
 551 348 l 1
 467 348 l 1
 468 357 468 364 468 370 c 0
 468 427 429 462 366 462 c 0
EndSplineSet
EndChar
StartChar: eth
Encoding: 240 240 173
Width: 556
Flags: W
HStem: -23 77<215 402> 462 72<246 408>
VStem: 80 88<108 212> 488 88<303.5 400.5>
Fore
80 164 m 0
 80 243 123 534 369 534 c 0
 395 534 407 531 435 517 c 1
 403 559 387 576 351 609 c 1
 251 564 l 1
 219 603 l 1
 308 644 l 1
 269 678 272 669 233 698 c 1
 275 743 l 1
 297 729 l 2
 325 713 356 691 369 681 c 1
 370 681 373 679 377 676 c 1
 476 719 l 1
 515 681 l 1
 420 640 l 1
 525 550 576 454 576 347 c 0
 576 268 531 -23 273 -23 c 0
 157 -23 80 52 80 164 c 0
283 54 m 0
 457 54 488 274 488 333 c 0
 488 414 445 462 371 462 c 0
 200 462 168 240 168 184 c 0
 168 104 212 54 283 54 c 0
EndSplineSet
EndChar
StartChar: divide
Encoding: 247 247 180
Width: 584
Flags: W
HStem: 0 21G<291 319> 197 72<107 576>
Fore
591 269 m 1
 576 197 l 1
 92 197 l 1
 107 269 l 1
 591 269 l 1
305 104 m 0
 334 104 357 81 357 51 c 0
 357 24 333 0 305 0 c 0
 277 0 253 24 253 52 c 0
 253 80 277 104 305 104 c 0
379 462 m 0
 408 462 431 439 431 409 c 0
 431 382 407 358 379 358 c 0
 351 358 327 382 327 410 c 0
 327 439 350 462 379 462 c 0
EndSplineSet
EndChar
StartChar: oslash
Encoding: 248 248 181
Width: 611
Flags: W
HStem: -23 77<240 369> 462 77<284.5 418.5>
VStem: 81 88<148.5 210> 489 88<257 368.5>
Fore
577 354 m 0
 577 160 461 -23 274 -23 c 0
 206 -23 153 -1 123 41 c 1
 45 -30 l 1
 19 -2 l 1
 102 74 l 1
 87 106 81 133 81 164 c 0
 81 248 114 359 159 423 c 0
 211 498 291 539 383 539 c 0
 454 539 504 517 537 472 c 1
 613 541 l 1
 639 511 l 1
 558 437 l 1
 571 408 577 383 577 354 c 0
369 462 m 0
 200 462 169 240 169 180 c 0
 169 163 170 156 175 141 c 1
 470 410 l 1
 451 444 415 462 369 462 c 0
289 54 m 0
 449 54 489 263 489 328 c 0
 489 339 488 350 484 370 c 1
 190 102 l 1
 209 71 245 54 289 54 c 0
EndSplineSet
EndChar
StartChar: thorn
Encoding: 254 254 187
Width: 556
Flags: W
HStem: -23 77<258.5 384> 462 77<300.5 465.5> 709 20G<207 291>
VStem: 498 88<241.5 404>
Fore
586 344 m 0
 586 139 461 -23 294 -23 c 0
 223 -23 182 3 151 68 c 1
 91 -213 l 1
 7 -213 l 1
 207 729 l 1
 291 729 l 1
 230 440 l 1
 260 498 336 539 412 539 c 0
 519 539 586 464 586 344 c 0
302 54 m 0
 466 54 498 270 498 324 c 0
 498 410 454 462 379 462 c 0
 222 462 183 250 183 184 c 0
 183 104 229 54 302 54 c 0
EndSplineSet
EndChar
StartChar: Aogonek
Encoding: 260 260 193
Width: 667
Flags: W
HStem: -205 45<542 607> -20 20G<551 582> 219 78<226 524> 709 20G<432 552>
VStem: 452 75<-153 -94.5>
Fore
452 -130 m 0
 452 -81 488 -33 582 0 c 1
 551 0 l 1
 524 219 l 1
 226 219 l 1
 116 0 l 1
 17 0 l 1
 432 729 l 1
 552 729 l 1
 653 0 l 1
 564 -39 527 -73 527 -116 c 0
 527 -143 554 -160 595 -160 c 0
 619 -160 643 -157 663 -150 c 1
 654 -195 l 1
 612 -204 605 -205 582 -205 c 0
 502 -205 452 -176 452 -130 c 0
514 297 m 1
 474 630 l 1
 283 297 l 1
 514 297 l 1
EndSplineSet
EndChar
StartChar: aogonek
Encoding: 261 261 194
Width: 556
Flags: W
HStem: -205 45<449 515> -23 72<164 286> 462 77<316.5 446.5>
VStem: 65 88<65 179.5> 360 75<-152.5 -95.5> 410 87<54 80> 478 90<396 460>
Fore
372 462 m 0xf2
 261 462 241 388 235 369 c 1
 151 369 l 1
 170 480 255 539 394 539 c 0
 499 539 568 494 568 426 c 0xf2
 568 416 568 416 562 389 c 0
 498 88 l 1
 497 85 497 82 497 78 c 0xf4
 497 58 509 49 535 49 c 0
 539 49 543 49 552 51 c 1
 539 -14 l 1
 484 -27 435 -75 435 -116 c 0
 435 -143 462 -160 503 -160 c 0
 527 -160 551 -157 571 -150 c 1
 562 -195 l 1
 522 -204 513 -205 490 -205 c 0
 408 -205 360 -177 360 -128 c 0xf8
 360 -83 384 -56 455 -19 c 1
 425 -10 410 11 410 43 c 2
 410 54 l 1xf4
 384 32 330 -23 209 -23 c 0
 119 -23 65 25 65 105 c 0
 65 163 95 216 147 249 c 0
 283 335 451 259 473 361 c 2
 476 379 l 1
 477 387 478 394 478 398 c 0
 478 435 432 462 372 462 c 0xf2
451 258 m 1
 346 222 153 244 153 115 c 0
 153 73 185 49 242 49 c 0
 330 49 418 102 431 164 c 2
 451 258 l 1
EndSplineSet
EndChar
StartChar: Dcroat
Encoding: 272 272 205
Width: 722
Flags: W
HStem: 0 82<89 425> 341 67<106 176 255 422> 647 82<244 620.5>
VStem: 663 96<425.5 532.5>
Fore
526 729 m 2
 715 729 759 574 759 488 c 0
 759 363 711 217 643 134 c 0
 570 45 479 0 371 0 c 2
 89 0 l 1
 161 341 l 1
 93 341 l 1
 106 408 l 1
 176 408 l 1
 244 729 l 1
 526 729 l 2
255 341 m 1
 200 82 l 1
 372 82 l 2
 463 82 539 125 591 205 c 0
 631 268 663 389 663 480 c 0
 663 585 599 647 492 647 c 2
 321 647 l 1
 270 408 l 1
 436 408 l 1
 422 341 l 1
 255 341 l 1
EndSplineSet
EndChar
StartChar: dcroat
Encoding: 273 273 206
Width: 556
Flags: W
HStem: -23 77<192 356> 462 77<274 398> 600 53<400 550 622 684> 709 20G<566 650>
VStem: 73 88<111.5 272>
Fore
73 170 m 0
 73 374 193 539 363 539 c 0
 433 539 474 513 506 448 c 1
 538 600 l 1
 388 600 l 1
 400 653 l 1
 550 653 l 1
 566 729 l 1
 650 729 l 1
 634 653 l 1
 695 653 l 1
 684 600 l 1
 622 600 l 1
 495 0 l 1
 414 0 l 1
 430 76 l 1
 398 12 311 -23 244 -23 c 0
 140 -23 73 53 73 170 c 0
278 54 m 0
 434 54 473 263 473 327 c 0
 473 412 429 462 355 462 c 0
 193 462 161 245 161 190 c 0
 161 104 204 54 278 54 c 0
EndSplineSet
EndChar
StartChar: eogonek
Encoding: 281 281 214
Width: 556
Flags: W
HStem: -205 45<357.5 407.5> -23 77<220.5 329.5> 234 72<177 563> 462 77<259.5 443>
VStem: 84 88<119.5 209.5> 253 74<-158.5 -66> 492 88<334 416>
Fore
536 159 m 1
 496 11 327 -18 327 -114 c 0
 327 -141 355 -160 394 -160 c 0
 421 -160 446 -156 464 -150 c 1
 455 -195 l 1
 434 -202 416 -205 387 -205 c 0
 328 -205 253 -190 253 -127 c 0
 253 -86 276 -58 346 -16 c 1
 314 -22 300 -23 280 -23 c 0
 161 -23 84 66 84 173 c 0
 84 246 130 539 389 539 c 0
 497 539 580 464 580 368 c 0
 580 341 575 299 566 251 c 2
 563 234 l 1
 177 234 l 1
 173 219 172 209 172 188 c 0
 172 103 217 54 296 54 c 0
 363 54 416 90 452 159 c 1
 536 159 l 1
195 306 m 1
 489 306 l 1
 491 322 492 329 492 339 c 0
 492 414 447 462 376 462 c 0
 295 462 221 398 195 306 c 1
EndSplineSet
EndChar
StartChar: gcommaaccent
Encoding: 291 291 224
Width: 527
Flags: W
HStem: -218 72<126.5 269.5> -17 72<167 272> 462 77<218.5 388> 589 98<396 430>
VStem: 3 86<-129.5 -74> 45 88<113.5 212>
Fore
340 539 m 0xf4
 436 539 470 466 479 446 c 1
 496 524 l 1
 572 524 l 1
 479 85 l 2
 434 -125 359 -218 180 -218 c 0
 73 -218 3 -168 3 -91 c 0
 3 -87 3 -81 4 -73 c 0
 5 -60 l 1
 89 -60 l 1
 89 -74 l 2xf8
 89 -119 129 -146 197 -146 c 0
 303 -146 357 -92 386 44 c 2
 390 63 l 1
 340 10 281 -17 218 -17 c 0
 116 -17 45 59 45 168 c 0
 45 242 97 539 340 539 c 0xf4
334 462 m 0
 164 462 133 240 133 184 c 0xf4
 133 105 175 55 242 55 c 0
 302 55 361 93 394 154 c 0
 422 203 440 277 440 339 c 0
 440 414 398 462 334 462 c 0
430 589 m 1
 330 589 l 1
 350 682 l 2
 368 764 415 813 478 813 c 1
 470 775 l 1
 431 775 407 746 396 687 c 1
 451 687 l 1
 430 589 l 1
EndSplineSet
EndChar
StartChar: Hbar
Encoding: 294 294 227
Width: 722
Flags: W
HStem: 0 21G<6 100 474 567> 332 82<170 562> 504 72<206 596> 709 20G<160 253 628 721>
Fore
206 504 m 1
 187 414 l 1
 562 414 l 1
 581 504 l 1
 206 504 l 1
128 576 m 1
 160 729 l 1
 253 729 l 1
 221 576 l 1
 596 576 l 1
 628 729 l 1
 721 729 l 1
 689 576 l 1
 733 576 l 1
 718 506 l 1
 674 506 l 1
 567 0 l 1
 474 0 l 1
 544 332 l 1
 170 332 l 1
 100 0 l 1
 6 0 l 1
 113 506 l 1
 69 506 l 1
 84 576 l 1
 128 576 l 1
EndSplineSet
EndChar
StartChar: hbar
Encoding: 295 295 228
Width: 556
Flags: W
HStem: 0 21G<-7 76 326 409> 466 73<274 402> 600 53<68 131 203 353> 709 20G<147 230>
VStem: 406 90<388.5 464>
Fore
214 653 m 1
 364 653 l 1
 353 600 l 1
 203 600 l 1
 172 452 l 1
 234 516 284 539 358 539 c 0
 446 539 496 498 496 430 c 0
 496 419 495 408 493 396 c 2
 409 0 l 1
 326 0 l 1
 403 363 l 2
 405 374 406 384 406 393 c 0
 406 441 363 466 317 466 c 0
 231 466 160 396 137 289 c 2
 76 0 l 1
 -7 0 l 1
 120 600 l 1
 57 600 l 1
 68 653 l 1
 131 653 l 1
 147 729 l 1
 230 729 l 1
 214 653 l 1
EndSplineSet
EndChar
StartChar: dotlessi
Encoding: 305 305 238
Width: 278
Flags: W
HStem: 0 21G<94 178> 504 20G<205 289>
Fore
289 524 m 1
 178 0 l 1
 94 0 l 1
 205 524 l 1
 289 524 l 1
EndSplineSet
EndChar
StartChar: jcircumflex
Encoding: 309 309 242
Width: 222
HStem: -218 72<-50.5 11.5> 504 20G<180 264>
Fore
180 524 m 1
 264 524 l 1
 130 -109 l 1
 112 -191 69 -218 -46 -218 c 0
 -55 -218 -58 -217 -65 -215 c 1
 -50 -144 l 1
 -32 -146 -30 -146 -25 -146 c 0
 26 -146 41 -132 53 -76 c 2
 180 524 l 1
228 828 m 1
 323 828 l 1
 387 678 l 1
 324 678 l 1
 268 777 l 1
 164 678 l 1
 100 678 l 1
 228 828 l 1
EndSplineSet
EndChar
StartChar: kgreenlandic
Encoding: 312 312 245
Width: 510
Flags: W
HStem: 0 21G<70 153 411 514> 504 20G<181 264 486 593>
Fore
264 524 m 1
 217 302 l 1
 486 524 l 1
 593 524 l 1
 266 264 l 1
 514 0 l 1
 411 0 l 1
 199 216 l 1
 153 0 l 1
 70 0 l 1
 181 524 l 1
 264 524 l 1
EndSplineSet
EndChar
StartChar: Lslash
Encoding: 321 321 254
Width: 556
Flags: W
HStem: 0 82<100 552> 709 20G<255 349>
Fore
261 315 m 1
 211 82 l 1
 570 82 l 1
 552 0 l 1
 100 0 l 1
 158 276 l 1
 75 225 l 1
 92 304 l 1
 175 355 l 1
 255 729 l 1
 349 729 l 1
 278 394 l 1
 474 512 l 1
 457 433 l 1
 261 315 l 1
EndSplineSet
EndChar
StartChar: lslash
Encoding: 322 322 255
Width: 222
Flags: W
HStem: 0 21G<67 151> 709 20G<222 306>
Fore
239 414 m 1
 312 456 l 1
 298 389 l 1
 225 347 l 1
 151 0 l 1
 67 0 l 1
 134 314 l 1
 62 270 l 1
 76 337 l 1
 149 382 l 1
 222 729 l 1
 306 729 l 1
 239 414 l 1
EndSplineSet
EndChar
StartChar: Eng
Encoding: 330 330 263
Width: 722
Flags: W
HStem: -218 73<390.5 444> 0 21G<22 110> 709 20G<177 278 659 747>
Fore
532 133 m 1
 659 729 l 1
 747 729 l 1
 569 -109 l 2
 553 -180 491 -218 397 -218 c 0
 384 -218 380 -217 370 -215 c 1
 385 -144 l 1
 402 -145 402 -145 405 -145 c 0
 456 -145 476 -128 488 -76 c 2
 498 -27 l 1
 235 591 l 1
 110 0 l 1
 22 0 l 1
 177 729 l 1
 278 729 l 1
 532 133 l 1
EndSplineSet
EndChar
StartChar: eng
Encoding: 331 331 264
Width: 556
Flags: W
HStem: -218 73<257.5 311> 0 21G<36 120> 466 73<318 445>
VStem: 450 91<385 463>
Fore
537 396 m 2
 430 -109 l 2
 415 -180 358 -218 264 -218 c 0
 251 -218 246 -217 236 -215 c 1
 251 -144 l 1
 268 -145 268 -145 271 -145 c 0
 322 -145 343 -128 354 -76 c 2
 447 363 l 2
 449 372 450 381 450 389 c 0
 450 437 417 466 361 466 c 0
 275 466 204 396 181 289 c 2
 120 0 l 1
 36 0 l 1
 147 524 l 1
 224 524 l 1
 206 436 l 1
 267 509 323 539 401 539 c 0
 489 539 541 497 541 429 c 0
 541 418 539 407 537 396 c 2
EndSplineSet
EndChar
StartChar: OE
Encoding: 338 338 271
Width: 1000
Flags: W
HStem: -23 81<262.5 394> 0 82<523 957> 327 82<687 1013> 647 82<678 1091> 660 81<436.5 537.5>
VStem: 101 96<146 289>
Fore
687 327 m 1x34
 634 82 l 1
 974 82 l 1
 957 0 l 1
 523 0 l 1x74
 539 77 l 1
 482 7 419 -23 332 -23 c 0
 193 -23 101 73 101 219 c 0
 101 359 158 529 235 616 c 0
 304 693 404 741 496 741 c 0xac
 579 741 631 714 662 653 c 1
 678 729 l 1
 1108 729 l 1
 1091 647 l 1
 755 647 l 1
 704 409 l 1
 1031 409 l 1
 1013 327 l 1
 687 327 l 1x34
562 182 m 1
 638 539 l 1
 619 621 568 660 480 660 c 0
 393 660 320 613 269 523 c 0
 229 454 197 318 197 222 c 0
 197 120 256 58 352 58 c 0xac
 436 58 505 99 562 182 c 1
EndSplineSet
EndChar
StartChar: oe
Encoding: 339 339 272
Width: 944
Flags: W
HStem: -23 77<198.5 343 610.5 727.5> 234 72<563 949> 462 77<258 428 723 829>
VStem: 85 88<130 259.5> 487 69<139 374> 878 88<333 416>
Fore
85 165 m 0
 85 247 130 539 386 539 c 0
 470 539 529 503 558 436 c 1
 601 495 693 539 775 539 c 0
 883 539 966 464 966 368 c 0
 966 341 961 299 952 251 c 2
 949 234 l 1
 563 234 l 1
 558 208 556 196 556 176 c 0
 556 102 605 54 683 54 c 0
 749 54 802 90 838 159 c 1
 922 159 l 1
 890 50 788 -23 667 -23 c 0
 554 -23 505 51 491 84 c 1
 441 17 362 -23 275 -23 c 0
 122 -23 85 95 85 165 c 0
285 54 m 0
 401 54 487 176 487 334 c 0
 487 414 443 462 371 462 c 0
 261 462 173 338 173 181 c 0
 173 103 216 54 285 54 c 0
581 306 m 1
 875 306 l 1
 877 320 878 328 878 338 c 0
 878 414 833 462 764 462 c 0
 682 462 607 398 581 306 c 1
EndSplineSet
EndChar
StartChar: Scedilla
Encoding: 350 350 283
Width: 667
Flags: W
HStem: -214 43<244 305> -22 80<289.5 417.5> 660 81<415 578.5>
VStem: 89 92<111.5 197.5> 178 96<460.5 561.5> 330 78<-136.5 -91> 573 96<168.5 262> 622 92<547 604.5>
Fore
470 660 m 0xed
 360 660 274 605 274 518 c 0xed
 274 474 298 454 375 432 c 2
 547 383 l 2
 638 358 669 287 669 237 c 0
 669 165 616 78 545 32 c 0
 489 -4 422 -22 338 -22 c 1
 320 -56 l 1
 333 -54 336 -54 341 -54 c 0
 378 -54 408 -77 408 -105 c 0
 408 -168 347 -214 263 -214 c 0
 225 -214 197 -206 145 -180 c 1
 173 -142 l 1
 213 -163 239 -171 267 -171 c 0
 304 -171 330 -148 330 -116 c 0
 330 -104 315 -94 299 -94 c 0
 294 -94 278 -97 272 -98 c 1
 259 -92 l 1
 296 -22 l 1
 159 -4 89 54 89 169 c 0
 89 190 91 206 98 232 c 1
 185 232 l 1
 182 213 181 204 181 191 c 0
 181 100 233 58 346 58 c 0
 489 58 573 128 573 209 c 0xf6
 573 257 540 286 460 309 c 2
 289 357 l 2
 222 376 178 429 178 492 c 0
 178 543 209 614 250 656 c 0
 304 712 385 741 488 741 c 0
 669 741 714 638 714 571 c 0
 714 555 712 543 706 515 c 1
 618 515 l 1
 621 535 622 543 622 551 c 0
 622 633 558 660 470 660 c 0xed
EndSplineSet
EndChar
StartChar: scedilla
Encoding: 351 351 284
Width: 500
Flags: W
HStem: -214 43<161 222> -23 77<227.5 322.5> 462 77<285 405>
VStem: 61 93<69 134> 123 88<314.5 397.5> 247 78<-136.5 -91> 406 88<135 203.5> 431 90<378 456>
Fore
340 462 m 0xed
 261 462 211 419 211 367 c 0xed
 211 341 240 321 296 307 c 2
 372 288 l 2
 461 266 494 234 494 173 c 0
 494 97 453 -14 255 -23 c 1
 237 -56 l 1
 250 -54 253 -54 258 -54 c 0
 295 -54 325 -77 325 -105 c 0
 325 -168 264 -214 180 -214 c 0
 142 -214 113 -206 62 -180 c 1
 90 -142 l 1
 130 -163 156 -171 184 -171 c 0
 221 -171 247 -148 247 -116 c 0
 247 -104 233 -94 216 -94 c 0
 211 -94 195 -97 189 -98 c 1
 176 -92 l 1
 214 -22 l 1
 112 -9 61 33 61 105 c 0
 61 121 63 133 67 156 c 1
 156 156 l 1
 155 146 154 137 154 131 c 0
 154 81 193 54 262 54 c 0
 383 54 406 131 406 150 c 0xf6
 406 194 354 204 335 209 c 2
 261 228 l 2
 158 255 123 284 123 345 c 0
 123 450 214 539 356 539 c 0
 454 539 521 491 521 421 c 0
 521 409 519 399 514 378 c 1
 431 378 l 1
 431 400 l 2
 431 440 398 462 340 462 c 0xed
EndSplineSet
EndChar
StartChar: Tbar
Encoding: 358 358 291
Width: 611
Flags: W
HStem: 0 21G<184 277> 357 72<134 260 353 493> 647 82<98 670>
Fore
118 357 m 1
 134 429 l 1
 275 429 l 1
 321 647 l 1
 81 647 l 1
 98 729 l 1
 670 729 l 1
 653 647 l 1
 414 647 l 1
 368 429 l 1
 509 429 l 1
 493 357 l 1
 353 357 l 1
 277 0 l 1
 184 0 l 1
 260 357 l 1
 118 357 l 1
EndSplineSet
EndChar
StartChar: tbar
Encoding: 359 359 292
Width: 278
Flags: W
HStem: -23 73<85 164> 240 72<7 82 150 229> 456 68<57 128 211 282>
Fore
297 524 m 1
 282 456 l 1
 196 456 l 1
 166 312 l 1
 245 312 l 1
 229 240 l 1
 150 240 l 1
 120 97 l 2
 118 89 117 81 117 76 c 0
 117 56 128 50 156 50 c 0
 172 50 185 51 197 54 c 1
 182 -16 l 1
 153 -21 133 -23 113 -23 c 0
 57 -23 27 -1 27 39 c 0
 27 46 28 53 29 60 c 2
 67 240 l 1
 -9 240 l 1
 7 312 l 1
 82 312 l 1
 113 456 l 1
 42 456 l 1
 57 524 l 1
 128 524 l 1
 158 668 l 1
 241 668 l 1
 211 524 l 1
 297 524 l 1
EndSplineSet
EndChar
StartChar: Uogonek
Encoding: 370 370 303
Width: 722
Flags: W
HStem: -205 45<445 510.5> -23 81<293 437.5> 709 20G<240 334 706 800>
VStem: 124 96<101.5 180> 356 75<-152 -100>
Fore
366 -23 m 0
 220 -23 124 48 124 155 c 0
 124 170 131 218 138 251 c 2
 240 729 l 1
 334 729 l 1
 225 217 l 1
 222 201 220 187 220 173 c 0
 220 104 285 58 381 58 c 0
 494 58 576 118 597 217 c 2
 706 729 l 1
 800 729 l 1
 691 217 l 1
 668 121 623 66 514 -6 c 0
 462 -40 431 -84 431 -116 c 0
 431 -142 457 -160 497 -160 c 0
 524 -160 549 -156 568 -150 c 1
 559 -195 l 1
 537 -203 519 -205 487 -205 c 0
 403 -205 356 -177 356 -127 c 0
 356 -84 388 -46 453 -13 c 1
 415 -21 397 -23 366 -23 c 0
EndSplineSet
EndChar
StartChar: uogonek
Encoding: 371 371 304
Width: 556
Flags: W
HStem: -205 45<383.5 443> -23 72<183 310.5> 504 20G<177 261 510 594>
VStem: 88 91<52 130> 304 74<-151 -92>
Fore
594 524 m 1
 483 0 l 1
 456 -15 378 -69 378 -115 c 0
 378 -140 403 -160 433 -160 c 0
 453 -160 478 -156 495 -150 c 1
 486 -195 l 1
 465 -202 446 -205 419 -205 c 0
 348 -205 304 -175 304 -127 c 0
 304 -79 348 -33 427 0 c 1
 407 0 l 1
 419 57 l 1
 361 1 304 -23 226 -23 c 0
 140 -23 88 18 88 86 c 0
 88 99 89 110 91 120 c 2
 177 524 l 1
 261 524 l 1
 182 153 l 2
 180 143 179 134 179 126 c 0
 179 79 214 49 268 49 c 0
 353 49 424 119 447 227 c 2
 510 524 l 1
 594 524 l 1
EndSplineSet
EndChar
StartChar: longs
Encoding: 383 383 316
Width: 278
Flags: W
HStem: 0 21G<89 173> 457 67<130 200> 660 72<329.5 376>
Fore
173 0 m 1
 89 0 l 1
 186 457 l 1
 116 457 l 1
 130 524 l 1
 200 524 l 1
 219 613 l 2
 235 687 291 732 368 732 c 0
 384 732 395 731 413 727 c 1
 398 658 l 1
 384 660 378 660 371 660 c 0
 328 660 310 643 299 593 c 2
 173 0 l 1
EndSplineSet
EndChar
StartChar: florin
Encoding: 402 402 317
Width: 278
Flags: W
HStem: -218 72<-30.5 31.5> 457 67<130 200 284 356> 660 72<329.5 376>
Fore
370 524 m 1
 356 457 l 1
 270 457 l 1
 150 -109 l 2
 132 -191 89 -218 -26 -218 c 0
 -35 -218 -38 -217 -45 -215 c 1
 -30 -144 l 1
 -12 -146 -10 -146 -5 -146 c 0
 46 -146 61 -132 73 -76 c 2
 186 457 l 1
 116 457 l 1
 130 524 l 1
 200 524 l 5
 219 613 l 6
 235 687 291 732 368 732 c 4
 384 732 395 731 413 727 c 5
 398 658 l 5
 384 660 378 660 371 660 c 4
 328 660 310 643 299 593 c 6
 284 524 l 5
 370 524 l 1
EndSplineSet
EndChar
StartChar: kappa
Encoding: 954 954 381
Width: 516
Flags: W
HStem: 0 21G<1 89 323 431>
Fore
431 0 m 1
 323 0 l 1
 217 266 l 1
 140 206 l 1
 89 0 l 1
 1 0 l 1
 130 518 l 1
 218 518 l 1
 166 308 l 1
 426 518 l 1
 540 518 l 1
 294 326 l 1
 431 0 l 1
EndSplineSet
EndChar
StartChar: lambda
Encoding: 955 955 382
Width: 560
Flags: W
HStem: -10 83<366.5 435> 646 86<181 275>
Fore
430 73 m 0
 440 73 464 81 467 84 c 1
 469 14 l 1
 434 -2 405 -10 383 -10 c 0
 350 -10 330 6 326 38 c 0
 326 41 321 68 321 68 c 1
 292 304 l 1
 287 348 287 387 287 422 c 1
 257 368 235 322 219 302 c 2
 36 2 l 1
 -60 2 l 1
 268 522 l 1
 266 542 l 2
 259 629 237 646 191 646 c 0
 171 646 135 638 135 638 c 1
 166 720 l 1
 189 728 209 732 224 732 c 0
 326 732 335 657 350 530 c 2
 400 120 l 1
 407 92 l 2
 410 79 417 73 430 73 c 0
EndSplineSet
EndChar
StartChar: uni03BC
Encoding: 956 956 383
Width: 607
Flags: W
HStem: -10 74<219 303.5> 0 79<445 508.5>
Fore
171 167 m 0x80
 171 110 210 64 274 64 c 0x80
 333 64 410 101 435 208 c 2
 512 518 l 1
 598 518 l 1
 507 152 l 2
 500 124 497 104 497 93 c 0
 498 84 502 79 508 79 c 0
 509 79 512 80 516 81 c 1
 528 21 l 1
 506 8 492 0 470 0 c 0x40
 420 0 407 28 407 74 c 1
 370 25 311 -10 253 -10 c 0
 185 -10 153 23 140 62 c 1
 75 -200 l 1
 -13 -200 l 1
 166 518 l 1
 254 518 l 1
 177 208 l 1
 173 193 171 180 171 167 c 0x80
EndSplineSet
EndChar
StartChar: nu
Encoding: 957 957 384
Width: 504
Flags: W
HStem: 0 21G<145 227>
Fore
552 518 m 1
 227 0 l 1
 145 0 l 1
 78 518 l 1
 170 518 l 1
 205 208 l 2
 209 165 211 117 211 104 c 1
 241 157 l 2
 252 176 262 191 269 202 c 2
 462 518 l 1
 552 518 l 1
EndSplineSet
EndChar
StartChar: xi
Encoding: 958 958 385
Width: 470
Flags: W
HStem: 0 70<176 276> 340 64<227 404> 648 70<152 524>
VStem: -10 90<103 202.5> 120 78<466 509.5> 288 83<-43.5 26>
Fore
214 70 m 0
 338 70 371 56 371 -4 c 0
 371 -37 356 -91 289 -194 c 1
 222 -166 l 1
 273 -86 288 -57 288 -30 c 0
 288 -6 271 0 204 0 c 2
 185 0 l 2
 20 0 -10 76 -10 130 c 0
 -10 235 72 356 213 376 c 1
 129 388 120 456 120 476 c 0
 120 543 171 619 235 648 c 1
 135 648 l 1
 152 718 l 1
 524 718 l 1
 507 648 l 1
 341 648 l 2
 251 648 198 527 198 489 c 0
 198 455 219 404 338 404 c 2
 420 404 l 1
 404 340 l 1
 294 340 l 2
 160 340 80 239 80 166 c 0
 80 108 138 70 214 70 c 0
EndSplineSet
EndChar
StartChar: omicron
Encoding: 959 959 386
Width: 550
Flags: W
HStem: -12 74<133 315.5> 458 72<206 384.5>
VStem: 21 92<128.5 212> 438 93<292 425.5>
AnchorPoint: "1 Top" 392 640 basechar 0
Fore
343 530 m 0
 426 530 531 495 531 356 c 0
 531 228 459 78 342 20 c 0
 299 -1 254 -12 208 -12 c 0
 58 -12 21 90 21 167 c 0
 21 240 69 530 343 530 c 0
226 62 m 0
 405 62 438 285 438 342 c 0
 436 393 415 458 325 458 c 0
 155 458 113 243 113 181 c 0
 113 129 136 62 226 62 c 0
EndSplineSet
EndChar
StartChar: pi
Encoding: 960 960 387
Width: 661
Flags: W
HStem: -4 68<455.5 529.5> 450 70<119 671>
VStem: 408 94<31.5 83>
Fore
523 64 m 0
 536 64 552 72 556 76 c 1
 556 14 l 1
 527 4 494 -4 478 -4 c 0
 433 -4 408 8 408 55 c 0
 408 71 411 91 417 114 c 2
 501 450 l 1
 265 450 l 1
 153 0 l 1
 59 -2 l 1
 172 450 l 1
 102 450 l 1
 119 520 l 1
 671 520 l 1
 653 450 l 1
 589 450 l 1
 506 116 l 1
 504 102 502 91 502 75 c 0
 503 68 510 64 523 64 c 0
EndSplineSet
EndChar
StartChar: rho
Encoding: 961 961 388
Width: 566
Flags: W
HStem: -10 74<226.5 357.5> 460 72<286 465>
VStem: 486 93<305.5 392.5>
Fore
389 532 m 0
 541 532 579 430 579 355 c 0
 579 287 554 102 374 15 c 0
 341 -2 301 -10 254 -10 c 0
 226 -10 152 -5 119 61 c 1
 54 -200 l 1
 -34 -200 l 1
 83 270 l 2
 131 461 267 532 389 532 c 0
272 64 m 0
 443 64 486 273 486 338 c 0
 486 434 420 460 371 460 c 0
 201 460 158 248 158 182 c 0
 158 132 181 64 272 64 c 0
EndSplineSet
EndChar
StartChar: sigma1
Encoding: 962 962 389
Width: 535
Flags: W
HStem: 458 78<202 345>
VStem: 22 96<187 355> 403 97<-44.5 17.5>
Fore
22 276 m 0
 22 434 126 536 278 536 c 0
 412 536 501 451 501 324 c 1
 410 324 l 1
 410 383 382 458 270 458 c 0
 209 458 118 421 118 274 c 0
 118 117 231 100 364 87 c 0
 435 77 500 63 500 -28 c 0
 500 -61 477 -123 452 -182 c 1
 362 -150 l 1
 373 -125 403 -54 403 -34 c 0
 403 7 295 -10 216 12 c 0
 169 24 22 98 22 276 c 0
EndSplineSet
EndChar
StartChar: sigma
Encoding: 963 963 390
Width: 616
Flags: W
HStem: -12 74<133 335.5> 458 72<206 370>
VStem: 21 92<128.5 212> 438 89<294 352.5>
Fore
21 167 m 0
 21 240 69 530 343 530 c 0
 362 530 379 529 392 526 c 1
 656 526 l 1
 636 444 l 1
 500 444 l 1
 518 409 527 372 527 333 c 0
 527 255 463 -12 208 -12 c 0
 58 -12 21 90 21 167 c 0
226 62 m 0
 405 62 438 285 438 342 c 0
 436 393 415 458 325 458 c 0
 155 458 113 243 113 181 c 0
 113 129 136 62 226 62 c 0
EndSplineSet
EndChar
StartChar: tau
Encoding: 964 964 391
Width: 532
Flags: W
HStem: -4 84<222 304.5> 450 68<107 559>
Fore
300 80 m 0
 309 80 328 83 334 85 c 1
 333 6 l 1
 317 2 280 -4 263 -4 c 0
 181 -4 166 24 166 86 c 0
 168 99 172 119 178 144 c 2
 254 450 l 1
 90 450 l 1
 107 518 l 1
 559 518 l 1
 542 450 l 1
 342 450 l 1
 268 152 l 2
 262 127 260 111 260 104 c 0
 265 85 274 80 300 80 c 0
EndSplineSet
EndChar
StartChar: upsilon
Encoding: 965 965 392
Width: 515
Flags: W
HStem: -14 76<138 279>
VStem: 12 94<59 143.5>
AnchorPoint: "1 Top" 350 640 basechar 0
Fore
106 133 m 0
 106 96 129 62 212 62 c 0
 346 62 366 154 385 232 c 2
 456 518 l 1
 544 518 l 1
 464 198 l 2
 427 43 352 -14 196 -14 c 0
 80 -14 12 10 12 108 c 0
 12 130 17 160 26 198 c 0
 106 518 l 1
 194 518 l 1
 123 232 l 2
 112 187 106 154 106 133 c 0
EndSplineSet
EndChar
StartChar: phi
Encoding: 966 966 393
Width: 741
Flags: W
HStem: -10 81<234 291 399 511.5> 432 90<489 598>
VStem: 61 87<101.5 258> 642 87<253.5 363>
Fore
511 522 m 2
 685 522 729 404 729 322 c 0
 729 185 612 -10 411 -10 c 2
 379 -10 l 1
 331 -200 l 1
 243 -200 l 1
 291 -10 l 1
 269 -10 l 2
 187 -10 61 19 61 184 c 0
 70 388 231 485 294 514 c 1
 319 446 l 1
 224 393 148 305 148 211 c 0
 148 157 177 71 291 71 c 2
 311 71 l 1
 423 522 l 1
 511 522 l 2
423 71 m 2
 598 71 642 251 642 306 c 0
 642 356 615 432 509 432 c 2
 489 432 l 1
 399 71 l 1
 423 71 l 2
EndSplineSet
EndChar
StartChar: chi
Encoding: 967 967 394
Width: 572
Flags: W
HStem: -212 85<428 473.5> 458 80<114 198.5>
Fore
482 -200 m 1
 463 -208 445 -212 428 -212 c 2
 420 -212 l 2
 383 -212 346 -185 327 -123 c 2
 279 74 l 1
 27 -200 l 1
 -77 -200 l 1
 247 160 l 1
 163 420 l 2
 154 449 145 458 114 458 c 0
 103 455 95 454 89 454 c 1
 109 532 l 1
 118 534 160 538 166 538 c 0
 231 538 244 494 249 478 c 2
 319 234 l 1
 543 518 l 1
 639 518 l 1
 355 160 l 1
 423 -91 l 2
 433 -127 452 -127 466 -127 c 0
 481 -127 500 -122 502 -121 c 1
 482 -200 l 1
EndSplineSet
EndChar
StartChar: psi
Encoding: 968 968 395
Width: 662
Flags: W
HStem: -2 74<162.5 266 334 406>
VStem: 46 95<114.5 168>
Fore
248 -2 m 1
 77 -2 46 84 46 145 c 0
 46 166 49 189 55 214 c 2
 131 518 l 1
 221 518 l 1
 152 242 l 1
 146 213 142 189 141 168 c 0
 141 110 169 72 266 72 c 1
 373 500 l 1
 459 500 l 1
 352 72 l 1
 460 72 521 117 550 242 c 2
 619 518 l 1
 709 518 l 1
 633 214 l 2
 615 141 579 86 527 51 c 0
 475 16 411 -2 334 -2 c 1
 284 -200 l 1
 198 -200 l 1
 248 -2 l 1
EndSplineSet
EndChar
StartChar: omega
Encoding: 969 969 396
Width: 740
Flags: W
HStem: -9 72<104 181 399.5 527.5>
VStem: 20 84<109.5 237> 627 84<241 358.5>
Fore
659 526 m 1
 702 483 710 384 711 348 c 0
 711 134 589 35 534 10 c 0
 508 -3 479 -9 448 -9 c 0
 351 -9 332 59 326 81 c 1
 264 -1 197 -9 160 -9 c 0
 48 -9 20 76 20 143 c 0
 20 316 150 483 215 526 c 1
 289 500 l 1
 229 453 104 316 104 158 c 0
 104 87 133 63 181 63 c 0
 258 67 292 112 302 153 c 2
 358 376 l 1
 442 376 l 1
 386 153 l 2
 384 146 384 139 384 132 c 0
 388 72 422 65 462 63 c 0
 593 63 627 268 627 323 c 0
 627 394 609 447 573 500 c 1
 659 526 l 1
EndSplineSet
EndChar
StartChar: afii10051
Encoding: 1026 1026 404
Width: 766
Flags: W
HStem: -147 65<389 536> 0 21G<166 259> 372 82<338 642> 648 80<121 611>
VStem: 632 91<324 357.5>
Fore
588 454 m 2
 696 454 723 383 723 332 c 0
 723 316 721 303 719 297 c 2
 654 0 l 2
 646 -38 615 -147 457 -147 c 2
 456 -147 l 1
 375 -148 l 1
 389 -82 l 1
 488 -82 l 2
 523 -82 550 -60 559 -16 c 2
 630 315 l 2
 631 320 632 325 632 329 c 0
 632 355 613 369 576 372 c 2
 338 372 l 1
 259 0 l 1
 166 0 l 1
 303 648 l 1
 104 648 l 1
 121 728 l 1
 611 728 l 1
 594 648 l 1
 397 648 l 1
 356 454 l 1
 588 454 l 2
EndSplineSet
EndChar
StartChar: afii10053
Encoding: 1028 1028 406
Width: 722
Flags: W
HStem: -23 82<185 388.5> 332 82<136 502> 659 82<371 539.5>
VStem: 35 95<195.5 323> 598 95<503 593>
Fore
598 503 m 1
 598 595 566 659 434 659 c 0
 308 659 205 567 156 414 c 1
 520 414 l 1
 502 332 l 1
 136 332 l 1
 132 307 130 283 130 261 c 0
 130 135 197 59 314 59 c 0
 463 59 526 169 561 266 c 1
 657 266 l 1
 594 73 474 -23 296 -23 c 0
 74 -23 35 142 35 249 c 0
 35 397 103 553 212 650 c 0
 279 710 364 741 462 741 c 0
 617 741 693 668 693 518 c 0
 693 503 l 1
 598 503 l 1
EndSplineSet
EndChar
StartChar: afii10056
Encoding: 1031 1031 409
Width: 278
Flags: W
HStem: 0 21G<100 194> 709 20G<255 349> 804 103<202 284 363 445>
Fore
349 729 m 1
 194 0 l 1
 100 0 l 1
 255 729 l 1
 349 729 l 1
306 907 m 1
 284 804 l 1
 180 804 l 1
 202 907 l 1
 306 907 l 1
467 907 m 1
 445 804 l 1
 341 804 l 1
 363 907 l 1
 467 907 l 1
EndSplineSet
EndChar
StartChar: afii10058
Encoding: 1033 1033 411
Width: 968
Flags: W
HStem: 0 82<437 834> 333 82<600 839.5> 647 82<271 684>
VStem: 899 91<197.5 297>
Fore
990 238 m 0
 990 181 938 0 730 0 c 2
 437 0 l 1
 573 647 l 1
 348 647 l 1
 294 393 224 0 6 0 c 1
 26 94 l 1
 160 94 233 544 263 689 c 2
 271 729 l 1
 684 729 l 1
 618 415 l 1
 762 415 l 2
 764 415 l 0
 915 415 990 356 990 238 c 0
899 240 m 0
 899 277 883 333 791 333 c 2
 600 333 l 1
 547 82 l 1
 738 82 l 2
 836 82 899 155 899 240 c 0
EndSplineSet
EndChar
StartChar: afii10059
Encoding: 1034 1034 412
Width: 1173
Flags: W
HStem: 0 82<473 906> 332 82<170 561> 709 20G<160 253 627 720>
VStem: 971 91<198 293>
Fore
1062 237 m 0
 1062 183 1010 0 802 0 c 2
 473 0 l 1
 543 332 l 1
 170 332 l 1
 100 0 l 1
 6 0 l 1
 160 729 l 1
 253 729 l 1
 187 414 l 1
 561 414 l 1
 627 729 l 1
 720 729 l 1
 654 415 l 1
 834 415 l 2
 837 415 l 0
 999 415 1062 349 1062 237 c 0
971 237 m 0
 971 278 955 333 863 333 c 2
 636 333 l 1
 583 82 l 1
 810 82 l 2
 911 82 971 159 971 237 c 0
EndSplineSet
EndChar
StartChar: afii10060
Encoding: 1035 1035 413
Width: 766
Flags: W
HStem: 0 21G<151 244 548 641> 372 82<323 626.5> 648 80<105 595>
VStem: 616 92<324 357.5>
Fore
572 454 m 2
 681 454 708 383 708 332 c 0
 708 316 705 303 704 297 c 2
 641 0 l 1
 548 0 l 1
 615 315 l 2
 616 320 616 325 616 329 c 0
 616 355 598 369 561 372 c 2
 323 372 l 1
 244 0 l 1
 151 0 l 1
 287 648 l 1
 88 648 l 1
 105 728 l 1
 595 728 l 1
 578 648 l 1
 381 648 l 1
 340 454 l 1
 572 454 l 2
EndSplineSet
EndChar
StartChar: afii10145
Encoding: 1039 1039 417
Width: 722
Flags: W
HStem: 0 82<194 644> 709 20G<238 332 705 799>
Fore
332 0 m 1
 83 0 l 1
 238 729 l 1
 332 729 l 1
 194 82 l 1
 567 82 l 1
 705 729 l 1
 799 729 l 1
 644 0 l 1
 412 0 l 1
 383 -135 l 1
 303 -135 l 1
 332 0 l 1
EndSplineSet
EndChar
StartChar: afii10018
Encoding: 1041 1041 419
Width: 639
Flags: W
HStem: 0 82<79 512> 333 82<243 524> 647 82<234 706>
VStem: 578 90<196 293.5>
Fore
668 238 m 0
 668 182 616 0 408 0 c 2
 79 0 l 1
 234 729 l 1
 723 729 l 1
 706 647 l 1
 310 647 l 1
 260 415 l 1
 440 415 l 2
 443 415 l 0
 605 415 668 349 668 238 c 0
578 238 m 0
 578 277 561 333 470 333 c 2
 243 333 l 1
 189 82 l 1
 416 82 l 2
 514 82 578 154 578 238 c 0
EndSplineSet
EndChar
StartChar: afii10020
Encoding: 1043 1043 421
Width: 611
Flags: W
HStem: 0 21G<90 183> 647 82<245 717>
Fore
183 0 m 1
 90 0 l 1
 245 729 l 1
 734 729 l 1
 717 647 l 1
 321 647 l 1
 183 0 l 1
EndSplineSet
EndChar
StartChar: afii10021
Encoding: 1044 1044 422
Width: 816
Flags: W
HStem: 0 74<140 168> 0 82<305 636 724 724> 647 82<418 868>
Fore
305 82 m 1x60
 636 82 l 1
 756 647 l 1
 494 647 l 1
 459 481 419 215 305 82 c 1x60
168 74 m 1xa0
 305 132 353 424 418 729 c 1
 868 729 l 1
 729 74 l 1
 820 74 l 1xa0
 775 -135 l 1
 695 -135 l 1
 724 0 l 1x60
 140 0 l 1
 111 -135 l 1
 31 -135 l 1
 76 74 l 1
 168 74 l 1xa0
EndSplineSet
EndChar
StartChar: afii10024
Encoding: 1046 1046 424
Width: 897
Flags: W
HStem: 0 21G<22 132 418 511 797 907> 709 20G<215 335 573 666 904 1024>
Fore
487 324 m 1
 132 0 l 1
 22 0 l 1
 427 375 l 1
 215 729 l 1
 335 729 l 1
 508 421 l 1
 573 729 l 1
 666 729 l 1
 601 421 l 1
 904 729 l 1
 1024 729 l 1
 662 375 l 1
 907 0 l 1
 797 0 l 1
 580 324 l 1
 511 0 l 1
 418 0 l 1
 487 324 l 1
EndSplineSet
EndChar
StartChar: afii10025
Encoding: 1047 1047 425
Width: 652
Flags: W
HStem: -23 82<216.5 418.5> 321 82<324 458> 663 78<392 545.5>
VStem: 71 90<122.5 195> 552 97<169 271> 602 93<522.5 627.5>
Fore
161 188 m 0xf8
 161 135 187 59 336 59 c 0
 474 59 552 130 552 208 c 0xf8
 552 261 501 321 415 321 c 2
 307 321 l 1
 324 403 l 1
 412 403 l 2
 493 403 602 480 602 565 c 0
 602 625 549 663 462 663 c 0
 346 663 270 610 249 515 c 1
 161 515 l 1
 192 658 308 741 476 741 c 0
 615 741 695 679 695 576 c 0xf4
 695 500 660 417 552 374 c 1
 616 348 649 302 649 240 c 0
 649 102 524 -23 313 -23 c 0
 120 -23 71 83 71 162 c 0
 71 182 74 205 79 232 c 1
 167 232 l 1
 163 216 161 202 161 188 c 0xf8
EndSplineSet
EndChar
StartChar: afii10026
Encoding: 1048 1048 426
Width: 731
Flags: W
HStem: 0 21G<83 188 565 653> 709 20G<238 326 707 808>
Fore
238 729 m 1
 326 729 l 1
 199 133 l 1
 707 729 l 1
 808 729 l 1
 653 0 l 1
 565 0 l 1
 691 591 l 1
 188 0 l 1
 83 0 l 1
 238 729 l 1
EndSplineSet
EndChar
StartChar: afii10027
Encoding: 1049 1049 427
Width: 731
Flags: W
HStem: 0 21G<83 188 565 653> 709 20G<238 326 707 808> 793 72<500.5 580.5>
VStem: 411 58<862.5 928>
Fore
717 928 m 1
 692 826 610 793 538 793 c 0
 463 793 411 833 411 892 c 0
 411 901 412 909 416 928 c 1
 469 928 l 1
 469 915 l 2
 469 885 502 865 551 865 c 0
 610 865 651 888 661 928 c 1
 717 928 l 1
238 729 m 1
 326 729 l 1
 199 133 l 1
 707 729 l 1
 808 729 l 1
 653 0 l 1
 565 0 l 1
 691 591 l 1
 188 0 l 1
 83 0 l 1
 238 729 l 1
EndSplineSet
EndChar
StartChar: afii10028
Encoding: 1050 1050 428
Width: 664
Flags: W
HStem: 0 21G<79 172 548 658> 709 20G<234 327 690 810>
Fore
172 0 m 1
 79 0 l 1
 234 729 l 1
 327 729 l 1
 260 414 l 1
 690 729 l 1
 810 729 l 1
 323 375 l 1
 658 0 l 1
 548 0 l 1
 241 324 l 1
 172 0 l 1
EndSplineSet
EndChar
StartChar: afii10029
Encoding: 1051 1051 429
Width: 646
Flags: W
HStem: 0 21G<473 567> 647 82<271 721>
Fore
610 647 m 1
 348 647 l 1
 300 422 233 0 6 0 c 1
 26 94 l 1
 151 94 207 424 271 729 c 1
 721 729 l 1
 567 0 l 1
 473 0 l 1
 610 647 l 1
EndSplineSet
EndChar
StartChar: afii10033
Encoding: 1055 1055 433
Width: 722
Flags: W
HStem: 0 21G<83 177 550 644> 647 82<238 799>
Fore
688 647 m 1
 315 647 l 1
 177 0 l 1
 83 0 l 1
 238 729 l 1
 799 729 l 1
 644 0 l 1
 550 0 l 1
 688 647 l 1
EndSplineSet
EndChar
StartChar: afii10037
Encoding: 1059 1059 437
Width: 530
Flags: W
HStem: 0 21G<22 135> 709 20G<64 177 546 657>
Fore
135 0 m 1
 22 0 l 1
 203 244 l 1
 64 729 l 1
 177 729 l 1
 281 350 l 1
 546 729 l 1
 657 729 l 1
 135 0 l 1
EndSplineSet
EndChar
StartChar: afii10038
Encoding: 1060 1060 438
Width: 891
Flags: W
HStem: 0 21G<380 474> 94 94<334.5 419 494 567.5> 541 94<416.5 494 589 637> 709 20G<535 629>
VStem: 99 103<197.5 323> 809 104<374.5 539.5>
Fore
399 94 m 1
 270 94 99 105 99 290 c 0
 99 315 102 343 109 375 c 0
 161 621 347 635 486 635 c 0
 495 635 505 635 514 635 c 1
 535 729 l 1
 629 729 l 1
 609 635 l 1
 618 635 628 635 637 635 c 0
 759 635 913 624 913 455 c 0
 913 431 910 405 904 375 c 0
 847 108 641 94 494 94 c 1
 474 0 l 1
 380 0 l 1
 399 94 l 1
419 188 m 1
 494 541 l 1
 421 540 246 550 209 375 c 0
 204 352 202 332 202 314 c 0
 202 199 297 187 371 187 c 0
 389 187 405 188 419 188 c 1
562 187 m 0
 763 187 809 330 809 419 c 0
 809 548 655 540 589 541 c 1
 514 188 l 1
 528 188 544 187 562 187 c 0
EndSplineSet
EndChar
StartChar: afii10040
Encoding: 1062 1062 440
Width: 722
Flags: W
HStem: 0 82<83 656> 709 20G<238 332 705 799>
Fore
567 82 m 1
 705 729 l 1
 799 729 l 1
 660 74 l 1
 752 74 l 1
 707 -135 l 1
 627 -135 l 1
 656 0 l 1
 83 0 l 1
 238 729 l 1
 332 729 l 1
 194 82 l 1
 567 82 l 1
EndSplineSet
EndChar
StartChar: afii10041
Encoding: 1063 1063 441
Width: 642
Flags: W
HStem: 0 21G<443 536> 302 82<222 524> 709 20G<220 313 598 691>
Fore
507 302 m 1
 222 302 l 2
 176 302 144 320 144 363 c 0
 144 369 144 376 146 383 c 0
 220 729 l 1
 313 729 l 1
 239 384 l 1
 524 384 l 1
 598 729 l 1
 691 729 l 1
 536 0 l 1
 443 0 l 1
 507 302 l 1
EndSplineSet
EndChar
StartChar: afii10042
Encoding: 1064 1064 442
Width: 836
Flags: W
HStem: 0 82<60 730> 709 20G<215 309 503 597 791 885>
Fore
459 82 m 1
 653 82 l 1
 791 729 l 1
 885 729 l 1
 730 0 l 1
 60 0 l 1
 215 729 l 1
 309 729 l 1
 171 82 l 1
 365 82 l 1
 503 729 l 1
 597 729 l 1
 459 82 l 1
EndSplineSet
EndChar
StartChar: afii10043
Encoding: 1065 1065 443
Width: 837
Flags: W
HStem: 0 82<60 742> 709 20G<215 309 503 597 791 885>
Fore
742 0 m 1
 60 0 l 1
 215 729 l 1
 309 729 l 1
 171 82 l 1
 365 82 l 1
 503 729 l 1
 597 729 l 1
 459 82 l 1
 653 82 l 1
 791 729 l 1
 885 729 l 1
 746 74 l 1
 838 74 l 1
 793 -135 l 1
 713 -135 l 1
 742 0 l 1
EndSplineSet
EndChar
StartChar: afii10044
Encoding: 1066 1066 444
Width: 866
Flags: W
HStem: 0 82<251 684.5> 333 82<415 697> 647 82<175 499>
VStem: 750 91<197 293>
Fore
841 237 m 0
 841 183 789 0 580 0 c 2
 251 0 l 1
 388 647 l 1
 158 647 l 1
 175 729 l 1
 499 729 l 1
 433 415 l 1
 613 415 l 2
 616 415 l 0
 778 415 841 349 841 237 c 0
750 239 m 0
 750 279 734 333 642 333 c 2
 415 333 l 1
 362 82 l 1
 589 82 l 2
 687 82 750 155 750 239 c 0
EndSplineSet
EndChar
StartChar: afii10045
Encoding: 1067 1067 445
Width: 886
Flags: W
HStem: 0 82<83 516> 333 82<247 528> 709 20G<238 331 869 963>
VStem: 582 90<196 293.5>
Fore
963 729 m 1
 808 0 l 1
 714 0 l 1
 869 729 l 1
 963 729 l 1
672 238 m 0
 672 182 620 0 412 0 c 2
 83 0 l 1
 238 729 l 1
 331 729 l 1
 264 415 l 1
 444 415 l 2
 447 415 l 0
 609 415 672 349 672 238 c 0
582 238 m 0
 582 277 565 333 474 333 c 2
 247 333 l 1
 193 82 l 1
 420 82 l 2
 518 82 582 154 582 238 c 0
EndSplineSet
EndChar
StartChar: afii10046
Encoding: 1068 1068 446
Width: 698
Flags: W
HStem: 0 82<83 516.5> 333 82<247 529> 709 20G<238 331>
VStem: 582 91<197 293>
Fore
673 237 m 0
 673 183 621 0 412 0 c 2
 83 0 l 1
 238 729 l 1
 331 729 l 1
 265 415 l 1
 445 415 l 2
 448 415 l 0
 610 415 673 349 673 237 c 0
582 239 m 0
 582 279 566 333 474 333 c 2
 247 333 l 1
 194 82 l 1
 421 82 l 2
 519 82 582 155 582 239 c 0
EndSplineSet
EndChar
StartChar: afii10047
Encoding: 1069 1069 447
Width: 717
Flags: W
HStem: -23 82<264.5 431> 332 82<307 671> 659 82<424 616>
VStem: 104 98<134 236.5> 673 94<387.5 522>
Fore
202 231 m 0
 202 131 240 59 362 59 c 0
 500 59 613 164 656 332 c 1
 290 332 l 1
 307 414 l 1
 671 414 l 1
 673 429 673 444 673 459 c 0
 673 585 610 659 497 659 c 0
 359 659 302 586 267 503 c 1
 172 503 l 1
 235 663 344 741 504 741 c 0
 728 741 767 575 767 465 c 0
 767 310 694 154 586 62 c 0
 518 4 440 -23 345 -23 c 0
 184 -23 104 55 104 213 c 0
 104 230 105 247 107 266 c 1
 203 266 l 1
 202 254 202 242 202 231 c 0
EndSplineSet
EndChar
StartChar: afii10048
Encoding: 1070 1070 448
Width: 1079
Flags: W
HStem: -23 82<596.5 779> 332 82<224 429> 659 82<750.5 935.5>
VStem: 403 94<171.5 286.5> 1034 95<381 547.5>
Fore
409 332 m 1
 224 332 l 1
 154 0 l 1
 60 0 l 1
 215 729 l 1
 308 729 l 1
 241 414 l 1
 429 414 l 1
 492 611 655 741 846 741 c 0
 1025 741 1129 634 1129 461 c 0
 1129 301 1049 141 927 54 c 0
 858 4 773 -23 685 -23 c 0
 508 -23 403 86 403 257 c 0
 403 281 405 306 409 332 c 1
829 659 m 0
 675 659 545 539 507 359 c 0
 501 329 497 300 497 273 c 0
 497 142 573 59 702 59 c 0
 856 59 987 179 1024 355 c 0
 1031 387 1034 417 1034 445 c 0
 1034 577 960 659 829 659 c 0
EndSplineSet
EndChar
StartChar: afii10049
Encoding: 1071 1071 449
Width: 691
Flags: W
HStem: 0 21G<22 132 520 613> 314 82<377 604> 647 82<335 768>
VStem: 179 90<439.5 533>
Fore
179 491 m 0
 179 547 231 729 439 729 c 2
 768 729 l 1
 613 0 l 1
 520 0 l 1
 587 314 l 1
 476 314 l 1
 132 0 l 1
 22 0 l 1
 362 315 l 1
 232 321 179 388 179 491 c 0
269 491 m 0
 269 452 286 396 377 396 c 2
 604 396 l 1
 658 647 l 1
 431 647 l 2
 333 647 269 575 269 491 c 0
EndSplineSet
EndChar
StartChar: afii10066
Encoding: 1073 1073 451
Width: 556
Flags: W
HStem: -23 77<199 361.5> 462 77<277.5 439>
VStem: 72 89<108 212> 477 89<247 410>
Fore
566 349 m 0
 566 145 439 -23 260 -23 c 0
 138 -23 72 47 72 169 c 0
 72 196 75 226 82 258 c 0
 121 442 195 664 330 690 c 0
 387 701 536 703 552 775 c 1
 626 776 l 1
 595 621 490 654 360 611 c 0
 310 594 292 558 263 514 c 1
 298 530 337 539 378 539 c 0
 500 539 566 471 566 349 c 0
276 54 m 0
 447 54 477 276 477 329 c 0
 477 414 437 462 363 462 c 0
 192 462 161 237 161 187 c 0
 161 103 202 54 276 54 c 0
EndSplineSet
EndChar
StartChar: afii10067
Encoding: 1074 1074 452
Width: 538
Flags: W
HStem: 0 76<70 409.5> 231 76<203 355> 449 76<182 475>
VStem: 435 89<155 205.5> 459 89<375 442.5>
Fore
524 184 m 0xf0
 524 147 486 0 333 0 c 2
 70 0 l 1
 182 525 l 1
 421 525 l 2
 529 525 548 462 548 423 c 0xe8
 548 335 483 291 451 277 c 1
 501 256 524 227 524 184 c 0xf0
459 393 m 0
 459 415 441 449 368 449 c 2
 250 449 l 1
 219 307 l 1
 337 307 l 2
 435 307 459 357 459 393 c 0
435 184 m 0xf0
 435 208 404 231 355 231 c 2
 203 231 l 1
 170 76 l 1
 322 76 l 2
 391 76 435 126 435 184 c 0xf0
EndSplineSet
EndChar
StartChar: afii10068
Encoding: 1075 1075 453
Width: 430
Flags: W
HStem: 0 21G<70 154> 448 76<181 460>
Fore
181 524 m 1
 476 524 l 1
 460 448 l 1
 249 448 l 1
 154 0 l 1
 70 0 l 1
 181 524 l 1
EndSplineSet
EndChar
StartChar: afii10069
Encoding: 1076 1076 454
Width: 640
Flags: W
HStem: 0 76<196 417 479 479> 0 64<77 78> 448 76<257 596>
Fore
78 64 m 1x60
 149 71 208 292 257 524 c 1
 596 524 l 1
 499 64 l 1
 563 64 l 1x60
 524 -120 l 1
 454 -120 l 1
 479 0 l 1xa0
 77 0 l 1
 52 -120 l 1
 -18 -120 l 1
 21 64 l 1
 78 64 l 1x60
196 76 m 1xa0
 417 76 l 1
 496 448 l 1
 324 448 l 1
 303 341 270 173 196 76 c 1xa0
EndSplineSet
EndChar
StartChar: afii10072
Encoding: 1078 1078 456
Width: 818
Flags: W
HStem: 0 21G<17 120 378 461 719 822> 504 20G<160 267 489 572 794 901>
Fore
424 216 m 1
 120 0 l 1
 17 0 l 1
 377 264 l 1
 160 524 l 1
 267 524 l 1
 442 302 l 1
 489 524 l 1
 572 524 l 1
 525 302 l 1
 794 524 l 1
 901 524 l 1
 574 264 l 1
 822 0 l 1
 719 0 l 1
 507 216 l 1
 461 0 l 1
 378 0 l 1
 424 216 l 1
EndSplineSet
EndChar
StartChar: afii10073
Encoding: 1079 1079 457
Width: 495
Flags: W
HStem: -23 77<177 317> 221 76<253 361.5> 462 77<288.5 402.5>
VStem: 60 92<64.5 135.5> 396 95<122.5 197.5> 432 88<366.5 452>
Fore
259 54 m 0xf8
 375 54 396 127 396 148 c 0xf8
 396 183 364 221 311 221 c 2
 237 221 l 1
 253 297 l 1
 315 297 l 2
 408 297 432 375 432 398 c 0
 432 437 396 462 336 462 c 0
 269 462 227 433 213 378 c 1
 125 378 l 1
 148 481 228 539 349 539 c 0
 456 539 520 491 520 413 c 0xf4
 520 320 455 281 427 267 c 1
 470 246 491 218 491 177 c 0
 491 68 391 -23 236 -23 c 0
 118 -23 60 20 60 109 c 0
 60 123 62 139 65 156 c 1
 153 156 l 1
 152 147 152 139 152 132 c 0
 152 66 213 54 259 54 c 0xf8
EndSplineSet
EndChar
StartChar: afii10074
Encoding: 1080 1080 458
Width: 560
Flags: W
HStem: 0 21G<70 169 404 487> 504 20G<181 265 500 598>
Fore
181 524 m 1
 265 524 l 1
 177 111 l 1
 500 524 l 1
 598 524 l 1
 487 0 l 1
 404 0 l 1
 491 413 l 1
 169 0 l 1
 70 0 l 1
 181 524 l 1
EndSplineSet
EndChar
StartChar: afii10075
Encoding: 1081 1081 459
Width: 560
Flags: W
HStem: 0 21G<70 169 404 487> 504 20G<181 265 500 598> 594 72<378.5 458.5> 709 20G<294 347 539 595>
VStem: 289 58<663.5 729>
Fore
595 729 m 1
 570 627 488 594 416 594 c 0
 341 594 289 634 289 693 c 0
 289 702 290 710 294 729 c 1
 347 729 l 1
 347 716 l 2
 347 686 380 666 429 666 c 0
 488 666 529 689 539 729 c 1
 595 729 l 1
181 524 m 1
 265 524 l 1
 177 111 l 1
 500 524 l 1
 598 524 l 1
 487 0 l 1
 404 0 l 1
 491 413 l 1
 169 0 l 1
 70 0 l 1
 181 524 l 1
EndSplineSet
EndChar
StartChar: afii10076
Encoding: 1082 1082 460
Width: 510
Flags: W
HStem: 0 21G<70 153 411 514> 504 20G<181 264 486 593>
Fore
264 524 m 1
 217 302 l 1
 486 524 l 1
 593 524 l 1
 266 264 l 1
 514 0 l 1
 411 0 l 1
 199 216 l 1
 153 0 l 1
 70 0 l 1
 181 524 l 1
 264 524 l 1
EndSplineSet
EndChar
StartChar: afii10077
Encoding: 1083 1083 461
Width: 556
Flags: W
HStem: 0 21G<347 431> 448 76<204 543>
Fore
204 524 m 1
 543 524 l 1
 431 0 l 1
 347 0 l 1
 443 448 l 1
 271 448 l 1
 238 292 180 0 14 0 c 1
 31 80 l 1
 111 80 154 292 204 524 c 1
EndSplineSet
EndChar
StartChar: afii10078
Encoding: 1084 1084 462
Width: 621
Flags: W
HStem: 0 21G<70 154 464 548> 504 20G<181 265 575 659>
Fore
181 524 m 1
 265 524 l 1
 354 213 l 1
 575 524 l 1
 659 524 l 1
 548 0 l 1
 464 0 l 1
 538 348 l 1
 352 86 l 1
 302 86 l 1
 228 348 l 1
 154 0 l 1
 70 0 l 1
 181 524 l 1
EndSplineSet
EndChar
StartChar: afii10079
Encoding: 1085 1085 463
Width: 561
Flags: W
HStem: 0 21G<70 154 404 488> 233 76<203 469> 504 20G<181 265 515 599>
Fore
181 524 m 1
 265 524 l 1
 219 309 l 1
 469 309 l 1
 515 524 l 1
 599 524 l 1
 488 0 l 1
 404 0 l 1
 453 233 l 1
 203 233 l 1
 154 0 l 1
 70 0 l 1
 181 524 l 1
EndSplineSet
EndChar
StartChar: afii10081
Encoding: 1087 1087 465
Width: 560
Flags: W
HStem: 0 21G<70 154 403 487> 448 76<181 598>
Fore
181 524 m 1
 598 524 l 1
 487 0 l 1
 403 0 l 1
 498 448 l 1
 249 448 l 1
 154 0 l 1
 70 0 l 1
 181 524 l 1
EndSplineSet
EndChar
StartChar: afii10084
Encoding: 1090 1090 468
Width: 400
Flags: W
HStem: 0 21G<149 233> 448 76<116 488>
Fore
116 524 m 1
 488 524 l 1
 472 448 l 1
 328 448 l 1
 233 0 l 1
 149 0 l 1
 244 448 l 1
 100 448 l 1
 116 524 l 1
EndSplineSet
EndChar
StartChar: afii10086
Encoding: 1092 1092 470
Width: 916
Flags: W
HStem: -23 78<190.5 357.5 619 774> 461 78<285 404.5 662.5 827>
VStem: 71 91<106 224.5> 476 67<148 369> 857 89<291.5 407>
Fore
946 347 m 0
 946 273 895 -23 653 -23 c 0
 585 -23 541 1 508 55 c 1
 450 -218 l 1
 367 -218 l 1
 426 60 l 1
 375 3 320 -23 247 -23 c 0
 134 -23 71 47 71 165 c 0
 71 192 74 221 81 252 c 0
 118 426 232 539 370 539 c 0
 439 539 490 502 508 445 c 1
 557 674 l 1
 640 674 l 1
 591 445 l 1
 633 506 700 539 771 539 c 0
 883 539 946 467 946 347 c 0
654 55 m 0
 816 55 857 260 857 323 c 0
 857 409 815 461 741 461 c 0
 584 461 543 251 543 190 c 0
 543 106 584 55 654 55 c 0
279 55 m 0
 436 55 476 263 476 327 c 0
 476 411 437 461 366 461 c 0
 204 461 162 256 162 193 c 0
 162 108 205 55 279 55 c 0
EndSplineSet
EndChar
StartChar: afii10088
Encoding: 1094 1094 472
Width: 560
Flags: W
HStem: 0 76<70 498> 504 20G<181 265 514 598>
Fore
70 0 m 1
 181 524 l 1
 265 524 l 1
 170 76 l 1
 419 76 l 1
 514 524 l 1
 598 524 l 1
 501 64 l 1
 581 64 l 1
 542 -120 l 1
 472 -120 l 1
 498 0 l 1
 70 0 l 1
EndSplineSet
EndChar
StartChar: afii10089
Encoding: 1095 1095 473
Width: 497
Flags: W
HStem: 0 21G<340 424> 223 76<166 403> 504 20G<172 256 451 535>
Fore
172 524 m 1
 256 524 l 1
 208 299 l 1
 403 299 l 1
 451 524 l 1
 535 524 l 1
 424 0 l 1
 340 0 l 1
 387 223 l 1
 192 223 l 2
 140 223 120 236 120 267 c 0
 120 275 122 285 124 296 c 0
 172 524 l 1
EndSplineSet
EndChar
StartChar: afii10090
Encoding: 1096 1096 474
Width: 695
Flags: W
HStem: 0 76<70 622> 504 20G<181 265 415 499 649 733>
Fore
404 76 m 1
 554 76 l 1
 649 524 l 1
 733 524 l 1
 622 0 l 1
 70 0 l 1
 181 524 l 1
 265 524 l 1
 170 76 l 1
 320 76 l 1
 415 524 l 1
 499 524 l 1
 404 76 l 1
EndSplineSet
EndChar
StartChar: afii10091
Encoding: 1097 1097 475
Width: 695
Flags: W
HStem: 0 76<70 632> 504 20G<181 265 415 499 649 733>
Fore
632 0 m 1
 70 0 l 1
 181 524 l 1
 265 524 l 1
 170 76 l 1
 320 76 l 1
 415 524 l 1
 499 524 l 1
 404 76 l 1
 554 76 l 1
 649 524 l 1
 733 524 l 1
 635 64 l 1
 715 64 l 1
 676 -120 l 1
 606 -120 l 1
 632 0 l 1
EndSplineSet
EndChar
StartChar: afii10092
Encoding: 1098 1098 476
Width: 640
Flags: W
HStem: 0 76<187 507.5> 231 76<320 522.5> 448 77<282 382>
VStem: 551 89<139.5 228.5>
Fore
640 188 m 0
 640 91 565 0 450 0 c 2
 187 0 l 1
 282 448 l 1
 99 448 l 1
 115 524 l 1
 382 525 l 1
 336 307 l 1
 454 307 l 2
 455 307 457 307 458 307 c 0
 587 307 640 269 640 188 c 0
551 184 m 0
 551 210 519 231 472 231 c 2
 320 231 l 1
 287 76 l 1
 439 76 l 2
 507 76 551 124 551 184 c 0
EndSplineSet
EndChar
StartChar: afii10093
Encoding: 1099 1099 477
Width: 734
Flags: W
HStem: 0 76<70 390.5> 231 76<203 405.5> 504 20G<689 772>
VStem: 434 89<139.5 228.5>
Fore
772 524 m 1
 661 0 l 1
 578 0 l 1
 689 524 l 1
 772 524 l 1
523 188 m 0
 523 91 448 0 333 0 c 2
 70 0 l 1
 181 525 l 1
 265 525 l 1
 219 307 l 1
 337 307 l 2
 338 307 340 307 341 307 c 0
 470 307 523 269 523 188 c 0
434 183 m 0
 434 209 403 231 355 231 c 2
 203 231 l 1
 170 76 l 1
 322 76 l 2
 390 76 434 125 434 183 c 0
EndSplineSet
EndChar
StartChar: afii10094
Encoding: 1100 1100 478
Width: 523
Flags: W
HStem: 0 76<70 390.5> 231 76<203 405.5> 505 20G<181 265>
VStem: 434 89<139.5 228.5>
Fore
523 188 m 0
 523 91 448 0 333 0 c 2
 70 0 l 1
 181 525 l 1
 265 525 l 1
 219 307 l 1
 337 307 l 2
 338 307 340 307 341 307 c 0
 470 307 523 269 523 188 c 0
434 184 m 0
 434 210 402 231 355 231 c 2
 203 231 l 1
 170 76 l 1
 322 76 l 2
 390 76 434 124 434 184 c 0
EndSplineSet
EndChar
StartChar: afii10095
Encoding: 1101 1101 479
Width: 534
Flags: W
HStem: -23 77<197.5 379> 233 76<242 453> 462 77<321 429.5>
VStem: 80 87<87.5 180> 467 87<303.5 402.5>
Fore
554 341 m 0
 554 266 505 -23 253 -23 c 0
 142 -23 80 36 80 139 c 0
 80 152 81 166 83 180 c 1
 167 180 l 1
 167 176 167 171 167 167 c 0
 167 92 201 54 268 54 c 0
 355 54 423 121 453 233 c 1
 227 232 l 1
 242 309 l 1
 466 309 l 1
 467 316 467 324 467 331 c 0
 467 414 428 462 356 462 c 0
 286 462 234 421 208 348 c 1
 124 348 l 1
 167 494 277 539 372 539 c 0
 487 539 554 464 554 341 c 0
EndSplineSet
EndChar
StartChar: afii10096
Encoding: 1102 1102 480
Width: 788
Flags: W
HStem: -23 77<443 620> 233 76<205 356> 462 77<537 699>
VStem: 331 90<125 212> 737 89<247 410>
Fore
826 349 m 0
 826 145 699 -23 519 -23 c 0
 367 -23 331 82 331 168 c 0
 331 192 334 215 338 233 c 1
 205 233 l 1
 154 0 l 1
 70 0 l 1
 182 524 l 1
 266 524 l 1
 221 309 l 1
 356 309 l 1
 366 357 443 539 638 539 c 0
 760 539 826 471 826 349 c 0
536 54 m 0
 704 54 737 272 737 330 c 0
 737 414 696 462 622 462 c 0
 452 462 421 237 421 187 c 0
 421 103 462 54 536 54 c 0
EndSplineSet
EndChar
StartChar: afii10097
Encoding: 1103 1103 481
Width: 564
Flags: W
HStem: 0 21G<16 119 406 490> 218 76<425 469> 449 76<260.5 602>
VStem: 149 89<299.5 371>
Fore
149 338 m 0
 149 378 182 525 339 525 c 2
 602 525 l 1
 490 0 l 1
 406 0 l 1
 453 218 l 1
 425 218 l 1
 119 0 l 1
 16 0 l 1
 313 219 l 1
 200 223 149 261 149 338 c 0
238 341 m 0
 238 316 269 294 317 294 c 2
 469 294 l 1
 502 449 l 1
 350 449 l 2
 281 449 238 401 238 341 c 0
EndSplineSet
EndChar
StartChar: afii10099
Encoding: 1106 1106 484
Width: 568
Flags: W
HStem: -163 41<172 213.5> 0 21G<42 125> 451 73<310.5 462> 596 64<98 182 252 423> 709 20G<197 280>
VStem: 451 91<372.5 437>
Fore
451 377 m 0
 451 422 415 451 362 451 c 0
 259 451 200 358 182 274 c 2
 125 0 l 1
 42 0 l 1
 169 596 l 1
 85 596 l 1
 98 660 l 1
 182 660 l 1
 197 729 l 1
 280 729 l 1
 265 660 l 1
 436 660 l 1
 423 596 l 1
 252 596 l 1
 217 437 l 1
 301 523 366 524 403 524 c 0
 521 524 542 459 542 415 c 0
 542 401 539 388 538 381 c 2
 478 106 l 1
 431 -71 250 -163 177 -163 c 0
 172 -163 167 -163 163 -162 c 1
 172 -122 l 1
 228 -120 365 -42 394 96 c 0
 448 348 l 2
 450 359 451 368 451 377 c 0
EndSplineSet
EndChar
StartChar: afii10101
Encoding: 1108 1108 486
Width: 500
Flags: W
HStem: -23 77<144.5 265.5> 233 76<113 132> 462 77<203.5 359>
VStem: 20 89<108.5 214.5> 407 86<360.5 451>
Fore
324 539 m 0
 394 539 493 510 493 392 c 0
 493 379 492 364 490 348 c 1
 406 348 l 1
 406 353 407 358 407 363 c 0
 407 427 371 462 306 462 c 0
 229 462 166 406 132 309 c 1
 356 309 l 1
 338 232 l 1
 113 233 l 1
 110 215 109 199 109 184 c 0
 109 102 149 54 222 54 c 0
 293 54 345 96 376 180 c 1
 460 180 l 1
 423 52 328 -23 203 -23 c 0
 86 -23 20 49 20 168 c 0
 20 261 83 539 324 539 c 0
EndSplineSet
EndChar
StartChar: afii10104
Encoding: 1111 1111 489
Width: 278
Flags: W
HStem: 0 21G<94 178> 507 20G<206 290> 605 103<154 236 315 397>
Fore
290 527 m 1
 178 0 l 1
 94 0 l 1
 206 527 l 1
 290 527 l 1
258 708 m 1
 236 605 l 1
 132 605 l 1
 154 708 l 1
 258 708 l 1
419 708 m 1
 397 605 l 1
 293 605 l 1
 315 708 l 1
 419 708 l 1
EndSplineSet
EndChar
StartChar: afii10106
Encoding: 1113 1113 491
Width: 840
Flags: W
HStem: 0 76<347 614> 234 76<481 610> 448 76<204 543>
VStem: 705 93<115.5 242.5>
Fore
31 80 m 1
 132 80 182 450 204 524 c 1
 543 524 l 1
 497 310 l 1
 610 310 l 2
 733 310 798 285 798 200 c 0
 798 31 635 0 593 0 c 2
 347 0 l 1
 443 448 l 1
 271 448 l 1
 228 244 168 0 14 0 c 1
 31 80 l 1
705 179 m 0
 705 208 685 234 605 234 c 2
 481 234 l 1
 447 76 l 1
 571 76 l 2
 641 76 681 88 697 135 c 1
 701 152 l 1
 704 162 705 171 705 179 c 0
EndSplineSet
EndChar
StartChar: afii10107
Encoding: 1114 1114 492
Width: 850
Flags: W
HStem: 0 76<348 615> 233 76<148 414> 504 20G<126 210 460 544>
VStem: 706 93<115.5 242.5>
Fore
799 200 m 0
 799 31 636 0 594 0 c 6
 348 0 l 5
 398 233 l 5
 148 233 l 1
 98 0 l 1
 14 0 l 1
 126 524 l 1
 210 524 l 1
 164 309 l 1
 414 309 l 5
 460 524 l 5
 544 524 l 5
 498 310 l 5
 611 310 l 6
 734 310 799 285 799 200 c 0
706 179 m 0
 706 208 686 234 606 234 c 6
 482 234 l 5
 448 76 l 5
 572 76 l 6
 642 76 682 88 698 135 c 5
 702 152 l 5
 705 162 706 171 706 179 c 0
EndSplineSet
EndChar
StartChar: afii10108
Encoding: 1115 1115 493
Width: 568
Flags: W
HStem: 0 21G<25 108 357 439> 451 73<293 445> 596 64<81 165 234 405> 709 20G<179 262>
VStem: 434 90<372.5 437>
Fore
434 377 m 0
 434 422 398 451 344 451 c 0
 242 451 183 358 165 274 c 2
 108 0 l 1
 25 0 l 1
 151 596 l 1
 67 596 l 1
 81 660 l 1
 165 660 l 1
 179 729 l 1
 262 729 l 1
 248 660 l 1
 419 660 l 1
 405 596 l 1
 234 596 l 1
 199 437 l 1
 284 523 349 524 386 524 c 0
 504 524 524 459 524 415 c 0
 524 401 522 388 521 381 c 2
 439 0 l 1
 357 0 l 1
 430 348 l 2
 433 359 434 368 434 377 c 0
EndSplineSet
EndChar
StartChar: afii10193
Encoding: 1119 1119 497
Width: 560
Flags: W
HStem: 0 76<170 487> 504 20G<181 265 514 598>
Fore
254 0 m 1
 70 0 l 1
 181 524 l 1
 265 524 l 1
 170 76 l 1
 419 76 l 1
 514 524 l 1
 598 524 l 1
 487 0 l 1
 323 0 l 1
 298 -120 l 1
 228 -120 l 1
 254 0 l 1
EndSplineSet
EndChar
StartChar: uni048C
Encoding: 1164 1164 498
Width: 698
Flags: W
HStem: 0 82<83 421> 333 82<247 529> 541 69<125 213 291 385> 709 20G<238 331>
VStem: 582 91<197 293>
Fore
582 239 m 0
 582 279 566 333 474 333 c 2
 247 333 l 1
 194 82 l 1
 421 82 l 2
 519 82 582 155 582 239 c 0
673 237 m 0
 673 183 621 0 412 0 c 2
 83 0 l 1
 198 541 l 1
 110 541 l 1
 125 610 l 1
 213 610 l 1
 238 729 l 1
 331 729 l 1
 306 610 l 1
 400 610 l 1
 385 541 l 1
 291 541 l 1
 265 415 l 1
 445 415 l 2
 448 415 l 0
 610 415 673 349 673 237 c 0
EndSplineSet
EndChar
StartChar: uni048D
Encoding: 1165 1165 499
Width: 523
Flags: W
HStem: 0 76<70 333> 231 76<203 405.5> 380 69<71 165 234 331> 505 20G<181 265>
VStem: 434 89<139.5 228.5>
Fore
434 184 m 0
 434 210 402 231 355 231 c 2
 203 231 l 1
 170 76 l 1
 322 76 l 2
 390 76 434 124 434 184 c 0
523 188 m 0
 523 91 448 0 333 0 c 2
 70 0 l 1
 150 380 l 1
 56 380 l 1
 71 449 l 1
 165 449 l 1
 181 525 l 1
 265 525 l 1
 249 449 l 1
 346 449 l 1
 331 380 l 1
 234 380 l 1
 219 307 l 1
 337 307 l 2
 338 307 340 307 341 307 c 0
 470 307 523 269 523 188 c 0
EndSplineSet
EndChar
StartChar: uni048E
Encoding: 1166 1166 500
Width: 667
Flags: W
HStem: 0 21G<91 184> 309 82<250 479> 647 82<246 607.5>
VStem: 634 99<532 625.5>
Fore
590 441 m 1
 617 469 634 512 634 552 c 0
 634 612 592 647 516 647 c 2
 322 647 l 1
 267 391 l 1
 461 391 l 2
 487 391 510 395 531 403 c 1
 472 462 l 1
 532 500 l 1
 590 441 l 1
733 576 m 0
 733 503 705 428 652 379 c 1
 726 305 l 1
 667 267 l 1
 596 338 l 1
 560 319 522 309 479 309 c 2
 250 309 l 1
 184 0 l 1
 91 0 l 1
 246 729 l 1
 547 729 l 2
 668 729 733 675 733 576 c 0
EndSplineSet
EndChar
StartChar: uni048F
Encoding: 1167 1167 501
Width: 556
Flags: W
HStem: -23 78<259 324> 461 78<303 468>
VStem: 497 90<283.5 407>
Fore
381 461 m 0
 225 461 184 253 184 190 c 0
 184 106 225 55 295 55 c 0
 335 55 373 71 404 98 c 1
 332 171 l 1
 391 209 l 1
 449 151 l 1
 467 180 497 245 497 322 c 0
 497 408 455 461 381 461 c 0
587 347 m 0
 587 291 571 179 507 93 c 1
 586 14 l 1
 526 -24 l 1
 461 42 l 1
 413 0 355 -23 293 -23 c 0
 225 -23 182 1 149 55 c 1
 91 -218 l 1
 7 -218 l 1
 165 524 l 1
 242 524 l 1
 225 445 l 1
 277 507 341 539 412 539 c 0
 524 539 587 467 587 347 c 0
EndSplineSet
EndChar
StartChar: afii10050
Encoding: 1168 1168 502
Width: 611
Flags: W
HStem: 0 21G<2 95> 647 82<157 233>
Fore
95 0 m 1
 2 0 l 1
 157 729 l 1
 553 728 l 1
 574 825 l 1
 667 825 l 1
 629 647 l 1
 233 647 l 1
 95 0 l 1
EndSplineSet
EndChar
StartChar: afii10098
Encoding: 1169 1169 503
Width: 430
Flags: W
HStem: 0 21G<3 87> 448 76<115 393>
Fore
115 524 m 1
 326 524 l 1
 348 629 l 1
 432 629 l 1
 393 448 l 1
 182 448 l 1
 87 0 l 1
 3 0 l 1
 115 524 l 1
EndSplineSet
EndChar
StartChar: uni0492
Encoding: 1170 1170 504
Width: 611
Flags: W
HStem: 0 21G<90 183> 435 69<107 197 276 367> 647 82<245 717>
Fore
290 504 m 1
 382 504 l 1
 367 435 l 1
 276 435 l 1
 183 0 l 1
 90 0 l 1
 182 435 l 1
 92 435 l 1
 107 504 l 1
 197 504 l 1
 245 729 l 1
 734 729 l 1
 717 647 l 1
 321 647 l 1
 290 504 l 1
EndSplineSet
EndChar
StartChar: uni0493
Encoding: 1171 1171 505
Width: 430
Flags: W
HStem: 0 21G<70 154> 292 69<59 146 216 319> 448 76<181 460>
Fore
146 361 m 1
 181 524 l 1
 476 524 l 1
 460 448 l 1
 249 448 l 1
 231 361 l 1
 334 361 l 1
 319 292 l 1
 216 292 l 1
 154 0 l 1
 70 0 l 1
 132 292 l 1
 44 292 l 1
 59 361 l 1
 146 361 l 1
EndSplineSet
EndChar
StartChar: uni0494
Encoding: 1172 1172 506
Width: 611
Flags: W
HStem: -140 82<317 432> 0 21G<90 183> 365 82<261 438> 647 82<245 717>
VStem: 509 93<293 347.5>
Fore
183 0 m 1
 90 0 l 1
 245 729 l 1
 734 729 l 1
 717 647 l 1
 320 647 l 1
 278 447 l 1
 438 447 l 2
 548 447 602 388 602 307 c 0
 602 294 601 279 597 264 c 2
 541 0 l 2
 524 -77 487 -140 377 -140 c 2
 294 -140 l 1
 317 -58 l 1
 359 -58 l 2
 424 -58 439 -28 448 10 c 2
 505 267 l 2
 508 278 509 288 509 298 c 0
 509 338 486 365 420 365 c 2
 261 365 l 1
 183 0 l 1
EndSplineSet
EndChar
StartChar: uni0495
Encoding: 1173 1173 507
Width: 430
Flags: W
HStem: 0 21G<70 154> 237 72<204 310> 448 76<181 460>
VStem: 356 89<146 222.5>
Fore
204 237 m 1
 154 0 l 1
 70 0 l 1
 181 524 l 1
 476 524 l 1
 460 448 l 1
 249 448 l 1
 220 309 l 1
 310 309 l 2
 394 309 445 262 445 183 c 0
 445 171 444 159 441 146 c 2
 410 0 l 2
 392 -85 360 -126 233 -126 c 1
 245 -71 l 1
 296 -71 316 -48 326 0 c 2
 350 113 l 2
 356 140 356 140 356 152 c 0
 356 203 322 237 271 237 c 2
 204 237 l 1
EndSplineSet
EndChar
StartChar: uni0496
Encoding: 1174 1174 508
Width: 897
Flags: W
HStem: -20 20G<797 827> 709 20G<215 335 573 666 904 1024>
Fore
859 74 m 1
 923 74 l 1
 878 -135 l 1
 798 -135 l 1
 827 0 l 1
 797 0 l 1
 580 324 l 1
 511 0 l 1
 418 0 l 1
 487 324 l 1
 132 0 l 1
 22 0 l 1
 427 375 l 1
 215 729 l 1
 335 729 l 1
 508 421 l 1
 573 729 l 1
 666 729 l 1
 601 421 l 1
 904 729 l 1
 1024 729 l 1
 662 375 l 1
 859 74 l 1
EndSplineSet
EndChar
StartChar: uni0497
Encoding: 1175 1175 509
Width: 818
Flags: W
HStem: -20 20G<719 753> 504 20G<160 267 489 572 794 901>
Fore
762 64 m 1
 836 64 l 1
 797 -120 l 1
 727 -120 l 1
 753 0 l 1
 719 0 l 1
 507 216 l 1
 461 0 l 1
 378 0 l 1
 424 216 l 1
 120 0 l 1
 17 0 l 1
 377 264 l 1
 160 524 l 1
 267 524 l 1
 442 302 l 1
 489 524 l 1
 572 524 l 1
 525 302 l 1
 794 524 l 1
 901 524 l 1
 574 264 l 1
 762 64 l 1
EndSplineSet
EndChar
StartChar: uni0498
Encoding: 1176 1176 510
Width: 652
Flags: W
HStem: -205 45<271.5 334.5> 321 82<324 458> 663 78<392 545.5>
VStem: 71 90<106.5 195> 351 75<-153.5 -89.5> 552 97<157.5 271> 602 93<525 627.5>
Fore
351 -116 m 0xfc
 351 -63 290 -32 268 -21 c 1
 152 -9 71 51 71 162 c 0
 71 182 74 205 79 232 c 1
 167 232 l 1
 163 216 161 202 161 188 c 0
 161 101 229 59 336 59 c 0
 459 59 552 117 552 208 c 0xfc
 552 261 501 321 415 321 c 2
 307 321 l 1
 324 403 l 1
 412 403 l 2
 504 403 602 485 602 565 c 0
 602 625 549 663 462 663 c 0
 346 663 270 610 249 515 c 1
 161 515 l 1
 192 658 308 741 476 741 c 0
 615 741 695 679 695 576 c 0xfa
 695 476 635 407 552 374 c 1
 616 348 649 302 649 240 c 0
 649 75 526 -12 347 -22 c 1
 367 -34 l 2
 405 -59 426 -93 426 -130 c 0
 426 -177 377 -205 292 -205 c 0
 264 -205 245 -202 224 -195 c 1
 215 -150 l 1
 233 -156 258 -160 285 -160 c 0
 324 -160 351 -142 351 -116 c 0xfc
EndSplineSet
EndChar
StartChar: uni0499
Encoding: 1177 1177 511
Width: 495
Flags: W
HStem: -205 45<197.5 260.5> 221 76<253 351> 462 77<288.5 402.5>
VStem: 60 92<71 135.5> 277 75<-153.5 -89.5> 396 95<114 189.5> 432 88<367 452>
Fore
152 132 m 0xfc
 152 66 213 54 259 54 c 0
 332 54 396 93 396 148 c 0xfc
 396 183 364 221 311 221 c 2
 237 221 l 1
 253 297 l 1
 315 297 l 2
 387 297 432 344 432 390 c 0
 432 429 396 462 336 462 c 0
 269 462 227 433 213 378 c 1
 125 378 l 1
 148 481 228 539 349 539 c 0
 456 539 520 491 520 413 c 0xfa
 520 347 483 295 427 267 c 1
 470 246 491 210 491 169 c 0
 491 59 402 -11 272 -22 c 1
 293 -34 l 2
 331 -59 352 -93 352 -130 c 0
 352 -177 303 -205 218 -205 c 0
 190 -205 171 -202 150 -195 c 1
 141 -150 l 1
 159 -156 184 -160 211 -160 c 0
 250 -160 277 -142 277 -116 c 0
 277 -63 216 -32 194 -21 c 1
 104 -11 60 33 60 109 c 0
 60 123 62 139 65 156 c 1
 153 156 l 1
 152 147 152 139 152 132 c 0xfc
EndSplineSet
EndChar
StartChar: uni049A
Encoding: 1178 1178 512
Width: 664
Flags: W
HStem: -20 20G<548 578> 709 20G<234 327 690 810>
Fore
592 74 m 1
 674 74 l 1
 629 -135 l 1
 549 -135 l 1
 578 0 l 1
 548 0 l 1
 241 324 l 1
 172 0 l 1
 79 0 l 1
 234 729 l 1
 327 729 l 1
 260 414 l 1
 690 729 l 1
 810 729 l 1
 323 375 l 1
 592 74 l 1
EndSplineSet
EndChar
StartChar: uni049B
Encoding: 1179 1179 513
Width: 510
Flags: W
HStem: -20 20G<411 444> 504 20G<181 264 486 593>
Fore
454 64 m 1
 527 64 l 1
 488 -120 l 1
 418 -120 l 1
 444 0 l 1
 411 0 l 1
 199 216 l 1
 153 0 l 1
 70 0 l 1
 181 524 l 1
 264 524 l 1
 217 302 l 1
 486 524 l 1
 593 524 l 1
 266 264 l 1
 454 64 l 1
EndSplineSet
EndChar
StartChar: uni049C
Encoding: 1180 1180 514
Width: 664
Flags: W
HStem: 0 21G<79 172 548 667> 709 20G<234 327 690 810>
Fore
297 265 m 1
 241 324 l 1
 172 0 l 1
 79 0 l 1
 234 729 l 1
 327 729 l 1
 260 414 l 1
 341 474 l 1
 376 637 l 1
 460 637 l 1
 441 546 l 1
 690 729 l 1
 810 729 l 1
 419 445 l 1
 389 303 l 1
 667 0 l 1
 548 0 l 1
 366 192 l 1
 349 113 l 1
 265 113 l 1
 297 265 l 1
EndSplineSet
EndChar
StartChar: uni049D
Encoding: 1181 1181 515
Width: 510
Flags: W
HStem: 0 21G<70 153 411 514> 504 20G<181 264 486 593>
Fore
228 186 m 1
 199 216 l 1
 153 0 l 1
 70 0 l 1
 181 524 l 1
 264 524 l 1
 217 302 l 1
 260 338 l 1
 287 464 l 1
 351 464 l 1
 338 402 l 1
 486 524 l 1
 593 524 l 1
 317 305 l 1
 301 227 l 1
 514 0 l 1
 411 0 l 1
 281 132 l 1
 270 80 l 1
 206 80 l 1
 228 186 l 1
EndSplineSet
EndChar
StartChar: uni049E
Encoding: 1182 1182 516
Width: 664
Flags: W
HStem: 0 21G<79 172 548 658> 569 69<123 215 293 383> 709 20G<234 327 690 810>
Fore
308 638 m 1
 398 638 l 1
 383 569 l 1
 293 569 l 1
 260 414 l 1
 690 729 l 1
 810 729 l 1
 323 375 l 1
 658 0 l 1
 548 0 l 1
 241 324 l 1
 172 0 l 1
 79 0 l 1
 200 569 l 1
 108 569 l 1
 123 638 l 1
 215 638 l 1
 234 729 l 1
 327 729 l 1
 308 638 l 1
EndSplineSet
EndChar
StartChar: uni049F
Encoding: 1183 1183 517
Width: 510
Flags: W
HStem: 0 21G<70 153 411 514> 397 59<105 167 237 295> 504 20G<181 264 486 593>
Fore
167 456 m 1
 181 524 l 1
 264 524 l 1
 250 456 l 1
 310 456 l 1
 295 397 l 1
 237 397 l 1
 217 302 l 1
 486 524 l 1
 593 524 l 1
 266 264 l 1
 514 0 l 1
 411 0 l 1
 199 216 l 1
 153 0 l 1
 70 0 l 1
 154 397 l 1
 90 397 l 1
 105 456 l 1
 167 456 l 1
EndSplineSet
EndChar
StartChar: uni04A0
Encoding: 1184 1184 518
Width: 704
Flags: W
HStem: 0 21G<118 212 588 707> 647 82<42 366>
Fore
366 729 m 1
 300 414 l 1
 730 729 l 1
 850 729 l 1
 363 375 l 1
 707 0 l 1
 588 0 l 1
 281 324 l 1
 212 0 l 1
 118 0 l 1
 255 647 l 1
 25 647 l 1
 42 729 l 1
 366 729 l 1
EndSplineSet
EndChar
StartChar: uni04A1
Encoding: 1185 1185 519
Width: 618
Flags: W
HStem: 0 21G<178 261 519 622> 448 77<273 373>
Fore
373 525 m 1
 325 302 l 1
 594 524 l 1
 701 524 l 1
 374 264 l 1
 622 0 l 1
 519 0 l 1
 307 216 l 1
 261 0 l 1
 178 0 l 1
 273 448 l 1
 90 448 l 1
 106 524 l 1
 373 525 l 1
EndSplineSet
EndChar
StartChar: uni04A2
Encoding: 1186 1186 520
Width: 722
Flags: W
HStem: -20 20G<550 644> 332 82<248 638> 709 20G<238 331 705 799>
Fore
644 0 m 1
 550 0 l 1
 621 332 l 1
 248 332 l 1
 177 0 l 1
 83 0 l 1
 238 729 l 1
 331 729 l 1
 264 414 l 1
 638 414 l 1
 705 729 l 1
 799 729 l 1
 659 74 l 1
 740 74 l 1
 695 -135 l 1
 615 -135 l 1
 644 0 l 1
EndSplineSet
EndChar
StartChar: uni04A3
Encoding: 1187 1187 521
Width: 561
Flags: W
HStem: -20 20G<404 488> 233 76<203 469> 504 20G<181 265 515 599>
Fore
488 0 m 1
 404 0 l 1
 453 233 l 1
 203 233 l 1
 154 0 l 1
 70 0 l 1
 181 524 l 1
 265 524 l 1
 219 309 l 1
 469 309 l 1
 515 524 l 1
 599 524 l 1
 501 64 l 1
 571 64 l 1
 532 -120 l 1
 462 -120 l 1
 488 0 l 1
EndSplineSet
EndChar
StartChar: uni04A4
Encoding: 1188 1188 522
Width: 1010
Flags: W
HStem: 0 21G<83 177 550 642> 332 82<248 638> 647 82<704 1116>
Fore
642 0 m 1
 550 0 l 1
 621 332 l 1
 248 332 l 1
 177 0 l 1
 83 0 l 1
 238 729 l 1
 332 729 l 1
 265 414 l 1
 638 414 l 1
 704 729 l 1
 1133 729 l 1
 1116 647 l 1
 780 647 l 1
 642 0 l 1
EndSplineSet
EndChar
StartChar: uni04A5
Encoding: 1189 1189 523
Width: 753
Flags: W
HStem: 0 21G<70 154 404 487> 233 76<203 469> 448 76<514 783>
Fore
487 0 m 1
 404 0 l 1
 453 233 l 1
 203 233 l 1
 154 0 l 1
 70 0 l 1
 181 524 l 1
 265 524 l 1
 219 309 l 1
 469 309 l 1
 514 524 l 1
 799 524 l 1
 783 448 l 1
 582 448 l 1
 487 0 l 1
EndSplineSet
EndChar
StartChar: uni04A6
Encoding: 1190 1190 524
Width: 1061
Flags: W
HStem: -140 82<780 895> 0 21G<83 177 550 646> 365 82<724 901> 647 82<238 799>
VStem: 972 93<293 347.5>
Fore
799 729 m 1
 741 447 l 1
 901 447 l 2
 1011 447 1065 388 1065 307 c 0
 1065 294 1064 279 1060 264 c 2
 1004 0 l 2
 987 -77 950 -140 840 -140 c 2
 757 -140 l 1
 780 -58 l 1
 822 -58 l 2
 887 -58 902 -28 911 10 c 2
 968 267 l 2
 971 278 972 288 972 298 c 0
 972 338 949 365 883 365 c 2
 724 365 l 1
 646 0 l 1
 550 0 l 1
 688 647 l 1
 315 647 l 1
 177 0 l 1
 83 0 l 1
 238 729 l 1
 799 729 l 1
EndSplineSet
EndChar
StartChar: uni04A7
Encoding: 1191 1191 525
Width: 803
Flags: W
HStem: 0 21G<70 154 403 486> 237 72<536 642> 448 76<181 598>
VStem: 688 89<146 222.5>
Fore
552 309 m 1
 642 309 l 2
 726 309 777 262 777 183 c 0
 777 171 776 159 773 146 c 2
 742 0 l 2
 724 -85 692 -126 565 -126 c 1
 577 -71 l 1
 628 -71 648 -48 658 0 c 2
 682 113 l 2
 688 140 688 140 688 152 c 0
 688 203 654 237 603 237 c 2
 536 237 l 1
 486 0 l 1
 403 0 l 1
 498 448 l 1
 249 448 l 1
 154 0 l 1
 70 0 l 1
 181 524 l 1
 598 524 l 1
 552 309 l 1
EndSplineSet
EndChar
StartChar: uni04AA
Encoding: 1194 1194 526
Width: 722
Flags: W
HStem: -205 45<326.5 389.5> 660 81<392 579.5>
VStem: 112 96<199.5 307> 406 75<-153.5 -89.5>
Fore
735 266 m 1
 682 141 618 -3 401 -22 c 1
 422 -34 l 2
 460 -59 481 -93 481 -130 c 0
 481 -177 432 -205 347 -205 c 0
 319 -205 300 -202 279 -195 c 1
 270 -150 l 1
 288 -156 313 -160 340 -160 c 0
 379 -160 406 -142 406 -116 c 0
 406 -63 345 -32 323 -21 c 1
 132 2 112 183 112 242 c 0
 112 367 161 505 240 600 c 0
 318 694 415 741 532 741 c 0
 627 741 760 703 770 503 c 1
 674 503 l 1
 666 611 616 660 515 660 c 0
 269 660 208 354 208 260 c 0
 208 139 277 58 381 58 c 0
 535 58 593 165 637 266 c 1
 735 266 l 1
EndSplineSet
EndChar
StartChar: uni04AB
Encoding: 1195 1195 527
Width: 500
Flags: W
HStem: -205 45<222.5 285.5> 462 77<281 434>
VStem: 76 88<142 274> 302 75<-153.5 -69.5> 468 86<367 431>
Fore
296 -21 m 1
 318 -32 377 -67 377 -130 c 0
 377 -177 328 -205 243 -205 c 0
 215 -205 196 -202 175 -195 c 1
 166 -150 l 1
 184 -156 209 -160 236 -160 c 0
 275 -160 302 -142 302 -116 c 0
 302 -23 175 -30 120 39 c 0
 92 74 76 123 76 170 c 0
 76 378 197 539 381 539 c 0
 487 539 554 470 554 392 c 0
 554 389 553 378 552 363 c 2
 551 348 l 1
 467 348 l 1
 468 357 468 364 468 370 c 0
 468 427 429 462 366 462 c 0
 196 462 164 238 164 181 c 0
 164 103 208 54 277 54 c 0
 349 54 404 98 434 180 c 1
 518 180 l 1
 491 87 440 -6 296 -21 c 1
EndSplineSet
EndChar
StartChar: uni04AC
Encoding: 1196 1196 528
Width: 611
Flags: W
HStem: -20 20G<260 353> 647 82<175 747>
Fore
353 0 m 1
 260 0 l 1
 398 647 l 1
 158 647 l 1
 175 729 l 1
 747 729 l 1
 730 647 l 1
 491 647 l 1
 369 74 l 1
 449 74 l 1
 404 -135 l 1
 324 -135 l 1
 353 0 l 1
EndSplineSet
EndChar
StartChar: uni04AD
Encoding: 1197 1197 529
Width: 400
Flags: W
HStem: -20 20G<149 233> 448 76<116 488>
Fore
246 64 m 1
 316 64 l 1
 277 -120 l 1
 207 -120 l 1
 233 0 l 1
 149 0 l 1
 244 448 l 1
 100 448 l 1
 116 524 l 1
 488 524 l 1
 472 448 l 1
 328 448 l 1
 246 64 l 1
EndSplineSet
EndChar
StartChar: uni04AE
Encoding: 1198 1198 530
Width: 667
Flags: W
HStem: 0 21G<293 387> 709 20G<168 280 705 816>
Fore
448 286 m 1
 387 0 l 1
 293 0 l 1
 354 286 l 1
 168 729 l 1
 280 729 l 1
 416 372 l 1
 705 729 l 1
 816 729 l 1
 448 286 l 1
EndSplineSet
EndChar
StartChar: uni04AF
Encoding: 1199 1199 531
Width: 667
Flags: W
HStem: 504 20G<157 272 614 725>
Fore
429 86 m 1
 388 -200 l 1
 295 -200 l 1
 336 86 l 1
 157 524 l 1
 272 524 l 1
 397 174 l 1
 614 524 l 1
 725 524 l 1
 429 86 l 1
EndSplineSet
EndChar
StartChar: uni04B0
Encoding: 1200 1200 532
Width: 667
Flags: W
HStem: 0 21G<296 389> 190 70<128 348 427 647> 709 20G<159 274 696 807>
Fore
334 190 m 1
 114 190 l 1
 128 260 l 1
 348 260 l 1
 353 286 l 1
 159 729 l 1
 274 729 l 1
 418 374 l 1
 696 729 l 1
 807 729 l 1
 446 286 l 1
 441 260 l 1
 661 260 l 1
 647 190 l 1
 427 190 l 1
 389 0 l 1
 296 0 l 1
 334 190 l 1
EndSplineSet
EndChar
StartChar: uni04B1
Encoding: 1201 1201 533
Width: 667
Flags: W
HStem: 16 70<116 336 419 639> 504 20G<158 273 615 726>
Fore
429 86 m 1
 649 86 l 1
 639 16 l 1
 419 16 l 1
 388 -200 l 1
 295 -200 l 1
 326 16 l 1
 106 16 l 1
 116 86 l 1
 336 86 l 1
 158 524 l 1
 273 524 l 1
 397 174 l 1
 615 524 l 1
 726 524 l 1
 429 86 l 1
EndSplineSet
EndChar
StartChar: uni04B2
Encoding: 1202 1202 534
Width: 665
Flags: W
HStem: -20 20G<534 569> 709 20G<193 306 681 792>
Fore
614 74 m 1
 665 74 l 1
 620 -135 l 1
 540 -135 l 1
 569 0 l 1
 534 0 l 1
 400 304 l 1
 135 0 l 1
 22 0 l 1
 360 374 l 1
 193 729 l 1
 306 729 l 1
 432 443 l 1
 681 729 l 1
 792 729 l 1
 471 374 l 1
 614 74 l 1
EndSplineSet
EndChar
StartChar: uni04B3
Encoding: 1203 1203 535
Width: 496
Flags: W
HStem: -20 20G<376 403> 504 20G<138 233 485 579>
Fore
444 64 m 1
 486 64 l 1
 447 -120 l 1
 377 -120 l 1
 403 0 l 1
 376 0 l 1
 287 201 l 1
 112 0 l 1
 17 0 l 1
 258 267 l 1
 138 524 l 1
 233 524 l 1
 319 334 l 1
 485 524 l 1
 579 524 l 1
 349 271 l 1
 444 64 l 1
EndSplineSet
EndChar
StartChar: uni04B4
Encoding: 1204 1204 536
Width: 879
Flags: W
HStem: 0 82<241 813> 647 82<175 708>
Fore
473 647 m 1
 351 82 l 1
 724 82 l 1
 862 729 l 1
 956 729 l 1
 817 74 l 1
 909 74 l 1
 864 -135 l 1
 784 -135 l 1
 813 0 l 1
 241 0 l 1
 379 647 l 1
 158 647 l 1
 175 729 l 1
 708 729 l 1
 691 647 l 1
 473 647 l 1
EndSplineSet
EndChar
StartChar: uni04B5
Encoding: 1205 1205 537
Width: 629
Flags: W
HStem: 0 76<139 567> 448 76<116 468>
Fore
318 448 m 1
 239 76 l 1
 488 76 l 1
 583 524 l 1
 667 524 l 1
 570 64 l 1
 650 64 l 1
 611 -120 l 1
 541 -120 l 1
 567 0 l 1
 139 0 l 1
 234 448 l 1
 100 448 l 1
 116 524 l 1
 468 524 l 1
 452 448 l 1
 318 448 l 1
EndSplineSet
EndChar
StartChar: uni04B6
Encoding: 1206 1206 538
Width: 642
Flags: W
HStem: -20 20G<443 548> 282 82<323 520> 709 20G<220 313 598 691>
VStem: 159 93<381.5 436>
Fore
548 0 m 1
 443 0 l 1
 503 282 l 1
 323 282 l 2
 213 282 159 341 159 422 c 0
 159 435 160 450 164 465 c 2
 220 729 l 1
 313 729 l 1
 256 462 l 2
 253 451 252 441 252 431 c 0
 252 391 275 364 341 364 c 2
 520 364 l 1
 598 729 l 1
 691 729 l 1
 552 74 l 1
 644 74 l 1
 599 -135 l 1
 519 -135 l 1
 548 0 l 1
EndSplineSet
EndChar
StartChar: uni04B7
Encoding: 1207 1207 539
Width: 497
Flags: W
HStem: -20 20G<340 435> 208 76<267 400> 504 20G<172 256 451 535>
VStem: 133 85<285.5 337.5>
Fore
435 0 m 1
 340 0 l 1
 384 208 l 1
 267 208 l 2
 168 208 133 253 133 318 c 0
 133 334 136 351 139 369 c 2
 172 524 l 1
 256 524 l 1
 221 359 l 2
 219 350 218 342 218 333 c 0
 218 307 230 284 273 284 c 2
 400 284 l 1
 451 524 l 1
 535 524 l 1
 438 64 l 1
 518 64 l 1
 479 -120 l 1
 409 -120 l 1
 435 0 l 1
EndSplineSet
EndChar
StartChar: uni04B8
Encoding: 1208 1208 540
Width: 642
Flags: W
HStem: 0 21G<443 536> 282 82<308 341 418 520> 709 20G<220 313 598 691>
VStem: 159 93<381.5 436>
Fore
351 364 m 1
 379 494 l 1
 463 494 l 1
 435 364 l 1
 520 364 l 1
 598 729 l 1
 691 729 l 1
 536 0 l 1
 443 0 l 1
 503 282 l 1
 418 282 l 1
 390 150 l 1
 306 150 l 1
 334 282 l 1
 323 282 l 2
 213 282 159 341 159 422 c 0
 159 435 160 450 164 465 c 2
 220 729 l 1
 313 729 l 1
 256 462 l 2
 253 451 252 441 252 431 c 0
 252 391 275 364 341 364 c 2
 351 364 l 1
EndSplineSet
EndChar
StartChar: uni04B9
Encoding: 1209 1209 541
Width: 497
Flags: W
HStem: 0 21G<340 424> 208 76<324 400> 504 20G<172 256 451 535>
VStem: 133 85<287 337.5>
Fore
254 208 m 1
 165 212 133 256 133 318 c 0
 133 334 136 351 139 369 c 2
 172 524 l 1
 256 524 l 1
 221 359 l 2
 219 350 218 342 218 333 c 0
 218 308 229 285 270 284 c 1
 292 387 l 1
 362 387 l 1
 340 284 l 1
 400 284 l 1
 451 524 l 1
 535 524 l 1
 424 0 l 1
 340 0 l 1
 384 208 l 1
 324 208 l 1
 304 113 l 1
 234 113 l 1
 254 208 l 1
EndSplineSet
EndChar
StartChar: uni04BA
Encoding: 1210 1210 542
Width: 642
Flags: W
HStem: 0 21G<159 252 537 630> 365 82<330 527> 709 20G<314 407>
VStem: 598 93<293 347.5>
Fore
347 447 m 1
 527 447 l 2
 637 447 691 388 691 307 c 0
 691 294 690 279 686 264 c 2
 630 0 l 1
 537 0 l 1
 594 267 l 2
 597 278 598 288 598 298 c 0
 598 338 575 365 509 365 c 2
 330 365 l 1
 252 0 l 1
 159 0 l 1
 314 729 l 1
 407 729 l 1
 347 447 l 1
EndSplineSet
EndChar
StartChar: uni04BB
Encoding: 1211 1211 543
Width: 497
Flags: W
HStem: 0 21G<133 217 412 496> 240 76<268 450.5> 504 20G<244 328>
VStem: 450 85<186.5 238.5>
Fore
496 0 m 1
 412 0 l 1
 447 165 l 2
 449 174 450 182 450 191 c 0
 450 217 438 240 395 240 c 2
 268 240 l 1
 217 0 l 1
 133 0 l 1
 244 524 l 1
 328 524 l 1
 284 316 l 1
 401 316 l 2
 500 316 535 271 535 206 c 0
 535 190 532 173 529 155 c 2
 496 0 l 1
EndSplineSet
EndChar
StartChar: uni04BC
Encoding: 1212 1212 544
Width: 722
Flags: W
HStem: -23 81<262 456> 421 82<91.5 140 235 770> 660 81<423.5 577> 747 47<114.5 206.5>
VStem: -8 52<529.5 634> 110 96<189 286.5> 227 50<679 709>
Fore
272 503 m 1
 672 503 l 1
 664 611 614 660 513 660 c 0
 421 660 348 617 287 527 c 2
 272 503 l 1
365 -23 m 0
 159 -23 110 136 110 242 c 0
 110 301 121 362 140 421 c 1
 79 423 -8 487 -8 572 c 0
 -8 696 63 794 175 794 c 0
 238 794 278 752 278 705 c 0
 278 704 278 697 277 688 c 2
 277 679 l 1
 226 679 l 1
 227 684 227 689 227 692 c 0
 227 726 203 747 166 747 c 0
 63 747 44 612 44 579 c 0
 44 532 71 503 112 503 c 2
 175 503 l 1
 216 582 317 741 530 741 c 0
 624 741 695 704 736 634 c 0
 755 600 770 556 770 421 c 1
 235 421 l 1
 216 369 206 313 206 260 c 0
 206 139 275 58 379 58 c 0
 533 58 591 165 635 266 c 1
 733 266 l 1
 699 185 672 129 633 86 c 0
 568 15 471 -23 365 -23 c 0
EndSplineSet
EndChar
StartChar: uni04BD
Encoding: 1213 1213 545
Width: 605
Flags: W
HStem: -23 77<298 472> 272 76<286 648> 462 77<427.5 544> 512 30<157 218.5>
VStem: 75 36<374 436> 186 88<134.5 195.5> 232 34<472 486.5> 578 86<367 431>
Fore
314 348 m 1xe9
 577 348 l 1
 578 357 578 364 578 370 c 0
 578 427 539 462 476 462 c 0
 379 462 329 383 314 348 c 1xe9
373 -23 m 0
 223 -23 186 99 186 170 c 0xed
 186 203 190 238 198 272 c 1
 119 277 75 353 75 395 c 0
 75 477 124 542 197 542 c 0
 240 542 267 515 267 484 c 0
 267 482 266 478 266 472 c 2
 265 466 l 1
 232 466 l 1
 232 475 l 2
 232 498 217 512 191 512 c 0xdb
 123 512 111 423 111 399 c 0
 111 368 128 348 157 348 c 2
 221 348 l 1
 279 491 388 539 491 539 c 0
 597 539 664 470 664 392 c 0
 664 354 657 298 648 272 c 1
 286 272 l 1
 278 241 274 210 274 181 c 0xed
 274 103 318 54 387 54 c 0
 459 54 514 98 544 180 c 1
 628 180 l 1
 613 129 571 -23 373 -23 c 0
EndSplineSet
EndChar
StartChar: uni04BE
Encoding: 1214 1214 546
Width: 722
Flags: W
HStem: -205 45<326.5 389.5> 421 82<91.5 140 235 770> 660 81<423.5 577> 747 47<114.5 206.5>
VStem: -8 52<529.5 634> 110 96<199.5 286.5> 227 50<679 709> 406 75<-153.5 -89.5>
Fore
272 503 m 1
 672 503 l 1
 664 611 614 660 513 660 c 0
 421 660 348 617 287 527 c 2
 272 503 l 1
379 58 m 0
 533 58 591 165 635 266 c 1
 733 266 l 1
 699 185 672 129 633 86 c 0
 575 23 493 -14 401 -22 c 1
 422 -34 l 2
 460 -59 481 -93 481 -130 c 0
 481 -177 432 -205 347 -205 c 0
 319 -205 300 -202 279 -195 c 1
 270 -150 l 1
 288 -156 313 -160 340 -160 c 0
 379 -160 406 -142 406 -116 c 0
 406 -63 345 -32 323 -21 c 1
 130 2 110 181 110 242 c 0
 110 301 121 362 140 421 c 1
 79 423 -8 487 -8 572 c 0
 -8 696 63 794 175 794 c 0
 238 794 278 752 278 705 c 0
 278 704 278 697 277 688 c 2
 277 679 l 1
 226 679 l 1
 227 684 227 689 227 692 c 0
 227 726 203 747 166 747 c 0
 63 747 44 612 44 579 c 0
 44 532 71 503 112 503 c 2
 175 503 l 1
 216 582 317 741 530 741 c 0
 624 741 695 704 736 634 c 0
 755 600 770 556 770 421 c 1
 235 421 l 1
 216 369 206 313 206 260 c 0
 206 139 275 58 379 58 c 0
EndSplineSet
EndChar
StartChar: uni04BF
Encoding: 1215 1215 547
Width: 605
Flags: W
HStem: -205 45<335.5 398.5> 272 76<286 648> 462 77<427.5 544> 512 30<157 218.5>
VStem: 75 36<374 436> 186 88<132.5 195.5> 232 34<472 486.5> 415 75<-153.5 -89> 578 86<367 431>
Fore
314 348 m 1xe980
 577 348 l 1
 578 357 578 364 578 370 c 0
 578 427 539 462 476 462 c 0
 379 462 329 383 314 348 c 1xe980
409 -21 m 1
 431 -32 490 -67 490 -130 c 0
 490 -177 441 -205 356 -205 c 0
 328 -205 309 -202 288 -195 c 1
 279 -150 l 1
 297 -156 322 -160 349 -160 c 0
 388 -160 415 -142 415 -116 c 0
 415 -62 354 -32 330 -20 c 0
 226 -0 186 95 186 170 c 0xed80
 186 203 190 238 198 272 c 1
 119 277 75 353 75 395 c 0
 75 477 124 542 197 542 c 0
 240 542 267 515 267 484 c 0
 267 482 266 478 266 472 c 2
 265 466 l 1
 232 466 l 1
 232 475 l 2
 232 498 217 512 191 512 c 0xdb80
 123 512 111 423 111 399 c 0
 111 368 128 348 157 348 c 2
 221 348 l 1
 279 491 388 539 491 539 c 0
 597 539 664 470 664 392 c 0
 664 354 657 298 648 272 c 1
 286 272 l 1
 278 241 274 210 274 181 c 0xed80
 274 103 318 54 387 54 c 0
 459 54 514 98 544 180 c 1
 628 180 l 1
 588 40 507 -11 409 -21 c 1
EndSplineSet
EndChar
StartChar: uni04C0
Encoding: 1216 1216 548
Width: 278
Flags: W
HStem: 0 21G<100 194> 709 20G<255 349>
Fore
349 729 m 1
 194 0 l 1
 100 0 l 1
 255 729 l 1
 349 729 l 1
EndSplineSet
EndChar
StartChar: uni04C1
Encoding: 1217 1217 549
Width: 897
Flags: W
HStem: 0 21G<22 132 418 511 797 907> 709 20G<215 335 573 666 904 1024> 801 72<597.5 677.5>
VStem: 508 58<870.5 936>
Fore
814 936 m 1
 789 834 707 801 635 801 c 0
 560 801 508 841 508 900 c 0
 508 909 509 917 513 936 c 1
 566 936 l 1
 566 923 l 2
 566 893 599 873 648 873 c 0
 707 873 748 896 758 936 c 1
 814 936 l 1
487 324 m 1
 132 0 l 1
 22 0 l 1
 427 375 l 1
 215 729 l 1
 335 729 l 1
 508 421 l 1
 573 729 l 1
 666 729 l 1
 601 421 l 1
 904 729 l 1
 1024 729 l 1
 662 375 l 1
 907 0 l 1
 797 0 l 1
 580 324 l 1
 511 0 l 1
 418 0 l 1
 487 324 l 1
EndSplineSet
EndChar
StartChar: uni04C2
Encoding: 1218 1218 550
Width: 818
Flags: W
HStem: 0 21G<17 120 378 461 719 822> 504 20G<160 267 489 572 794 901> 599 72<509.5 589.5> 714 20G<425 478 670 726>
VStem: 420 58<668.5 734>
Fore
726 734 m 1
 701 632 619 599 547 599 c 0
 472 599 420 639 420 698 c 0
 420 707 421 715 425 734 c 1
 478 734 l 1
 478 721 l 2
 478 691 511 671 560 671 c 0
 619 671 660 694 670 734 c 1
 726 734 l 1
424 216 m 1
 120 0 l 1
 17 0 l 1
 377 264 l 1
 160 524 l 1
 267 524 l 1
 442 302 l 1
 489 524 l 1
 572 524 l 1
 525 302 l 1
 794 524 l 1
 901 524 l 1
 574 264 l 1
 822 0 l 1
 719 0 l 1
 507 216 l 1
 461 0 l 1
 378 0 l 1
 424 216 l 1
EndSplineSet
EndChar
StartChar: uni04C3
Encoding: 1219 1219 551
Width: 664
Flags: W
HStem: -140 82<387 502> 0 21G<79 172> 294 81<235 489.5> 709 20G<234 327 690 810>
VStem: 559 87<210 262>
Fore
459 294 m 2
 235 294 l 1
 172 0 l 1
 79 0 l 1
 234 729 l 1
 327 729 l 1
 260 414 l 1
 690 729 l 1
 810 729 l 1
 323 375 l 1
 479 375 l 2
 576 374 646 298 646 226 c 0
 646 219 646 211 644 204 c 2
 611 0 l 2
 595 -77 557 -140 447 -140 c 2
 364 -140 l 1
 387 -58 l 1
 429 -58 l 2
 494 -58 509 -28 518 10 c 2
 558 201 l 2
 559 204 559 208 559 212 c 0
 559 248 520 294 459 294 c 2
EndSplineSet
EndChar
StartChar: uni04C4
Encoding: 1220 1220 552
Width: 510
Flags: W
HStem: 0 21G<70 153> 196 68<266 408> 504 20G<181 264 486 593>
VStem: 402 81<126 176.5>
Fore
483 143 m 0
 483 131 482 119 479 106 c 2
 460 0 l 2
 442 -85 410 -126 283 -126 c 1
 295 -71 l 1
 346 -71 366 -48 376 0 c 2
 396 93 l 2
 402 120 402 120 402 132 c 0
 402 184 358 196 324 196 c 2
 195 196 l 1
 153 0 l 1
 70 0 l 1
 181 524 l 1
 264 524 l 1
 217 302 l 1
 486 524 l 1
 593 524 l 1
 266 264 l 1
 356 264 l 2
 460 264 483 210 483 143 c 0
EndSplineSet
EndChar
StartChar: uni04C7
Encoding: 1223 1223 553
Width: 722
Flags: W
HStem: -140 82<420 535> 0 21G<83 177> 332 82<248 638> 709 20G<238 332 705 799>
Fore
550 0 m 2
 621 332 l 1
 248 332 l 1
 177 0 l 1
 83 0 l 1
 238 729 l 1
 332 729 l 1
 265 414 l 1
 638 414 l 1
 705 729 l 1
 799 729 l 1
 644 0 l 2
 628 -77 590 -140 480 -140 c 2
 397 -140 l 1
 420 -58 l 1
 462 -58 l 2
 527 -58 545 -23 550 0 c 2
EndSplineSet
EndChar
StartChar: uni04C8
Encoding: 1224 1224 554
Width: 561
Flags: W
HStem: 0 21G<70 154> 233 76<203 469> 504 20G<181 265 515 599>
Fore
404 0 m 2
 453 233 l 1
 203 233 l 1
 154 0 l 1
 70 0 l 1
 181 524 l 1
 265 524 l 1
 219 309 l 1
 469 309 l 1
 515 524 l 1
 599 524 l 1
 488 0 l 2
 470 -85 438 -126 311 -126 c 1
 323 -71 l 1
 374 -71 394 -48 404 0 c 2
EndSplineSet
EndChar
StartChar: uni04CB
Encoding: 1227 1227 555
Width: 642
Flags: W
HStem: 0 74<432 459> 282 82<323 520> 709 20G<220 313 598 691>
VStem: 159 93<381.5 436>
Fore
432 0 m 1
 402 -135 l 1
 322 -135 l 1
 367 74 l 1
 459 74 l 1
 503 282 l 1
 323 282 l 2
 213 282 159 341 159 422 c 0
 159 435 160 450 164 465 c 2
 220 729 l 1
 313 729 l 1
 256 462 l 2
 253 451 252 441 252 431 c 0
 252 391 275 364 341 364 c 2
 520 364 l 1
 598 729 l 1
 691 729 l 1
 536 0 l 1
 432 0 l 1
EndSplineSet
EndChar
StartChar: uni04CC
Encoding: 1228 1228 556
Width: 497
Flags: W
HStem: 0 64<330 353> 208 76<267 400> 504 20G<172 256 451 535>
VStem: 133 85<285.5 337.5>
Fore
330 0 m 1
 304 -120 l 1
 234 -120 l 1
 273 64 l 1
 353 64 l 1
 384 208 l 1
 267 208 l 2
 168 208 133 253 133 318 c 0
 133 334 136 351 139 369 c 2
 172 524 l 1
 256 524 l 1
 221 359 l 2
 219 350 218 342 218 333 c 0
 218 307 230 284 273 284 c 2
 400 284 l 1
 451 524 l 1
 535 524 l 1
 424 0 l 1
 330 0 l 1
EndSplineSet
EndChar
StartChar: uni04D8
Encoding: 1240 1240 565
Width: 722
Flags: W
HStem: -23 81<303 413> 215 82<110 645> 660 81<424 618>
VStem: 674 96<413.5 529>
Fore
515 741 m 0
 721 741 770 582 770 476 c 0
 770 351 721 213 642 118 c 0
 564 24 467 -23 350 -23 c 0
 256 -23 185 14 144 84 c 0
 125 118 110 162 110 297 c 1
 645 297 l 1
 664 349 674 405 674 458 c 0
 674 579 605 660 501 660 c 0
 347 660 289 553 245 452 c 1
 147 452 l 1
 181 533 208 589 247 632 c 0
 312 703 409 741 515 741 c 0
608 215 m 1
 208 215 l 1
 216 107 266 58 367 58 c 0
 459 58 532 101 593 191 c 0
 608 215 l 1
EndSplineSet
EndChar
StartChar: afii10846
Encoding: 1241 1241 566
Width: 495
Flags: W
HStem: -23 77<196 341> 168 76<92 454> 462 77<268 442>
VStem: 76 86<85 149> 466 88<242 381.5>
Fore
249 -23 m 0
 143 -23 76 46 76 124 c 0
 76 162 83 218 92 244 c 1
 454 244 l 1
 462 275 466 306 466 335 c 0
 466 413 422 462 353 462 c 0
 281 462 226 418 196 336 c 1
 112 336 l 1
 127 387 169 539 367 539 c 0
 517 539 554 417 554 346 c 0
 554 138 433 -23 249 -23 c 0
426 168 m 1
 163 168 l 1
 162 159 162 152 162 146 c 0
 162 89 201 54 264 54 c 0
 361 54 411 133 426 168 c 1
EndSplineSet
EndChar
StartChar: uni04E0
Encoding: 1248 1248 573
Width: 652
Flags: W
HStem: -23 82<216.5 418.5> 321 82<324 458> 663 78<392 545.5>
VStem: 71 90<122.5 195> 552 97<169 271> 602 93<522.5 627.5>
Fore
161 188 m 0xf8
 161 135 187 59 336 59 c 0
 474 59 552 130 552 208 c 0xf8
 552 261 501 321 415 321 c 2
 307 321 l 1
 324 403 l 1
 412 403 l 2
 493 403 602 480 602 565 c 0
 602 625 549 663 462 663 c 0
 346 663 270 610 249 515 c 1
 161 515 l 1
 192 658 308 741 476 741 c 0
 615 741 695 679 695 576 c 0xf4
 695 500 660 417 552 374 c 1
 616 348 649 302 649 240 c 0
 649 102 524 -23 313 -23 c 0
 120 -23 71 83 71 162 c 0
 71 182 74 205 79 232 c 1
 167 232 l 1
 163 216 161 202 161 188 c 0xf8
EndSplineSet
EndChar
StartChar: uni04E1
Encoding: 1249 1249 574
Width: 495
Flags: W
HStem: -23 77<177 317> 221 76<253 361.5> 462 77<288.5 402.5>
VStem: 60 92<64.5 135.5> 396 95<122.5 197.5> 432 88<366.5 452>
Fore
259 54 m 0xf8
 375 54 396 127 396 148 c 0xf8
 396 183 364 221 311 221 c 2
 237 221 l 1
 253 297 l 1
 315 297 l 2
 408 297 432 375 432 398 c 0
 432 437 396 462 336 462 c 0
 269 462 227 433 213 378 c 1
 125 378 l 1
 148 481 228 539 349 539 c 0
 456 539 520 491 520 413 c 0xf4
 520 320 455 281 427 267 c 1
 470 246 491 218 491 177 c 0
 491 68 391 -23 236 -23 c 0
 118 -23 60 20 60 109 c 0
 60 123 62 139 65 156 c 1
 153 156 l 1
 152 147 152 139 152 132 c 0
 152 66 213 54 259 54 c 0xf8
EndSplineSet
EndChar
StartChar: uni04E8
Encoding: 1256 1256 581
Width: 780
Flags: W
HStem: -23 82<297.5 476> 328 69<203 732> 659 82<442.5 636.5>
VStem: 104 94<171.5 282> 735 95<381 547.5>
Fore
547 741 m 0
 726 741 830 634 830 461 c 0
 830 301 750 141 628 54 c 0
 559 4 474 -23 386 -23 c 0
 209 -23 104 86 104 257 c 0
 104 289 107 323 115 359 c 0
 164 587 338 741 547 741 c 0
732 397 m 1
 734 414 735 430 735 445 c 0
 735 577 661 659 530 659 c 0
 387 659 265 556 218 397 c 1
 732 397 l 1
718 328 m 1
 203 328 l 1
 200 309 198 291 198 273 c 0
 198 142 274 59 403 59 c 0
 549 59 674 167 718 328 c 1
EndSplineSet
EndChar
StartChar: uni04E9
Encoding: 1257 1257 582
Width: 554
Flags: W
HStem: -23 77<206 357> 224 69<171 482> 462 77<256 447>
VStem: 80 89<107.5 208.5> 485 89<247 410>
Fore
80 168 m 0
 80 249 126 539 386 539 c 0
 508 539 574 471 574 349 c 0
 574 145 447 -23 267 -23 c 0
 145 -23 80 47 80 168 c 0
482 293 m 1
 484 306 485 318 485 330 c 0
 485 414 444 462 370 462 c 0
 286 462 218 398 186 293 c 1
 482 293 l 1
468 224 m 1
 171 224 l 1
 170 211 169 199 169 187 c 0
 169 103 210 54 284 54 c 0
 368 54 437 119 468 224 c 1
EndSplineSet
EndChar
StartChar: uni0531
Encoding: 1329 1329 597
Width: 722
Flags: W
HStem: -12 85<214.5 373>
VStem: 55 95<107 210.5>
Fore
150 195 m 0
 150 97 231 75 298 73 c 0
 448 73 504 141 540 303 c 2
 627 716 l 1
 722 716 l 1
 596 120 l 1
 663 27 l 1
 590 -41 l 1
 520 60 l 1
 477 21 371 -12 288 -12 c 0
 141 -12 55 37 55 177 c 0
 55 203 57 229 71 302 c 2
 159 716 l 1
 253 716 l 1
 166 303 l 2
 157 261 150 226 150 195 c 0
EndSplineSet
EndChar
StartChar: uni0532
Encoding: 1330 1330 598
Width: 705
Flags: W
HStem: -2 21G<2 96> 150 93<129 594> 641 85<334.5 531>
VStem: 571 96<500.5 590>
Fore
439 726 m 0
 623 726 667 623 667 557 c 0
 667 554 667 552 667 550 c 2
 667 528 l 2
 667 488 661 456 653 412 c 2
 635 330 l 1
 540 330 l 1
 557 411 l 2
 566 452 571 486 571 515 c 0
 571 604 525 639 413 641 c 0
 328 641 264 605 230 549 c 0
 193 487 168 338 149 243 c 1
 614 243 l 1
 594 150 l 1
 129 150 l 1
 96 -2 l 1
 2 -2 l 1
 90 412 l 2
 134 621 230 726 439 726 c 0
EndSplineSet
EndChar
StartChar: uni0533
Encoding: 1331 1331 599
Width: 774
Flags: W
HStem: -1 21G<464 559> 134 95<219 332> 641 85<293 531.5>
VStem: 575 94<531 603>
Fore
440 726 m 0
 623 726 669 633 669 573 c 0
 669 528 650 453 642 412 c 0
 605 230 l 1
 715 230 l 1
 694 134 l 1
 587 134 l 1
 559 -1 l 1
 464 -1 l 1
 492 134 l 1
 277 134 l 2
 161 134 95 202 83 322 c 2
 94 412 l 2
 108 479 146 726 440 726 c 0
182 387 m 0
 182 294 209 229 332 229 c 2
 512 230 l 1
 535 340 l 1
 537 338 l 1
 549 394 l 1
 549 394 564 464 564 468 c 0
 567 479 573 516 575 531 c 0
 575 608 509 639 430 641 c 0
 216 641 199 503 182 387 c 0
EndSplineSet
EndChar
StartChar: uni0534
Encoding: 1332 1332 600
Width: 754
Flags: W
HStem: 1 21G<473 568> 145 94<598 680> 644 85<354 536.5>
VStem: 576 94<503.5 571>
Fore
439 729 m 0
 634 729 669 629 669 560 c 0
 670 546 670 532 670 516 c 0
 668 453 631 301 618 239 c 1
 700 239 l 1
 680 145 l 1
 598 145 l 1
 568 1 l 1
 473 1 l 1
 560 414 l 2
 566 442 576 485 576 522 c 0
 576 620 496 642 429 644 c 0
 279 644 223 576 187 414 c 2
 170 333 l 1
 75 333 l 1
 93 415 l 2
 121 548 160 634 263 688 c 0
 310 715 369 729 439 729 c 0
EndSplineSet
EndChar
StartChar: uni0535
Encoding: 1333 1333 601
Width: 722
Flags: W
HStem: 5 86<197.5 370> 488 93<199 664> 713 20G<156 250>
VStem: 52 96<137.5 223.5>
Fore
148 210 m 0
 148 115 232 91 295 91 c 0
 445 91 502 158 537 320 c 2
 554 401 l 1
 649 401 l 1
 615 235 581 9 285 5 c 0
 110 5 52 81 52 194 c 0
 52 236 60 278 69 320 c 2
 156 733 l 1
 250 733 l 1
 219 581 l 1
 684 581 l 1
 664 488 l 1
 199 488 l 1
 163 320 l 1
 153 274 148 237 148 210 c 0
EndSplineSet
EndChar
StartChar: uni0536
Encoding: 1334 1334 602
Width: 751
Flags: W
HStem: -2 21G<-32 58> 52 77<70 213> 359 79<141 312> 660 75<308.5 436.5>
VStem: 551 85<8.5 55> 586 76<440.5 518>
Fore
525 131 m 2xf4
 620 131 636 74 636 36 c 0
 636 23 635 9 632 -6 c 1
 549 -5 l 1
 550 1 551 6 551 11 c 0xf8
 551 38 531 51 493 52 c 2
 70 52 l 1
 58 -2 l 1
 -32 -2 l 1
 8 184 l 1
 98 184 l 1
 86 129 l 1
 213 129 l 2
 255 129 382 174 464 244 c 0
 503 278 586 384 586 497 c 0
 586 526 580 556 564 588 c 0
 541 628 467 660 406 660 c 2
 392 660 l 1
 374 658 l 1
 344 652 l 2
 263 632 201 580 166 511 c 2
 159 494 l 2
 153 482 145 458 141 438 c 1
 329 440 l 1
 312 359 l 1
 30 359 l 1
 32 375 l 2
 93 615 186 735 431 735 c 0
 436 735 445 735 455 733 c 0
 524 733 595 695 643 631 c 0
 654 614 663 572 663 533 c 0
 663 527 662 521 662 515 c 0
 662 385 549 200 402 131 c 1
 525 131 l 2xf4
EndSplineSet
EndChar
StartChar: uni0537
Encoding: 1335 1335 603
Width: 485
Flags: W
HStem: 0 79<120 257> 411 77<191 441>
Fore
274 79 m 1
 257 0 l 1
 7 0 l 1
 161 721 l 1
 257 721 l 1
 207 488 l 1
 457 488 l 1
 441 411 l 1
 191 411 l 1
 120 79 l 1
 274 79 l 1
EndSplineSet
EndChar
StartChar: uni0538
Encoding: 1336 1336 604
Width: 722
Flags: W
HStem: 644 85<329.5 526>
VStem: 566 96<502 561>
Fore
618 274 m 1
 523 274 l 1
 553 414 l 2
 561 454 566 488 566 516 c 0
 566 606 520 642 408 644 c 0
 268 644 214 570 179 414 c 2
 109 88 l 1
 580 87 l 1
 560 0 l 1
 -3 1 l 1
 85 415 l 2
 129 624 225 729 434 729 c 0
 618 729 663 626 663 553 c 1
 662 550 663 543 662 531 c 2
 662 512 l 2
 657 446 632 339 618 274 c 1
EndSplineSet
EndChar
StartChar: uni0539
Encoding: 1337 1337 605
Width: 782
Flags: W
HStem: -2 78<384 495> 368 80<456 652> 650 78<368 648.5>
VStem: 205 94<81 183.5> 672 95<554 599.5>
Fore
299 152 m 0
 299 93 327 79 420 76 c 0
 522 76 583 122 602 213 c 0
 635 368 l 1
 456 368 l 2
 391 368 360 356 338 313 c 1
 323 274 l 1
 313 239 301 187 299 152 c 0
570 728 m 2
 727 728 767 635 767 564 c 0
 767 551 766 537 763 523 c 2
 747 448 l 1
 801 448 l 1
 784 370 l 1
 730 370 l 1
 696 206 l 2
 670 98 577 -2 413 -2 c 2
 384 -2 l 1
 378 -2 372 -2 366 -1 c 0
 361 -1 355 -1 349 0 c 0
 291 0 205 31 205 131 c 0
 205 236 251 388 344 426 c 0
 378 441 420 448 472 448 c 2
 652 448 l 1
 666 514 l 2
 670 532 672 547 672 561 c 0
 672 637 599 649 547 650 c 2
 368 650 l 2
 363 650 359 650 358 651 c 2
 343 651 l 2
 261 651 209 605 190 514 c 0
 81 0 l 1
 -14 0 l 1
 97 523 l 2
 131 677 264 728 379 728 c 2
 570 728 l 2
EndSplineSet
EndChar
StartChar: uni053A
Encoding: 1338 1338 606
Width: 655
Flags: W
HStem: -10 75<184 291.5> 451 75<325 484 563 659>
VStem: 28 96<86.5 162.5>
Fore
227 -10 m 0
 141 -10 28 22 28 151 c 0
 28 165 30 180 33 195 c 2
 60 321 l 2
 80 420 170 523 341 526 c 2
 484 526 l 1
 524 718 l 1
 616 718 l 1
 576 526 l 1
 675 526 l 1
 659 451 l 1
 563 451 l 1
 508 195 l 2
 489 98 398 -7 227 -10 c 0
124 156 m 0
 124 105 154 65 243 65 c 0
 340 65 389 99 415 202 c 2
 468 451 l 1
 325 451 l 1
 318 452 l 1
 304 453 l 2
 274 453 186 446 152 309 c 2
 130 202 l 2
 126 185 124 169 124 156 c 0
EndSplineSet
EndChar
StartChar: uni053B
Encoding: 1339 1339 607
Width: 699
Flags: W
HStem: 0 21G<-15 79> 486 89<281.5 430> 712 20G<141 239>
VStem: 522 95<334 415>
Fore
383 575 m 0
 477 575 607 552 617 402 c 2
 617 359 l 2
 613 304 598 240 587 186 c 1
 493 186 l 1
 493 186 522 300 522 368 c 0
 522 462 442 486 377 486 c 0
 186 486 163 386 140 286 c 2
 79 0 l 1
 -15 0 l 1
 141 732 l 1
 239 732 l 1
 193 518 l 1
 215 552 323 575 383 575 c 0
EndSplineSet
EndChar
StartChar: uni053C
Encoding: 1340 1340 608
Width: 417
Flags: W
HStem: 0 94<132 297>
Fore
17 0 m 1
 169 716 l 1
 264 716 l 1
 132 94 l 1
 317 93 l 1
 297 0 l 1
 17 0 l 1
EndSplineSet
EndChar
StartChar: uni053D
Encoding: 1341 1341 609
Width: 853
Flags: W
HStem: -12 85<387 561.5> 507 20G<724 819>
VStem: 242 96<118 211>
Fore
474 -12 m 0
 300 -12 242 61 242 175 c 0
 242 217 249 259 258 302 c 0
 289 449 l 1
 181 448 l 1
 85 0 l 1
 -10 0 l 1
 144 723 l 1
 239 723 l 1
 198 528 l 1
 400 527 l 1
 353 303 l 2
 344 262 338 226 338 196 c 0
 338 91 427 74 484 73 c 0
 639 73 657 229 669 273 c 0
 677 297 716 491 724 527 c 1
 819 527 l 1
 772 302 l 2
 745 179 698 72 605 21 c 0
 538 -17 505 -12 474 -12 c 0
EndSplineSet
EndChar
StartChar: uni053E
Encoding: 1342 1342 610
Width: 791
Flags: W
HStem: -4 74<213 375> 627 80<695 727.5>
VStem: 28 82<182 330.5> 620 87<285.5 443.5>
Fore
199 762 m 1
 196 723 218 707 284 707 c 2
 699 707 l 2
 756 707 799 694 819 662 c 1
 825 646 l 1
 746 583 l 1
 746 584 746 585 746 587 c 0
 746 622 725 627 695 627 c 2
 569 628 l 2
 575 628 590 619 614 601 c 0
 673 557 707 489 707 398 c 0
 707 211 594 121 549 87 c 0
 470 26 385 -4 294 -4 c 0
 132 -4 28 110 28 254 c 0
 28 392 115 523 237 600 c 0
 269 620 287 630 294 631 c 1
 213 632 l 2
 158 632 103 647 103 696 c 0
 103 700 103 704 104 708 c 0
 108 721 l 1
 199 762 l 1
306 70 m 0
 444 70 620 194 620 377 c 0
 620 496 543 582 427 582 c 0
 252 582 110 399 110 262 c 0
 110 224 137 73 306 70 c 0
EndSplineSet
EndChar
StartChar: uni053F
Encoding: 1343 1343 611
Width: 711
Flags: W
HStem: 1 21G<461 558> 159 88<216.5 425> 713 20G<152 246>
VStem: 81 96<303 383>
Fore
177 369 m 0
 177 265 264 249 323 247 c 0
 527 247 544 373 565 477 c 2
 582 553 l 1
 677 553 l 1
 558 1 l 1
 461 1 l 1
 507 216 l 1
 490 192 423 159 316 159 c 0
 117 159 81 263 81 343 c 0
 81 396 92 451 97 476 c 2
 152 733 l 1
 246 733 l 1
 191 477 l 2
 182 432 177 397 177 369 c 0
EndSplineSet
EndChar
StartChar: uni0540
Encoding: 1344 1344 612
Width: 588
Flags: W
HStem: 639 86<563 597>
Fore
627 607 m 1
 617 623 l 1
 607 633 595 638 581 639 c 0
 547 639 507 605 495 593 c 2
 154 265 l 1
 501 89 l 1
 466 -74 l 1
 434 -74 l 1
 435 -52 l 2
 432 -6 393 34 344 59 c 2
 2 229 l 1
 468 669 l 1
 495 696 537 725 589 725 c 0
 605 725 638 721 649 710 c 1
 627 607 l 1
EndSplineSet
EndChar
StartChar: uni0541
Encoding: 1345 1345 613
Width: 663
Flags: W
HStem: -10 74<140 158> 161 76<118 165.5> 653 75<360 458>
VStem: 0 85<68 103> 532 95<515 613.5>
Fore
532 522 m 0
 532 627 426 653 398 653 c 0
 342 653 285 628 243 577 c 0
 211 540 204 490 192 434 c 1
 98 436 l 1
 110 492 114 535 145 580 c 0
 199 671 306 728 414 728 c 0
 502 728 627 690 627 537 c 0
 627 519 626 500 622 482 c 0
 608 419 l 2
 581 289 483 165 350 84 c 1
 372 61 393 21 411 -8 c 1
 331 -42 l 1
 308 -18 289 4 273 36 c 1
 242 23 204 0 145 -10 c 2
 125 -11 l 2
 19 -11 0 48 0 88 c 0
 0 118 23 233 151 237 c 0
 170 237 188 234 204 229 c 2
 215 226 l 2
 251 217 294 182 307 138 c 1
 367 171 485 278 517 429 c 2
 527 473 l 2
 530 491 532 508 532 522 c 0
140 161 m 0
 96 161 85 108 85 97 c 0
 85 83 98 73 122 66 c 1
 140 64 l 2
 176 64 213 89 225 99 c 1
 219 113 191 161 140 161 c 0
EndSplineSet
EndChar
StartChar: uni0542
Encoding: 1346 1346 614
Width: 665
Flags: W
HStem: 0 75<492 573> 653 75<311.5 471>
VStem: 496 95<557.5 602>
Fore
393 728 m 0
 549 728 591 639 591 564 c 0
 591 551 590 537 587 523 c 2
 492 75 l 1
 589 75 l 1
 573 0 l 1
 381 0 l 1
 491 517 l 2
 494 535 496 551 496 564 c 0
 496 640 427 652 377 653 c 0
 289 653 227 618 207 517 c 2
 163 313 l 1
 68 313 l 1
 113 523 l 2
 134 624 230 728 393 728 c 0
EndSplineSet
EndChar
StartChar: uni0543
Encoding: 1347 1347 615
Width: 665
Flags: W
HStem: 0 96<-30 548>
Fore
304 643 m 1
 321 638 357 627 385 606 c 1
 440 648 540 695 607 724 c 1
 659 657 l 1
 618 640 494 587 451 557 c 1
 456 557 471 535 493 491 c 0
 540 405 566 296 566 176 c 0
 566 119 561 60 548 0 c 1
 -30 0 l 1
 10 182 107 355 226 474 c 0
 264 514 287 535 293 536 c 1
 279 547 250 562 229 572 c 1
 304 643 l 1
480 96 m 1
 478 165 l 1
 467 293 433 415 370 496 c 1
 368 496 351 478 318 443 c 0
 226 342 145 227 93 96 c 1
 480 96 l 1
EndSplineSet
EndChar
StartChar: uni0544
Encoding: 1348 1348 616
Width: 756
Flags: W
HStem: 0 85<156.5 357.5> 708 20G<122 217>
VStem: 19 97<144.5 226>
Fore
248 0 m 0
 65 0 19 88 19 201 c 0
 19 238 25 270 34 314 c 2
 122 728 l 1
 217 728 l 1
 129 314 l 2
 121 274 116 240 116 212 c 0
 116 122 161 85 274 85 c 0
 416 85 472 165 503 314 c 2
 591 729 l 1
 790 729 l 1
 772 636 l 1
 665 635 l 1
 597 314 l 2
 554 112 467 0 248 0 c 0
EndSplineSet
EndChar
StartChar: uni0545
Encoding: 1349 1349 617
Width: 623
Flags: W
HStem: -12 75<211 306> 352 77<90 369.5> 653 75<301.5 462.5>
VStem: 10 94<148.5 169.5> 434 94<182.5 301> 482 93<529 610.5>
Fore
321 429 m 2xf8
 418 429 482 486 482 572 c 0
 482 600 471 620 448 631 c 0
 431 640 394 653 362 653 c 0
 346 653 341 653 329 650 c 0
 313 646 l 2
 292 643 230 619 217 556 c 1
 121 556 l 1
 141 646 224 728 379 728 c 0
 546 728 575 640 575 581 c 0xf4
 575 538 554 424 453 386 c 1
 485 382 528 336 528 266 c 0
 528 99 393 -12 219 -12 c 0
 203 -12 192 -12 187 -11 c 0
 145 -11 21 12 10 155 c 0
 10 168 11 181 14 194 c 1
 107 194 l 1
 105 184 104 174 104 165 c 0
 104 132 118 109 145 95 c 0
 180 77 211 63 238 63 c 0
 264 63 298 72 343 91 c 0
 424 124 434 226 434 255 c 0
 434 334 348 352 306 352 c 2
 74 352 l 1
 90 429 l 1
 321 429 l 2xf8
EndSplineSet
EndChar
StartChar: uni0546
Encoding: 1350 1350 618
Width: 773
Flags: W
HStem: 0 85<276.5 456> 635 94<86 220>
VStem: 138 94<133.5 222.5>
Fore
369 0 m 0
 184 0 138 79 138 188 c 0
 138 229 143 270 152 314 c 0
 220 635 l 1
 67 636 l 1
 86 729 l 1
 335 729 l 1
 247 314 l 2
 238 272 232 237 232 208 c 0
 232 103 320 85 379 85 c 0
 533 85 587 158 620 314 c 2
 650 454 l 1
 745 454 l 1
 715 314 l 2
 703 251 681 189 655 143 c 0
 603 57 507 -0 369 0 c 0
EndSplineSet
EndChar
StartChar: uni0547
Encoding: 1351 1351 619
Width: 603
Flags: W
HStem: -12 75<155.5 322.5>
VStem: 4 102<125.5 199.5>
Fore
221 -12 m 0
 90 -12 4 72 4 179 c 0
 4 191 6 203 8 215 c 2
 34 333 l 2
 75 531 229 606 288 625 c 1
 154 655 l 1
 172 739 l 1
 573 642 l 1
 556 559 l 1
 442 586 l 1
 430 587 l 1
 408 588 l 2
 394 588 377 586 359 583 c 0
 352 583 343 581 334 578 c 2
 307 569 l 2
 216 540 153 437 132 333 c 2
 112 242 l 2
 108 224 106 207 106 192 c 0
 106 91 189 73 210 66 c 2
 224 64 l 1
 237 63 l 2
 268 63 303 74 346 97 c 0
 389 119 418 161 430 221 c 0
 443 285 l 1
 539 285 l 1
 524 215 l 2
 513 158 424 -12 221 -12 c 0
EndSplineSet
EndChar
StartChar: uni0548
Encoding: 1352 1352 620
Width: 722
Flags: W
HStem: 1 21G<-3 91 465 560> 644 85<329.5 526>
VStem: 566 96<503.5 562.5>
Fore
560 1 m 1
 465 1 l 1
 552 414 l 2
 561 455 566 489 566 518 c 0
 566 607 520 642 408 644 c 0
 268 644 215 568 178 414 c 2
 91 1 l 1
 -3 1 l 1
 85 415 l 2
 129 624 225 729 434 729 c 0
 618 729 663 626 663 553 c 1
 662 550 663 543 662 531 c 0
 662 491 656 459 648 415 c 2
 560 1 l 1
EndSplineSet
EndChar
StartChar: uni0549
Encoding: 1353 1353 621
Width: 648
Flags: W
HStem: 653 75<343.5 464>
VStem: 519 97<521 596.5>
Fore
399 728 m 0
 529 728 616 653 616 540 c 2
 616 521 l 2
 589 343 561 294 525 251 c 0
 461 173 370 124 282 108 c 1
 425 68 l 1
 409 -14 l 1
 29 91 l 1
 48 176 l 1
 171 139 l 1
 183 140 195 141 206 143 c 0
 226 146 l 2
 288 156 455 211 496 402 c 2
 514 487 l 2
 517 504 519 519 519 533 c 0
 519 629 439 646 383 653 c 0
 334 653 285 634 243 596 c 0
 200 556 191 499 177 431 c 1
 82 430 l 1
 95 488 98 533 130 580 c 0
 183 670 288 728 399 728 c 0
EndSplineSet
EndChar
StartChar: uni054A
Encoding: 1354 1354 622
Width: 722
Flags: W
HStem: 1 21G<465 560> 644 85<329.5 526>
VStem: 565 97<503.5 567>
Fore
365 223 m 1
 270 223 l 1
 359 644 l 1
 340 644 329 643 324 641 c 2
 296 627 l 2
 210 585 181 428 169 372 c 1
 75 372 l 1
 85 415 l 2
 129 624 225 729 434 729 c 0
 618 729 663 626 663 553 c 1
 662 550 663 543 662 531 c 0
 662 491 656 459 648 415 c 2
 560 1 l 1
 465 1 l 1
 552 414 l 2
 561 455 565 489 565 518 c 0
 565 616 514 629 457 645 c 1
 374 258 l 1
 373 250 l 2
 369 241 369 225 365 223 c 1
EndSplineSet
EndChar
StartChar: uni054B
Encoding: 1355 1355 623
Width: 751
Flags: W
HStem: -2 21G<-32 58> 52 77<70 213> 355 79<137 257.5> 660 75<348 433.5>
VStem: 552 84<8.5 73> 585 77<450 518>
Fore
158 434 m 2xf4
 357 434 493 388 500 281 c 1
 516 304 l 2
 538 336 585 416 585 499 c 0
 585 535 578 555 564 588 c 0
 539 639 442 660 406 660 c 2
 392 660 l 1
 375 658 l 1
 344 652 l 2
 245 627 164 536 137 434 c 1
 158 434 l 2xf4
526 131 m 2
 575 131 636 112 636 34 c 0
 636 21 635 7 632 -8 c 1
 550 -5 l 1
 551 1 552 6 552 11 c 0xf8
 552 38 532 51 493 52 c 2
 70 52 l 1
 58 -2 l 1
 -32 -2 l 1
 8 184 l 1
 98 184 l 1
 86 129 l 1
 213 129 l 2
 256 129 391 145 411 237 c 2
 414 250 l 1
 414 258 l 2
 412 319 321 355 157 355 c 2
 78 357 l 2
 67 357 60 357 53 358 c 0
 48 358 44 359 41 360 c 1
 60 449 l 2
 78 529 93 550 155 631 c 0
 188 670 265 735 431 735 c 0
 436 735 445 735 456 733 c 0
 520 733 598 696 643 631 c 0
 654 615 663 572 663 532 c 0
 663 526 662 521 662 515 c 0
 662 385 547 200 403 131 c 1
 526 131 l 2
EndSplineSet
EndChar
StartChar: uni054C
Encoding: 1356 1356 624
Width: 750
Flags: W
HStem: 1 21G<-3 91> 169 81<592 613> 644 85<329.5 526>
VStem: 566 96<496 562.5>
Fore
613 250 m 1
 688 250 l 1
 672 170 l 1
 592 169 l 1
 558 2 l 1
 465 1 l 1
 552 414 l 2
 561 455 566 489 566 518 c 0
 566 607 520 642 408 644 c 0
 268 644 215 568 178 414 c 2
 91 1 l 1
 -3 1 l 1
 85 415 l 2
 129 624 225 729 434 729 c 0
 618 729 663 626 663 553 c 1
 662 550 663 543 662 531 c 0
 662 461 627 317 613 250 c 1
EndSplineSet
EndChar
StartChar: uni054D
Encoding: 1357 1357 625
Width: 722
Flags: W
HStem: -12 85<211.5 370>
VStem: 52 95<107 210.5>
Fore
147 195 m 0
 147 97 228 75 295 73 c 0
 445 73 501 141 537 303 c 2
 624 716 l 1
 719 716 l 1
 631 302 l 2
 606 175 565 88 460 28 c 0
 412 1 354 -12 285 -12 c 0
 138 -12 52 37 52 177 c 0
 52 203 54 229 68 302 c 2
 156 716 l 1
 250 716 l 1
 163 303 l 2
 154 261 147 226 147 195 c 0
EndSplineSet
EndChar
StartChar: uni054E
Encoding: 1358 1358 626
Width: 748
Flags: W
HStem: 1 94<580 650> 159 88<228.5 369.5> 709 20G<619 714>
VStem: 82 95<291 382.5>
Fore
177 369 m 0
 177 265 264 248 324 247 c 0
 398 247 453 266 494 299 c 0
 532 330 550 405 566 477 c 2
 619 729 l 1
 714 729 l 1
 580 95 l 1
 670 95 l 1
 650 1 l 1
 462 1 l 1
 507 216 l 1
 492 192 423 159 316 159 c 0
 141 159 82 238 82 344 c 0
 82 420 106 513 119 577 c 1
 213 577 l 1
 192 477 l 2
 182 432 177 396 177 369 c 0
EndSplineSet
EndChar
StartChar: uni054F
Encoding: 1359 1359 627
Width: 667
Flags: W
HStem: -12 85<161 346.5> 645 83<331.5 495.5>
VStem: 13 93<143.5 216> 106 94<412.5 555> 535 93<523.5 560>
Fore
271 -12 m 0
 51 -12 13 103 13 184 c 0
 13 199 15 214 18 230 c 1
 108 238 l 1
 107 229 106 220 106 212 c 0
 106 132 157 96 227 78 c 1
 254 74 l 1
 285 73 l 2
 408 73 491 140 491 217 c 0
 491 249 475 276 426 295 c 0
 344 333 106 342 106 483 c 0
 106 487 106 492 106 496 c 0
 106 552 129 596 161 632 c 0
 212 690 299 728 403 728 c 0
 588 728 615 641 631 563 c 0
 631 558 628 531 628 525 c 0
 628 522 627 519 626 514 c 1
 534 507 l 1
 535 514 535 522 535 528 c 0
 535 592 504 643 389 645 c 0
 274 645 200 594 200 516 c 0
 200 476 223 452 348 423 c 0
 519 383 582 357 586 229 c 0
 562 61 405 -12 271 -12 c 0
EndSplineSet
EndChar
StartChar: uni0550
Encoding: 1360 1360 628
Width: 699
Flags: W
HStem: 1 21G<-3 91> 644 85<329.5 526>
VStem: 566 96<497.5 562.5>
Fore
622 294 m 1
 527 294 l 1
 552 414 l 2
 561 455 566 489 566 518 c 0
 566 607 520 642 408 644 c 0
 268 644 215 568 178 414 c 2
 91 1 l 1
 -3 1 l 1
 85 415 l 2
 129 624 225 729 434 729 c 0
 618 729 663 626 663 553 c 1
 662 550 663 543 662 531 c 0
 662 464 636 357 622 294 c 1
EndSplineSet
EndChar
StartChar: uni0551
Encoding: 1361 1361 629
Width: 623
Flags: W
HStem: -12 75<150 327> 359 73<279.5 374.5> 652 76<280 465.5>
VStem: 23 93<118 176.5> 114 93<468 546> 448 97<195.5 297.5> 495 95<527.5 629>
Fore
250 63 m 2xf4
 362 63 448 139 448 252 c 0xf4
 448 343 372 353 325 358 c 2
 314 359 l 2
 245 359 194 341 164 306 c 1
 58 307 l 1
 71 333 94 372 174 404 c 1
 157 410 114 438 114 498 c 0
 114 587 169 728 391 728 c 0
 540 728 590 672 590 586 c 0xea
 590 472 503 418 468 406 c 1
 530 391 545 304 545 273 c 0
 545 118 420 -12 234 -12 c 0
 66 -12 23 80 23 156 c 0
 23 171 24 186 27 203 c 1
 120 203 l 1
 118 192 116 181 116 172 c 0
 116 113 174 83 198 73 c 2
 231 65 l 1
 250 63 l 2xf4
495 569 m 0xea
 495 637 414 652 374 652 c 0
 366 652 357 652 343 649 c 0
 327 646 l 2
 245 630 207 571 207 521 c 0
 207 469 260 432 328 432 c 0
 421 432 495 486 495 569 c 0xea
EndSplineSet
EndChar
StartChar: uni0552
Encoding: 1362 1362 630
Width: 417
Flags: W
HStem: 0 21G<-1 94> 395 80<178 358>
Fore
153 723 m 1
 248 723 l 1
 195 475 l 1
 375 475 l 1
 358 395 l 1
 178 395 l 1
 94 0 l 1
 -1 0 l 1
 153 723 l 1
EndSplineSet
EndChar
StartChar: uni0553
Encoding: 1363 1363 631
Width: 785
Flags: W
HStem: 1 21G<268 362>
VStem: 33 97<188 331.5> 654 95<285.5 509.5>
Fore
278 48 m 1
 227 55 33 95 33 281 c 0
 33 382 73 490 150 556 c 0
 228 621 300 656 410 670 c 1
 422 725 l 1
 516 725 l 1
 504 670 l 1
 512 670 l 2
 515 670 518 670 522 669 c 2
 543 665 l 2
 645 642 749 576 749 443 c 0
 749 128 444 55 372 48 c 1
 362 1 l 1
 268 1 l 1
 278 48 l 1
393 591 m 1
 217 572 130 419 130 306 c 0
 130 303 130 299 130 295 c 0
 130 160 257 134 295 126 c 1
 393 591 l 1
389 126 m 1
 636 170 654 370 654 417 c 0
 654 521 592 577 487 591 c 1
 389 126 l 1
EndSplineSet
EndChar
StartChar: uni0554
Encoding: 1364 1364 632
Width: 638
Flags: W
HStem: 0 21G<46 139> 121 78<1 88 164 546> 275 77<307 421> 653 75<366 475.5>
VStem: 536 95<503 633.5>
Fore
438 728 m 0
 513 728 631 703 631 564 c 0
 631 557 633 549 631 541 c 0
 627 521 l 2
 580 289 406 275 352 275 c 0
 262 275 220 314 211 335 c 1
 182 199 l 1
 563 199 l 1
 546 121 l 1
 164 121 l 1
 139 0 l 1
 46 0 l 1
 71 121 l 1
 -16 121 l 1
 1 199 l 1
 88 199 l 1
 88 199 161 542 163 549 c 0
 201 648 294 728 438 728 c 0
536 556 m 0
 536 616 485 651 422 653 c 0
 363 653 273 618 251 518 c 2
 241 472 l 2
 240 465 239 459 239 452 c 0
 239 398 290 352 369 352 c 0
 473 352 536 450 536 556 c 0
EndSplineSet
EndChar
StartChar: uni0555
Encoding: 1365 1365 633
Width: 778
Flags: W
HStem: -12 81<204 458.5> 647 82<317.5 525.5>
VStem: 38 96<206 328.5> 645 98<330 565>
Fore
312 -12 m 0
 96 -12 38 146 38 266 c 0
 38 391 97 537 201 627 c 0
 278 694 369 728 470 729 c 0
 581 729 743 674 743 456 c 0
 743 204 569 70 494 33 c 0
 434 3 373 -12 312 -12 c 0
453 647 m 0
 182 647 134 341 134 265 c 0
 134 147 208 69 328 69 c 0
 589 69 645 359 645 439 c 0
 645 605 536 647 453 647 c 0
EndSplineSet
EndChar
StartChar: uni0556
Encoding: 1366 1366 634
Width: 716
Flags: W
HStem: -8 74<192 237> 433 75<406 546.5> 653 72<330 373>
VStem: -4 93<142 152.5> 129 71<540 582> 566 98<318 379>
Fore
566 326 m 0
 566 370 543 433 452 433 c 2
 406 433 l 1
 328 67 l 1
 374 67 l 2
 446 67 526 111 548 218 c 2
 560 273 l 2
 564 293 566 310 566 326 c 0
320 654 m 2
 224 654 200 603 200 561 c 0
 200 519 243 506 295 506 c 0
 313 506 l 0
 319 506 325 506 330 507 c 1
 361 653 l 1
 342 653 l 1
 320 654 l 2
270 435 m 2
 242 435 130 456 130 521 c 1
 128 524 128 530 128 536 c 0
 128 543 128 550 129 555 c 0
 129 577 143 638 182 672 c 0
 226 714 287 725 373 725 c 2
 468 725 l 1
 422 508 l 1
 468 508 l 2
 625 508 664 414 664 344 c 0
 664 330 663 314 660 298 c 0
 642 212 l 2
 624 122 536 -5 358 -8 c 2
 225 -8 l 1
 198 -9 l 2
 38 -9 7 79 -2 112 c 2
 -4 142 l 1
 -4 152 -2 163 0 175 c 1
 93 175 l 1
 91 166 89 157 89 148 c 0
 98 87 147 66 237 66 c 1
 315 434 l 1
 270 435 l 2
EndSplineSet
EndChar
StartChar: uni055A
Encoding: 1370 1370 635
Width: 222
Flags: W
Fore
64 621 m 1
 86 723 l 1
 180 723 l 1
 163 643 l 2
 144 549 113 518 49 489 c 1
 35 523 l 1
 74 536 100 574 109 621 c 1
 64 621 l 1
EndSplineSet
EndChar
StartChar: uni055B
Encoding: 1371 1371 636
Width: 133
Flags: W
Fore
10 588 m 1
 126 718 l 1
 167 718 l 1
 35 588 l 1
 10 588 l 1
EndSplineSet
EndChar
StartChar: uni055C
Encoding: 1372 1372 637
Width: 325
Flags: W
HStem: 639 46<91 122> 640 45<134 156>
Fore
112 639 m 2x80
 70 639 54 623 31 602 c 1
 16 585 l 1
 18 632 l 1
 34 652 80 685 122 685 c 2x80
 156 685 l 1
 215 682 l 2
 248 682 281 701 300 716 c 2
 317 730 l 1
 308 685 l 1
 291 670 l 2
 273 655 245 640 212 640 c 0
 134 640 l 1x40
 112 639 l 2x80
EndSplineSet
EndChar
StartChar: uni055D
Encoding: 1373 1373 638
Width: 333
Flags: W
Fore
212 583 m 1
 141 583 l 1
 58 720 l 1
 176 720 l 1
 212 583 l 1
EndSplineSet
EndChar
StartChar: uni055E
Encoding: 1374 1374 639
Width: 344
Flags: W
HStem: 595 41<169 232> 665 20G<113 157> 739 43<150 253.5>
VStem: 109 46<629 670.5> 257 47<692 740>
Fore
189 739 m 0
 111 739 72 702 51 609 c 1
 4 609 l 1
 10 639 l 1
 20 663 l 2
 41 723 101 782 222 782 c 0
 285 782 304 758 304 722 c 0
 304 671 280 595 184 595 c 0
 154 595 109 604 109 654 c 0
 109 663 111 673 113 685 c 1
 157 685 l 1
 156 679 155 673 155 668 c 0
 155 648 162 638 195 636 c 0
 248 636 257 678 257 706 c 0
 257 729 245 735 189 739 c 0
EndSplineSet
EndChar
StartChar: uni0561
Encoding: 1377 1377 640
Width: 833
Flags: W
HStem: -10 76<126.5 221 440 579>
VStem: 40 90<68 140.5>
Fore
130 132 m 0
 130 79 174 66 205 66 c 0
 237 66 335 77 364 219 c 2
 428 520 l 1
 516 520 l 1
 445 183 l 2
 441 165 439 149 439 135 c 0
 439 90 460 66 512 66 c 0
 646 66 671 214 679 251 c 2
 736 520 l 1
 824 520 l 1
 714 1 l 1
 635 1 l 1
 651 74 l 1
 615 31 550 -10 476 -10 c 0
 404 -10 357 19 349 81 c 1
 295 20 236 -10 170 -10 c 0
 83 -10 40 29 40 107 c 0
 40 124 42 143 46 164 c 0
 121 520 l 1
 209 520 l 1
 140 193 l 2
 135 169 130 149 130 132 c 0
EndSplineSet
EndChar
StartChar: uni0562
Encoding: 1378 1378 641
Width: 556
Flags: W
HStem: 0 96<129 459> 454 75<292.5 425.5>
VStem: 448 93<360.5 402>
Fore
501 189 m 1
 413 189 l 1
 413 189 448 344 448 377 c 0
 448 377 448 378 448 379 c 0
 448 427 412 454 363 454 c 0
 222 454 196 316 187 277 c 2
 150 96 l 1
 480 96 l 1
 459 0 l 1
 129 0 l 1
 83 -211 l 1
 -5 -211 l 1
 150 518 l 1
 229 518 l 1
 213 441 l 1
 265 500 327 529 396 529 c 0
 455 529 506 504 528 468 c 0
 536 452 540 431 541 402 c 0
 541 366 509 227 501 189 c 1
EndSplineSet
EndChar
StartChar: uni0563
Encoding: 1379 1379 642
Width: 572
Flags: W
HStem: -12 73<191 325.5> 0 79<450 527> 461 69<251 369.5>
VStem: 48 90<104 219>
Fore
224 -12 m 0xb0
 158 -12 48 27 48 181 c 0
 48 228 62 329 112 400 c 0
 155 468 231 530 333 530 c 0
 406 530 441 503 467 451 c 1
 481 519 l 1
 561 519 l 1
 467 79 l 1
 544 79 l 1
 527 0 l 1
 450 0 l 1x70
 405 -209 l 1
 319 -208 l 1
 374 54 l 1
 339 19 290 -10 224 -12 c 0xb0
246 61 m 0xb0
 405 61 434 279 434 329 c 0
 434 408 390 461 327 461 c 0
 175 461 138 251 138 187 c 0
 138 86 202 61 246 61 c 0xb0
EndSplineSet
EndChar
StartChar: uni0564
Encoding: 1380 1380 643
Width: 581
Flags: W
HStem: 0 62<434 534> 440 75<307.5 446>
VStem: 426 92<375 433.5>
Fore
398 515 m 0
 494 515 518 456 518 411 c 0
 518 403 518 394 516 385 c 0
 448 62 l 1
 548 62 l 1
 534 0 l 1
 434 0 l 1
 390 -209 l 1
 304 -209 l 1
 422 347 l 2
 425 359 426 370 426 380 c 0
 426 420 405 439 362 440 c 0
 253 440 202 349 184 270 c 2
 126 0 l 1
 40 0 l 1
 148 505 l 1
 231 505 l 1
 214 425 l 1
 242 456 288 515 398 515 c 0
EndSplineSet
EndChar
StartChar: uni0565
Encoding: 1381 1381 644
Width: 550
Flags: W
HStem: -11 76<129 264> 427 93<184 501>
Fore
107 143 m 0
 107 81 159 65 194 65 c 0
 334 65 361 199 369 236 c 2
 389 333 l 1
 476 333 l 1
 406 0 l 1
 327 0 l 1
 342 74 l 1
 292 18 232 -11 159 -11 c 0
 99 -11 18 3 14 115 c 0
 17 145 21 172 27 200 c 0
 137 719 l 1
 227 721 l 1
 184 520 l 1
 521 519 l 1
 501 427 l 1
 164 427 l 1
 116 204 l 1
 111 181 107 161 107 143 c 0
EndSplineSet
EndChar
StartChar: uni0566
Encoding: 1382 1382 645
Width: 588
Flags: W
HStem: -209 58<414 501> -14 70<149.5 287.5> 449 69<255 372>
VStem: 54 90<160.5 218.5>
Fore
334 518 m 0
 410 518 449 484 460 451 c 1
 472 505 l 1
 554 505 l 1
 414 -151 l 1
 513 -151 l 1
 501 -209 l 1
 317 -209 l 1
 374 62 l 1
 340 21 280 -14 207 -14 c 0
 92 -14 60 65 54 183 c 0
 59 289 106 390 164 445 c 0
 202 481 258 518 334 518 c 0
249 56 m 0
 326 56 425 169 425 325 c 0
 425 430 366 449 328 449 c 0
 182 449 144 249 144 188 c 0
 144 133 159 62 249 56 c 0
EndSplineSet
EndChar
StartChar: uni0567
Encoding: 1383 1383 646
Width: 448
Flags: W
HStem: 0 74<132 178> 401 77<201 378>
Fore
270 74 m 1
 229 -121 l 1
 154 -119 l 1
 178 0 l 1
 30 0 l 1
 183 721 l 1
 269 721 l 1
 218 478 l 1
 395 478 l 1
 378 401 l 1
 201 401 l 1
 132 74 l 1
 270 74 l 1
EndSplineSet
EndChar
StartChar: uni0568
Encoding: 1384 1384 647
Width: 556
Flags: W
HStem: -206 90<-15 93> -1 21G<362 450> 454 75<281 416>
VStem: 437 93<373 403>
Fore
385 529 m 0
 447 529 526 507 530 402 c 0
 530 360 461 49 450 -1 c 1
 362 -1 l 1
 423 287 l 2
 432 329 437 358 437 373 c 0
 437 379 l 0
 437 427 401 454 351 454 c 0
 211 454 185 316 176 277 c 2
 93 -116 l 1
 421 -116 l 1
 402 -208 l 1
 -15 -206 l 1
 139 518 l 1
 218 518 l 1
 202 441 l 1
 254 500 315 529 385 529 c 0
EndSplineSet
EndChar
StartChar: uni0569
Encoding: 1385 1385 648
Width: 568
Flags: W
HStem: -15 65<287 386> 213 60<520 568> 457 61<332.5 405>
VStem: 199 69<58.5 126.5> 482 70<360.5 404>
Fore
199 93 m 0
 199 132 238 273 383 276 c 2
 466 276 l 1
 480 341 l 1
 481 349 482 357 482 364 c 0
 482 428 439 455 372 457 c 0
 293 457 215 409 181 300 c 2
 71 -220 l 1
 -11 -221 l 1
 146 505 l 1
 224 505 l 1
 210 440 l 1
 241 481 289 512 339 516 c 2
 372 518 l 1
 438 518 495 507 522 470 c 0
 539 447 552 421 552 387 c 0
 552 376 551 365 548 353 c 2
 531 273 l 1
 580 273 l 1
 568 213 l 1
 520 213 l 1
 506 152 486 -12 325 -15 c 0
 249 -15 199 24 199 93 c 0
361 215 m 2
 305 215 268 146 268 107 c 0
 268 71 302 50 339 50 c 0
 433 50 444 156 456 215 c 1
 361 215 l 2
EndSplineSet
EndChar
StartChar: uni056A
Encoding: 1386 1386 649
Width: 582
Flags: W
HStem: -14 70<172 281> 443 68<503 601>
VStem: 18 89<98.5 232>
Fore
143 -10 m 1
 118 -10 18 26 18 171 c 0
 18 293 76 417 166 475 c 0
 202 500 242 512 288 512 c 2
 428 512 l 1
 473 723 l 1
 562 723 l 1
 517 511 l 1
 615 511 l 1
 601 443 l 1
 503 443 l 1
 453 210 l 2
 434 103 334 -14 186 -14 c 2
 172 -14 l 2
 165 -13 159 -13 154 -12 c 0
 150 -12 146 -11 143 -10 c 1
107 175 m 0
 107 86 146 57 209 56 c 0
 353 56 371 236 417 446 c 1
 295 446 l 2
 136 446 107 232 107 175 c 0
EndSplineSet
EndChar
StartChar: uni056B
Encoding: 1387 1387 650
Width: 545
Flags: W
HStem: 0 21G<346 434> 455 75<313.5 425.5>
VStem: 421 93<367.5 440>
Fore
367 530 m 0
 484 530 514 466 514 414 c 0
 514 386 508 351 504 329 c 2
 434 0 l 1
 346 0 l 1
 416 329 l 2
 419 346 421 361 421 374 c 0
 421 427 393 453 333 455 c 0
 294 455 196 444 160 284 c 2
 56 -205 l 1
 -32 -205 l 1
 164 716 l 1
 252 716 l 1
 197 459 l 1
 248 506 305 530 367 530 c 0
EndSplineSet
EndChar
StartChar: uni056C
Encoding: 1388 1388 651
Width: 301
Flags: W
HStem: -208 83<88 170>
Fore
187 -125 m 1
 170 -208 l 1
 -16 -208 l 1
 137 519 l 1
 224 519 l 1
 88 -125 l 1
 187 -125 l 1
EndSplineSet
EndChar
StartChar: uni056D
Encoding: 1389 1389 652
Width: 799
Flags: W
HStem: -13 76<396 529.5> 439 81<191 450>
VStem: 281 93<59.5 151>
Fore
426 -13 m 0
 366 -13 281 6 281 113 c 0
 283 144 287 171 293 199 c 0
 344 439 l 1
 191 439 l 1
 53 -210 l 1
 -32 -210 l 1
 164 713 l 1
 249 713 l 1
 208 520 l 1
 450 520 l 1
 382 202 l 2
 377 179 374 160 374 142 c 0
 374 79 423 65 460 63 c 0
 599 63 626 197 634 234 c 2
 695 518 l 1
 783 518 l 1
 672 -1 l 1
 593 -1 l 1
 609 73 l 1
 559 16 498 -12 426 -13 c 0
EndSplineSet
EndChar
StartChar: uni056E
Encoding: 1390 1390 653
Width: 556
Flags: W
HStem: -14 70<118 270> 446 64<408 540> 456 61<210 331>
VStem: 12 88<124 195> 261 77<583.5 642.5> 384 81<241.5 383>
Fore
338 616 m 0xbc
 338 595 355 552 408 510 c 1
 554 510 l 1
 540 446 l 1
 438 446 l 1xdc
 448 438 465 399 465 339 c 0
 465 144 351 -14 189 -14 c 0
 47 -14 12 102 12 176 c 0
 12 214 29 318 46 335 c 2
 46 353 138 517 282 517 c 2
 304 518 l 1
 290 529 261 563 261 604 c 0
 261 681 344 726 372 742 c 1
 412 690 l 1
 368 675 338 651 338 616 c 0xbc
100 174 m 0
 100 74 164 56 207 56 c 0
 275 56 323 102 362 207 c 2
 376 259 l 2
 381 282 384 309 384 335 c 0
 384 431 345 456 317 456 c 0xbc
 180 456 135 371 110 256 c 0
 104 227 100 199 100 174 c 0
EndSplineSet
EndChar
StartChar: uni056F
Encoding: 1391 1391 654
Width: 554
Flags: W
HStem: -5 76<164.5 248.5>
VStem: 50 91<64.5 158>
Fore
195 -5 m 0
 134 -5 50 13 50 116 c 0
 50 138 52 165 59 197 c 0
 170 721 l 1
 258 721 l 1
 147 197 l 2
 143 180 141 165 141 151 c 0
 141 99 170 71 230 71 c 0
 267 71 372 84 403 242 c 2
 463 521 l 1
 551 521 l 1
 395 -211 l 1
 307 -210 l 1
 366 66 l 1
 315 19 258 -4 195 -5 c 0
EndSplineSet
EndChar
StartChar: uni0570
Encoding: 1392 1392 655
Width: 533
Flags: W
HStem: 0 21G<-10 78 324 412> 455 75<292.5 403.5>
VStem: 399 93<367 439>
Fore
346 530 m 0
 461 530 492 466 492 412 c 0
 492 385 487 352 482 329 c 2
 412 0 l 1
 324 0 l 1
 394 329 l 2
 397 346 399 360 399 374 c 0
 399 427 371 453 312 455 c 0
 273 455 174 444 138 284 c 2
 78 0 l 1
 -10 0 l 1
 142 716 l 1
 230 716 l 1
 175 459 l 1
 226 506 284 530 346 530 c 0
EndSplineSet
EndChar
StartChar: uni0571
Encoding: 1393 1393 656
Width: 548
Flags: W
HStem: -14 70<148 276> 716 20G<288 360>
VStem: 9 90<160.5 265.5> 387 75<300 363>
Fore
344 517 m 1
 461 492 462 375 462 343 c 0
 462 322 459 299 454 276 c 2
 395 0 l 1
 318 0 l 1
 332 63 l 1
 317 39 266 -14 180 -14 c 0
 116 -14 16 10 9 183 c 0
 9 270 46 350 107 411 c 0
 156 476 325 562 355 602 c 0
 355 612 230 605 227 645 c 0
 232 678 269 718 288 736 c 1
 360 736 l 1
 350 716 329 697 329 688 c 1
 327 682 331 677 340 673 c 1
 395 665 l 2
 446 665 458 653 458 635 c 0
 458 591 402 557 344 517 c 1
99 185 m 0
 99 136 112 58 203 56 c 0
 349 56 387 272 387 328 c 0
 387 398 346 453 292 453 c 2
 280 453 l 2
 221 453 99 346 99 185 c 0
EndSplineSet
EndChar
StartChar: uni0572
Encoding: 1394 1394 657
Width: 552
Flags: W
HStem: -209 63<368 455> 0 21G<6 92> 440 75<310.5 411.5>
VStem: 392 92<375 434>
Fore
363 515 m 0
 460 515 484 457 484 411 c 0
 484 403 483 394 481 385 c 2
 368 -146 l 1
 468 -146 l 1
 455 -209 l 1
 270 -209 l 1
 388 347 l 2
 391 359 392 370 392 380 c 0
 392 420 370 439 327 440 c 0
 294 440 191 434 152 281 c 2
 92 0 l 1
 6 0 l 1
 114 505 l 1
 196 505 l 1
 178 422 l 1
 210 453 l 1
 244 490 291 515 363 515 c 0
EndSplineSet
EndChar
StartChar: uni0573
Encoding: 1395 1395 658
Width: 552
Flags: W
HStem: 0 70<-33 418>
VStem: 362 79<135 222.5>
Fore
-33 0 m 1
 -7 195 145 376 225 461 c 1
 172 510 l 1
 234 574 l 1
 286 524 l 1
 359 595 456 675 536 731 c 1
 574 683 l 1
 345 486 l 1
 410 393 441 293 441 143 c 1
 436 87 l 1
 429 61 428 22 418 0 c 1
 -33 0 l 1
359 70 m 1
 361 96 362 122 362 148 c 0
 362 297 298 422 283 422 c 1
 281 420 241 371 238 368 c 0
 173 287 98 173 75 70 c 1
 359 70 l 1
EndSplineSet
EndChar
StartChar: uni0574
Encoding: 1396 1396 659
Width: 544
Flags: W
HStem: -10 75<93 194.5> 657 68<419.5 466>
VStem: 19 93<72.5 124> 300 85<574 658> 399 85<431.5 466>
Fore
445 657 m 2
 409 657 385 653 385 625 c 0
 385 611 394 599 403 587 c 2
 460 513 l 2
 473 494 484 470 484 442 c 0
 484 433 483 424 481 414 c 2
 393 0 l 1
 309 0 l 1
 321 56 l 1
 257 20 l 2
 233 3 186 -10 142 -10 c 0
 44 -10 19 50 19 95 c 0
 19 102 20 109 21 115 c 0
 104 505 l 1
 190 505 l 1
 116 153 l 2
 113 140 112 129 112 119 c 0
 112 82 133 65 177 65 c 0
 212 65 320 70 353 214 c 2
 397 417 l 2
 398 423 399 429 399 434 c 0
 399 498 300 535 300 613 c 0
 300 703 373 725 466 725 c 2
 530 725 l 0
 535 725 539 725 543 724 c 1
 528 656 l 1
 445 657 l 2
EndSplineSet
EndChar
StartChar: uni0575
Encoding: 1397 1397 660
Width: 222
Flags: W
HStem: -210 77<-66.5 1.5>
Fore
-122 -201 m 1
 -89 -126 l 1
 -71 -131 -58 -133 -49 -133 c 0
 0 -133 10 -97 27 -26 c 2
 142 519 l 1
 230 519 l 1
 114 -28 l 2
 93 -133 57 -210 -54 -210 c 0
 -79 -210 -102 -208 -122 -201 c 1
EndSplineSet
EndChar
StartChar: uni0576
Encoding: 1398 1398 661
Width: 544
Flags: W
HStem: 0 21G<310 390> 665 61<286 386>
Fore
110 124 m 0
 110 74 144 63 174 61 c 0
 181 61 188 62 196 63 c 0
 252 63 307 98 345 198 c 2
 410 505 l 1
 497 505 l 1
 390 0 l 1
 310 0 l 1
 328 83 l 1
 293 53 l 2
 231 -11 178 -8 142 -10 c 0
 115 -10 99 -6 79 0 c 1
 64 9 l 2
 40 25 17 48 19 79 c 0
 21 112 l 1
 112 537 l 2
 140 654 238 726 334 726 c 2
 399 726 l 1
 386 665 l 1
 219 665 214 590 190 511 c 2
 112 148 l 2
 110 139 110 132 110 124 c 0
EndSplineSet
EndChar
StartChar: uni0577
Encoding: 1399 1399 662
Width: 456
Flags: W
HStem: -209 63<190 317> 432 78<261 336.5>
VStem: 356 80<329 415>
Fore
356 342 m 0
 356 391 325 432 278 432 c 0
 244 432 208 414 169 376 c 1
 138 434 l 1
 179 474 232 507 299 510 c 0
 374 510 436 455 436 375 c 0
 436 293 378 229 329 173 c 2
 285 125 l 2
 245 82 85 -85 85 -118 c 0
 85 -138 115 -148 175 -148 c 2
 187 -148 l 1
 213 -146 242 -146 271 -146 c 0
 291 -146 311 -146 330 -146 c 1
 317 -209 l 1
 190 -209 l 2
 123 -209 112 -208 72 -205 c 1
 61 -204 l 1
 51 -202 l 2
 45 -202 12 -190 -1 -172 c 0
 -4 -163 -5 -148 -6 -128 c 1
 3 -85 41 -46 68 -13 c 2
 332 278 l 2
 346 294 356 316 356 342 c 0
EndSplineSet
EndChar
StartChar: uni0578
Encoding: 1400 1400 663
Width: 556
Flags: W
HStem: -1 21G<13 101 346 434> 454 75<264.5 397>
VStem: 420 93<364.5 402 379 456>
Fore
369 529 m 0
 425 529 513 510 513 402 c 0
 513 401 513 399 513 397 c 0
 513 380 506 337 502 320 c 2
 434 -1 l 1
 346 -1 l 1
 407 287 l 2
 416 328 420 357 420 372 c 0
 420 375 420 377 420 379 c 0
 420 380 420 381 420 383 c 0
 420 428 383 454 335 454 c 0
 194 454 167 310 160 277 c 2
 101 -1 l 1
 13 -1 l 1
 123 518 l 1
 202 518 l 1
 186 441 l 1
 238 500 299 529 369 529 c 0
EndSplineSet
EndChar
StartChar: uni0579
Encoding: 1401 1401 664
Width: 390
Flags: W
HStem: -209 63<201 279>
VStem: -23 91<-138 -117> 226 91<192.5 221>
Fore
226 196 m 0
 226 245 131 274 122 332 c 1
 127 356 203 443 236 476 c 0
 280 521 l 1
 362 502 l 1
 272 417 l 2
 208 351 215 339 217 338 c 1
 266 284 l 2
 280 270 317 236 317 206 c 0
 317 184 301 164 281 143 c 2
 192 49 l 2
 74 -73 71 -85 68 -117 c 0
 69 -138 98 -148 155 -148 c 2
 166 -148 l 1
 172 -147 177 -147 184 -147 c 0
 192 -147 l 2
 197 -147 200 -147 201 -146 c 2
 293 -146 l 1
 279 -209 l 1
 172 -209 l 2
 122 -209 89 -208 70 -206 c 0
 52 -206 -1 -199 -16 -172 c 0
 -20 -163 -23 -148 -23 -128 c 1
 -21 -109 l 1
 -13 -75 14 -46 36 -21 c 2
 217 174 l 2
 223 181 226 189 226 196 c 0
EndSplineSet
EndChar
StartChar: uni057A
Encoding: 1402 1402 665
Width: 833
Flags: W
HStem: -10 76<147.5 242 462 600>
VStem: 61 91<68 139.5>
Fore
152 131 m 0
 152 79 196 66 226 66 c 0
 258 66 354 75 386 219 c 2
 450 520 l 1
 538 520 l 1
 466 183 l 2
 462 166 461 150 461 136 c 0
 461 91 481 66 533 66 c 0
 667 66 693 214 701 251 c 2
 758 520 l 1
 846 520 l 1
 690 -213 l 1
 611 -213 l 1
 672 74 l 1
 638 31 570 -10 497 -10 c 0
 427 -10 377 19 371 81 c 1
 317 20 257 -10 191 -10 c 0
 104 -10 61 29 61 107 c 0
 61 124 63 143 67 164 c 0
 143 520 l 1
 231 520 l 1
 161 193 l 2
 156 168 152 148 152 131 c 0
EndSplineSet
EndChar
StartChar: uni057B
Encoding: 1403 1403 666
Width: 509
Flags: W
HStem: -209 63<263 334> 458 74<234.5 318>
VStem: 68 70<260 383.5> 178 56<49 111> 428 72<341.5 430>
Fore
68 277 m 0
 68 490 268 532 318 532 c 2
 351 531 l 2
 383 531 500 497 500 363 c 0
 500 320 492 259 427 166 c 2
 397 129 l 1
 361 90 l 2
 335 64 308 44 273 18 c 2
 209 -26 l 2
 145 -70 113 -99 113 -117 c 0
 113 -137 146 -147 217 -148 c 2
 228 -148 l 1
 233 -147 239 -147 245 -147 c 0
 253 -147 l 2
 258 -147 261 -147 263 -146 c 2
 348 -146 l 1
 334 -209 l 1
 187 -209 l 2
 86 -209 25 -211 18 -149 c 2
 19 -137 l 1
 25 -105 60 -79 83 -57 c 1
 102 -40 l 2
 142 -6 178 29 178 69 c 0
 178 89 169 109 150 130 c 2
 119 165 l 1
 89 195 l 2
 74 210 68 243 68 277 c 0
297 458 m 0
 172 458 137 336 137 304 c 0
 137 297 137 292 138 289 c 2
 138 271 151 244 182 201 c 2
 202 181 l 2
 222 159 234 130 234 92 c 0
 234 80 232 67 230 53 c 1
 233 55 239 60 248 67 c 2
 277 93 l 2
 399 193 417 281 427 325 c 2
 427 338 l 2
 427 342 428 345 428 349 c 1
 422 368 429 418 372 442 c 0
 348 453 324 458 297 458 c 0
EndSplineSet
EndChar
StartChar: uni057C
Encoding: 1404 1404 667
Width: 547
Flags: W
HStem: -2 78<228 388> 454 75<275.5 408>
VStem: 437 87<332.5 399.5>
Fore
437 368 m 0
 437 400 421 451 346 454 c 0
 205 454 178 311 171 277 c 2
 112 -1 l 1
 24 -1 l 1
 134 518 l 1
 213 518 l 1
 197 441 l 1
 249 500 309 529 379 529 c 0
 437 529 490 504 511 468 c 0
 520 456 524 415 524 384 c 0
 524 339 512 308 489 275 c 0
 480 259 440 205 426 193 c 0
 290 79 l 1
 406 79 l 1
 388 -2 l 1
 212 -1 l 1
 228 76 l 1
 238 76 326 162 352 191 c 0
 375 217 437 297 437 368 c 0
EndSplineSet
EndChar
StartChar: uni057D
Encoding: 1405 1405 668
Width: 533
Flags: W
HStem: -12 76<155 289>
VStem: 40 92<64 153.5>
Fore
132 141 m 0
 132 79 183 64 219 64 c 0
 359 64 386 207 393 241 c 2
 452 519 l 1
 540 519 l 1
 430 0 l 1
 352 0 l 1
 368 76 l 1
 316 18 255 -12 185 -12 c 0
 125 -12 40 13 40 115 c 0
 40 137 47 173 52 197 c 2
 120 519 l 1
 208 519 l 1
 147 231 l 2
 140 196 132 166 132 141 c 0
EndSplineSet
EndChar
StartChar: uni057E
Encoding: 1406 1406 669
Width: 610
Flags: W
HStem: -211 75<409 481> -5 76<165.5 248.5>
VStem: 50 92<64.5 159.5>
Fore
195 -5 m 0
 136 -5 50 13 50 116 c 0
 50 138 52 165 59 197 c 0
 128 521 l 1
 216 521 l 1
 147 197 l 2
 144 181 142 166 142 153 c 0
 142 99 170 71 230 71 c 0
 267 71 369 82 404 242 c 2
 505 716 l 1
 593 716 l 1
 409 -136 l 1
 497 -136 l 1
 481 -211 l 1
 308 -210 l 1
 366 66 l 1
 315 19 258 -4 195 -5 c 0
EndSplineSet
EndChar
StartChar: uni057F
Encoding: 1407 1407 670
Width: 887
Flags: W
HStem: -13 76<163.5 297> 454 75<608.5 742.5>
VStem: 764 93<375 403>
Fore
140 140 m 0
 140 78 191 63 227 63 c 0
 367 63 394 207 401 240 c 2
 460 518 l 1
 545 518 l 1
 529 441 l 1
 581 500 642 529 712 529 c 0
 773 529 820 504 844 468 c 0
 852 452 856 431 857 402 c 0
 857 360 788 49 777 -1 c 1
 689 -1 l 1
 750 287 l 2
 759 331 764 361 764 375 c 0
 764 377 764 378 764 379 c 0
 764 427 728 454 679 454 c 0
 538 454 511 312 503 277 c 2
 444 -1 l 1
 360 -1 l 1
 376 75 l 1
 324 17 262 -13 192 -13 c 0
 135 -13 83 14 61 48 c 0
 52 65 48 87 47 114 c 0
 50 144 53 165 60 196 c 2
 128 518 l 1
 216 518 l 1
 155 230 l 2
 148 195 140 165 140 140 c 0
EndSplineSet
EndChar
StartChar: uni0580
Encoding: 1408 1408 671
Width: 556
Flags: W
HStem: -1 21G<368 456> 454 75<287.5 423.5>
VStem: 443 93<368 453 379 453>
Fore
392 529 m 0
 455 529 536 504 536 402 c 0
 536 360 467 49 456 -1 c 1
 368 -1 l 1
 429 287 l 2
 438 331 443 361 443 375 c 0
 443 377 443 378 443 379 c 0
 443 382 l 0
 443 422 411 454 358 454 c 0
 217 454 191 316 182 277 c 2
 78 -211 l 1
 -10 -211 l 1
 145 518 l 1
 224 518 l 1
 208 441 l 1
 260 500 322 529 392 529 c 0
EndSplineSet
EndChar
StartChar: uni0581
Encoding: 1409 1409 672
Width: 545
Flags: W
HStem: -210 72<106 266.5> 0 73<147 327> 458 72<220 366.5>
VStem: 1 88<-116.5 -56> 46 92<142 230.5>
Fore
176 -210 m 0xe8
 36 -210 1 -142 1 -91 c 0
 1 -77 3 -61 7 -43 c 1
 89 -56 l 1
 89 -65 l 0xf0
 89 -120 133 -136 191 -138 c 0
 342 -138 359 -29 380 68 c 1
 333 23 280 0 222 0 c 0
 72 0 46 118 46 190 c 0
 46 271 104 530 336 530 c 0
 397 530 442 506 471 456 c 1
 484 519 l 1
 565 519 l 1
 470 70 l 2
 442 -61 412 -133 315 -180 c 0
 274 -200 228 -210 176 -210 c 0xe8
437 332 m 0
 437 431 371 458 326 458 c 0
 166 458 138 250 138 193 c 0xe8
 138 91 203 73 247 73 c 0
 407 73 437 281 437 332 c 0
EndSplineSet
EndChar
StartChar: uni0582
Encoding: 1410 1410 673
Width: 352
Flags: W
HStem: 0 62<22 233>
Fore
215 505 m 1
 121 62 l 1
 247 62 l 1
 233 0 l 1
 22 0 l 1
 130 505 l 1
 215 505 l 1
EndSplineSet
EndChar
StartChar: uni0583
Encoding: 1411 1411 674
Width: 853
Flags: W
HStem: -13 76<134.5 266.5> 454 75<579 712>
VStem: 18 93<113.5 141>
Fore
735 379 m 0
 735 424 701 454 649 454 c 0
 509 454 482 315 474 277 c 2
 371 -206 l 1
 286 -206 l 1
 346 75 l 1
 294 17 233 -13 163 -13 c 0
 106 -13 54 13 32 48 c 0
 23 65 19 87 18 114 c 0
 18 131 25 175 30 196 c 2
 98 518 l 1
 186 518 l 1
 125 230 l 2
 116 185 111 155 111 141 c 0
 111 139 111 138 111 137 c 0
 111 90 146 63 196 63 c 0
 337 63 364 204 372 240 c 2
 475 723 l 1
 559 723 l 1
 499 441 l 1
 551 500 612 529 682 529 c 0
 742 529 793 505 815 468 c 0
 824 453 827 431 828 402 c 0
 823 364 823 358 815 320 c 2
 747 -1 l 1
 659 -1 l 1
 720 287 l 2
 729 332 735 361 735 376 c 0
 735 379 l 0
EndSplineSet
EndChar
StartChar: uni0584
Encoding: 1412 1412 675
Width: 588
Flags: W
HStem: -124 58<-22 78 152 461> 34 66<286 329.5> 449 69<333.5 460.5>
VStem: 513 86<322 411>
Fore
267 440 m 1
 280 465 334 518 421 518 c 0
 500 518 599 482 599 340 c 0
 590 147 481 42 315 34 c 0
 257 34 222 60 199 99 c 1
 164 -66 l 1
 473 -66 l 1
 461 -124 l 1
 152 -124 l 1
 134 -209 l 1
 48 -209 l 1
 66 -124 l 1
 -34 -124 l 1
 -22 -66 l 1
 78 -66 l 1
 200 505 l 1
 281 505 l 1
 267 440 l 1
513 345 m 0
 513 405 485 449 402 449 c 0
 265 449 231 276 231 223 c 0
 231 156 261 103 326 100 c 0
 333 100 340 100 346 101 c 0
 487 101 513 299 513 345 c 0
EndSplineSet
EndChar
StartChar: uni0585
Encoding: 1413 1413 676
Width: 579
Flags: W
HStem: -12 73<157.5 335.5> 458 72<249 428.5>
VStem: 40 92<134 272.5> 453 93<298.5 379>
Fore
40 174 m 0
 40 371 169 530 351 530 c 0
 506 530 546 417 546 341 c 0
 546 271 506 -6 235 -12 c 0
 80 -12 40 94 40 174 c 0
335 458 m 0
 163 458 132 239 132 188 c 0
 132 86 200 61 251 61 c 0
 420 61 453 271 453 326 c 0
 453 406 408 456 335 458 c 0
EndSplineSet
EndChar
StartChar: uni0586
Encoding: 1414 1414 677
Width: 690
Flags: W
HStem: -2 70<169 240> 0 68<153 157 357 465.5> 433 69<256 331> 659 66<329.5 374>
VStem: 14 80<89.5 132> 153 86<512 599> 548 83<286.5 374>
Fore
631 323 m 0xbe
 631 250 574 0 357 0 c 2x7e
 312 -1 l 1
 268 -209 l 1
 181 -209 l 1
 225 -1 l 1
 207 -2 188 -2 169 -2 c 1xbe
 157 0 l 2x7e
 149 0 140 1 131 3 c 2
 113 8 l 2
 45 24 14 68 14 111 c 0
 14 121 15 131 17 142 c 1
 95 142 l 1
 94 138 94 134 94 130 c 0
 94 89 142 68 240 68 c 1
 317 434 l 1
 296 433 l 2
 216 433 153 478 153 546 c 0
 153 652 235 720 374 725 c 2
 464 725 l 1
 417 502 l 1
 478 502 l 2
 593 502 631 425 631 323 c 0xbe
364 68 m 2
 511 68 548 264 548 324 c 0
 548 397 510 434 436 434 c 2
 404 434 l 1
 327 68 l 1
 364 68 l 2
364 659 m 1
 295 659 239 637 239 561 c 0
 239 513 276 502 331 502 c 1
 364 659 l 1
EndSplineSet
EndChar
StartChar: uni0587
Encoding: 1415 1415 678
Width: 545
Flags: W
HStem: -8 75<106 225.5> 3 68<403 470>
VStem: 17 92<61.5 128.5>
Fore
139 -8 m 0xa0
 73 -8 17 31 17 92 c 0
 17 99 17 107 19 115 c 0
 148 723 l 1
 234 723 l 1
 113 155 l 2
 111 143 109 133 109 124 c 0
 109 86 130 67 174 67 c 0xa0
 277 67 330 127 348 210 c 0
 379 356 l 1
 465 356 l 1
 403 71 l 1
 483 71 l 1
 470 3 l 1x60
 306 2 l 1
 324 84 l 1
 293 53 l 2
 247 7 202 -5 139 -8 c 0xa0
EndSplineSet
Ligature: 8 1 'liga' uni0565 uni0582
EndChar
StartChar: uni0589
Encoding: 1417 1417 679
Width: 278
Flags: W
HStem: 0 100<56 135>
Fore
124 418 m 1
 145 519 l 1
 245 519 l 1
 224 418 l 1
 124 418 l 1
35 0 m 1
 56 100 l 1
 156 100 l 1
 135 0 l 1
 35 0 l 1
EndSplineSet
EndChar
StartChar: uni058A
Encoding: 1418 1418 680
Width: 367
Flags: W
HStem: 166 54<110 195.5>
Fore
68 263 m 1
 93 245 113 223 182 220 c 0
 209 220 238 225 272 235 c 1
 292 203 l 1
 241 179 200 168 134 166 c 0
 86 166 47 177 6 187 c 1
 68 263 l 1
EndSplineSet
EndChar
StartChar: afii57799
Encoding: 1456 1456 681
Width: 70
Flags: W
HStem: -254 70<-159 -103> -131 71<-133 -77>
Fore
-159 -184 m 1
 -88 -184 l 1
 -103 -254 l 1
 -174 -254 l 1
 -159 -184 l 1
-133 -60 m 1
 -62 -60 l 1
 -77 -131 l 1
 -148 -131 l 1
 -133 -60 l 1
EndSplineSet
EndChar
StartChar: afii57801
Encoding: 1457 1457 682
Width: 335
Flags: W
HStem: -254 70<-94 -39 106 161> -131 71<-133 -77 -3 52 132 188>
Fore
-133 -60 m 1
 -62 -60 l 1
 -77 -131 l 1
 -148 -131 l 1
 -133 -60 l 1
-3 -60 m 1
 67 -60 l 1
 52 -131 l 1
 -18 -131 l 1
 -3 -60 l 1
-94 -184 m 1
 -24 -184 l 1
 -39 -254 l 1
 -109 -254 l 1
 -94 -184 l 1
106 -184 m 1
 176 -184 l 1
 161 -254 l 1
 91 -254 l 1
 106 -184 l 1
132 -60 m 1
 203 -60 l 1
 188 -131 l 1
 117 -131 l 1
 132 -60 l 1
EndSplineSet
EndChar
StartChar: afii57800
Encoding: 1458 1458 683
Width: 329
Flags: W
HStem: -254 70<100 155> -131 71<-133 40 126 182>
Fore
-133 -60 m 1
 55 -60 l 1
 40 -131 l 1
 -148 -131 l 1
 -133 -60 l 1
100 -184 m 1
 170 -184 l 1
 155 -254 l 1
 85 -254 l 1
 100 -184 l 1
126 -60 m 1
 197 -60 l 1
 182 -131 l 1
 111 -131 l 1
 126 -60 l 1
EndSplineSet
EndChar
StartChar: afii57802
Encoding: 1459 1459 684
Width: 329
Flags: W
HStem: -254 70<100 155> -131 71<-133 55 126 182>
Fore
100 -184 m 1
 170 -184 l 1
 155 -254 l 1
 85 -254 l 1
 100 -184 l 1
126 -60 m 1
 197 -60 l 1
 182 -131 l 1
 111 -131 l 1
 126 -60 l 1
-18 -131 m 1
 -43 -248 l 1
 -114 -248 l 1
 -89 -131 l 1
 -148 -131 l 1
 -133 -60 l 1
 55 -60 l 1
 40 -131 l 1
 -18 -131 l 1
EndSplineSet
EndChar
StartChar: afii57793
Encoding: 1460 1460 685
Width: 70
Flags: W
HStem: -131 71<-133 -77>
Fore
-133 -60 m 1
 -62 -60 l 1
 -77 -131 l 1
 -148 -131 l 1
 -133 -60 l 1
EndSplineSet
EndChar
StartChar: afii57794
Encoding: 1461 1461 686
Width: 200
Flags: W
HStem: -131 71<-133 -77 -3 52>
Fore
-133 -60 m 1
 -62 -60 l 1
 -77 -131 l 1
 -148 -131 l 1
 -133 -60 l 1
-3 -60 m 1
 67 -60 l 1
 52 -131 l 1
 -18 -131 l 1
 -3 -60 l 1
EndSplineSet
EndChar
StartChar: afii57795
Encoding: 1462 1462 687
Width: 200
Flags: W
HStem: -254 70<-94 -39> -131 71<-133 -77 -3 52>
Fore
-133 -60 m 1
 -62 -60 l 1
 -77 -131 l 1
 -148 -131 l 1
 -133 -60 l 1
-3 -60 m 1
 67 -60 l 1
 52 -131 l 1
 -18 -131 l 1
 -3 -60 l 1
-94 -184 m 1
 -24 -184 l 1
 -39 -254 l 1
 -109 -254 l 1
 -94 -184 l 1
EndSplineSet
EndChar
StartChar: afii57798
Encoding: 1463 1463 688
Width: 188
Flags: W
HStem: -131 71<-133 40>
Fore
-133 -60 m 1
 55 -60 l 1
 40 -131 l 1
 -148 -131 l 1
 -133 -60 l 1
EndSplineSet
EndChar
StartChar: afii57797
Encoding: 1464 1464 689
Width: 188
Flags: W
HStem: -131 71<-133 55>
Fore
-18 -131 m 1
 -43 -248 l 1
 -114 -248 l 1
 -89 -131 l 1
 -148 -131 l 1
 -133 -60 l 1
 55 -60 l 1
 40 -131 l 1
 -18 -131 l 1
EndSplineSet
EndChar
StartChar: afii57806
Encoding: 1465 1465 690
Width: 70
Flags: W
HStem: 660 71<35 91>
Fore
35 731 m 1
 106 731 l 1
 91 660 l 1
 20 660 l 1
 35 731 l 1
EndSplineSet
EndChar
